<svg id="Capa_1" data-name="Capa 1" xmlns="http://www.w3.org/2000/svg" xmlns:xlink="http://www.w3.org/1999/xlink" viewBox="0 0 1129.2 489.19"><defs><style>.cls-1{fill:url(#Degradado_sin_nombre_22);}.cls-2{fill:url(#Degradado_sin_nombre_22-2);}.cls-3{fill:url(#Degradado_sin_nombre_22-3);}.cls-4{fill:url(#Degradado_sin_nombre_22-4);}.cls-5{fill:url(#Degradado_sin_nombre_22-5);}.cls-6{fill:url(#Degradado_sin_nombre_22-6);}.cls-7{fill:url(#Degradado_sin_nombre_22-7);}.cls-8{fill:url(#Degradado_sin_nombre_22-8);}.cls-9{fill:url(#Degradado_sin_nombre_22-9);}.cls-10{fill:url(#Degradado_sin_nombre_22-10);}.cls-11{fill:url(#Degradado_sin_nombre_14);}.cls-12{fill:url(#Degradado_sin_nombre_14-2);}.cls-13{fill:url(#Degradado_sin_nombre_14-3);}.cls-14{fill:url(#Degradado_sin_nombre_22-11);}.cls-15{fill:url(#Degradado_sin_nombre_22-12);}.cls-16{fill:url(#Degradado_sin_nombre_22-13);}.cls-17{fill:url(#Degradado_sin_nombre_22-14);}.cls-18{fill:url(#Degradado_sin_nombre_22-15);}.cls-19{fill:url(#Degradado_sin_nombre_22-16);}.cls-20{fill:url(#Degradado_sin_nombre_22-17);}.cls-21{fill:url(#Degradado_sin_nombre_22-18);}</style><linearGradient id="Degradado_sin_nombre_22" x1="452.09" y1="594.44" x2="451.9" y2="594.25" gradientTransform="matrix(215.51, 0, 0, -124.45, -96779.62, 74239.74)" gradientUnits="userSpaceOnUse"><stop offset="0" stop-color="#e6e9ed"/><stop offset="1" stop-color="#e6e9ed" stop-opacity="0"/></linearGradient><linearGradient id="Degradado_sin_nombre_22-2" x1="451.96" y1="593.69" x2="452.35" y2="594.13" gradientTransform="matrix(531.12, 0, 0, -306.66, -239036.14, 182181.55)" xlink:href="#Degradado_sin_nombre_22"/><linearGradient id="Degradado_sin_nombre_22-3" x1="449.53" y1="590.64" x2="449.33" y2="590.04" gradientTransform="matrix(270.4, 0, 0, -156.13, -121028.17, 92860.8)" xlink:href="#Degradado_sin_nombre_22"/><linearGradient id="Degradado_sin_nombre_22-4" x1="449.5" y1="590.63" x2="449.3" y2="590.03" gradientTransform="matrix(270.4, 0, 0, -156.13, -120841.17, 92835.8)" xlink:href="#Degradado_sin_nombre_22"/><linearGradient id="Degradado_sin_nombre_22-5" x1="449.58" y1="590.66" x2="449.38" y2="590.06" gradientTransform="matrix(270.4, 0, 0, -156.13, -121321.17, 92938.8)" xlink:href="#Degradado_sin_nombre_22"/><linearGradient id="Degradado_sin_nombre_22-6" x1="449.47" y1="590.67" x2="449.27" y2="590.06" gradientTransform="matrix(270.4, 0, 0, -156.13, -120648.17, 92959.8)" xlink:href="#Degradado_sin_nombre_22"/><linearGradient id="Degradado_sin_nombre_22-7" x1="449.52" y1="590.71" x2="449.32" y2="590.11" gradientTransform="matrix(270.4, 0, 0, -156.13, -120931.17, 93105.8)" xlink:href="#Degradado_sin_nombre_22"/><linearGradient id="Degradado_sin_nombre_22-8" x1="449.57" y1="590.73" x2="449.37" y2="590.12" gradientTransform="matrix(270.4, 0, 0, -156.13, -121267.17, 93172.8)" xlink:href="#Degradado_sin_nombre_22"/><linearGradient id="Degradado_sin_nombre_22-9" x1="449.53" y1="592.93" x2="449.03" y2="593.44" gradientTransform="matrix(297.83, 0, 0, -171.96, -133394.58, 102390.74)" xlink:href="#Degradado_sin_nombre_22"/><linearGradient id="Degradado_sin_nombre_22-10" x1="449.49" y1="592.95" x2="448.98" y2="593.47" gradientTransform="matrix(297.83, 0, 0, -171.96, -133105.58, 102487.74)" xlink:href="#Degradado_sin_nombre_22"/><linearGradient id="Degradado_sin_nombre_14" x1="445.36" y1="591.69" x2="444.41" y2="591.69" gradientTransform="matrix(105.73, 0, 0, -61.06, -46529.12, 36517.03)" gradientUnits="userSpaceOnUse"><stop offset="0" stop-color="#c8d1de"/><stop offset="1" stop-color="#e6e9ed" stop-opacity="0"/></linearGradient><linearGradient id="Degradado_sin_nombre_14-2" x1="445.29" y1="591.67" x2="444.33" y2="591.67" gradientTransform="matrix(105.73, 0, 0, -61.06, -46342.12, 36492.03)" xlink:href="#Degradado_sin_nombre_14"/><linearGradient id="Degradado_sin_nombre_14-3" x1="450.36" y1="591.66" x2="451.32" y2="591.66" gradientTransform="matrix(105.73, 0, 0, -61.06, -47190.12, 36477.03)" xlink:href="#Degradado_sin_nombre_14"/><linearGradient id="Degradado_sin_nombre_22-11" x1="445.84" y1="591.67" x2="444.89" y2="591.67" gradientTransform="matrix(105.73, 0, 0, -61.06, -46703.74, 36494.48)" xlink:href="#Degradado_sin_nombre_22"/><linearGradient id="Degradado_sin_nombre_22-12" x1="446.01" y1="591.63" x2="445.06" y2="591.63" gradientTransform="matrix(105.73, 0, 0, -61.06, -47114.74, 36443.48)" xlink:href="#Degradado_sin_nombre_22"/><linearGradient id="Degradado_sin_nombre_22-13" x1="446.04" y1="591.83" x2="445.09" y2="591.83" gradientTransform="matrix(105.73, 0, 0, -61.06, -47193.74, 36724.48)" xlink:href="#Degradado_sin_nombre_22"/><linearGradient id="Degradado_sin_nombre_22-14" x1="450.27" y1="589.31" x2="451.11" y2="588.48" gradientTransform="matrix(105.73, 0, 0, -61.06, -46902.9, 36470.67)" xlink:href="#Degradado_sin_nombre_22"/><linearGradient id="Degradado_sin_nombre_22-15" x1="450.01" y1="589.47" x2="450.85" y2="588.64" gradientTransform="matrix(105.73, 0, 0, -61.06, -46270.9, 36690.67)" xlink:href="#Degradado_sin_nombre_22"/><linearGradient id="Degradado_sin_nombre_22-16" x1="445.65" y1="589.48" x2="444.81" y2="588.65" gradientTransform="matrix(105.73, 0, 0, -61.06, -47275.35, 36698.67)" xlink:href="#Degradado_sin_nombre_22"/><linearGradient id="Degradado_sin_nombre_22-17" x1="449.98" y1="589.35" x2="450.82" y2="588.52" gradientTransform="matrix(105.73, 0, 0, -61.06, -46200.9, 36520.67)" xlink:href="#Degradado_sin_nombre_22"/><linearGradient id="Degradado_sin_nombre_22-18" x1="450.7" y1="591.43" x2="449.74" y2="591.43" gradientTransform="matrix(78.28, 0, 0, -45.21, -34602.82, 27157.68)" xlink:href="#Degradado_sin_nombre_22"/></defs><title>fondo-contacto</title><g id="Grupo_1250" data-name="Grupo 1250"><path id="Trazado_2636" data-name="Trazado 2636" class="cls-1" d="M52.06,487.41a7.31,7.31,0,0,1,6.54,0c1.82,1.06,1.81,2.76,0,3.79a7.18,7.18,0,0,1-6.54,0C50.29,490.17,50.25,488.46,52.06,487.41ZM65.19,495a7.18,7.18,0,0,1,6.54,0c1.83,1.05,1.81,2.75,0,3.79a7.18,7.18,0,0,1-6.54,0c-1.82-1.05-1.83-2.75,0-3.79Zm13.14,7.58a7.23,7.23,0,0,1,6.52,0c1.82,1.05,1.8,2.76,0,3.8a7.18,7.18,0,0,1-6.54,0c-1.8-1-1.81-2.72,0-3.77Zm13.1,7.57a7.2,7.2,0,0,1,6.55,0c1.82,1.05,1.81,2.75,0,3.79a7.2,7.2,0,0,1-6.55,0c-1.81-1.05-1.82-2.74,0-3.79Zm13.14,7.58a7.27,7.27,0,0,1,6.55,0c1.79,1,1.78,2.74,0,3.78a7.17,7.17,0,0,1-6.52,0c-1.82-1-1.82-2.74,0-3.79Zm13.11,7.57a7.27,7.27,0,0,1,6.55,0c1.81,1.05,1.8,2.75,0,3.79a7.2,7.2,0,0,1-6.55,0c-1.82-1.05-1.83-2.74,0-3.79Zm13.13,7.58a7.27,7.27,0,0,1,6.55,0c1.79,1,1.8,2.76,0,3.8a7.24,7.24,0,0,1-6.54,0c-1.82-1.06-1.83-2.75,0-3.8Zm13.12,7.57a7.24,7.24,0,0,1,6.54,0c1.82,1.06,1.8,2.76,0,3.8a7.18,7.18,0,0,1-6.54,0c-1.82-1.06-1.83-2.75,0-3.8ZM157.05,548a7.2,7.2,0,0,1,6.55,0c1.8,1,1.81,2.75,0,3.79a7.24,7.24,0,0,1-6.54,0c-1.82-1.06-1.83-2.75,0-3.8Zm13.11,7.57a7.27,7.27,0,0,1,6.55,0c1.82,1,1.81,2.75,0,3.79a7.18,7.18,0,0,1-6.54,0c-1.8-1-1.82-2.75,0-3.8Zm13.14,7.58a7.2,7.2,0,0,1,6.55,0c1.82,1,1.8,2.75,0,3.79a7.2,7.2,0,0,1-6.55,0c-1.81-1.05-1.82-2.74,0-3.79Zm13.13,7.58a7.25,7.25,0,0,1,6.53,0c1.81,1.06,1.8,2.76,0,3.8a7.18,7.18,0,0,1-6.54,0c-1.8-1-1.81-2.73,0-3.78Zm13.12,7.57a7.24,7.24,0,0,1,6.54,0c1.82,1,1.81,2.76,0,3.79a7.18,7.18,0,0,1-6.54,0c-1.82-1-1.83-2.74,0-3.79Zm13.13,7.58a7.2,7.2,0,0,1,6.52,0c1.82,1.05,1.81,2.75,0,3.79a7.18,7.18,0,0,1-6.54,0c-1.79-1-1.8-2.73,0-3.78Zm13.11,7.57a7.27,7.27,0,0,1,6.55,0c1.82,1,1.8,2.75,0,3.8a7.18,7.18,0,0,1-6.54,0c-1.82-1.06-1.82-2.75,0-3.8Zm13.13,7.59a7.2,7.2,0,0,1,6.55,0c1.8,1,1.81,2.75,0,3.79a7.27,7.27,0,0,1-6.55,0c-1.81-1.06-1.82-2.75,0-3.8Z" transform="translate(-44.8 -286.87)"/><path id="Trazado_2637" data-name="Trazado 2637" class="cls-2" d="M636.64,386.49a7.2,7.2,0,0,1-6.55,0c-1.78-1-1.77-2.75,0-3.79a7.27,7.27,0,0,1,6.55,0C638.47,383.75,638.46,385.44,636.64,386.49Zm-13.11,7.57a7.18,7.18,0,0,1-6.54,0c-1.79-1-1.8-2.74,0-3.8a7.31,7.31,0,0,1,6.54,0c1.81,1.06,1.77,2.77,0,3.8Zm-13.14,7.58a7.16,7.16,0,0,1-6.53,0c-1.8-1-1.8-2.74,0-3.79a7.24,7.24,0,0,1,6.54,0c1.8,1,1.8,2.75,0,3.79Zm-13.1,7.57a7.18,7.18,0,0,1-6.54,0c-1.8-1-1.8-2.74,0-3.79a7.25,7.25,0,0,1,6.53,0c1.8,1.05,1.79,2.75,0,3.78Zm-13.14,7.59a7.24,7.24,0,0,1-6.54,0c-1.79-1-1.8-2.75,0-3.8a7.27,7.27,0,0,1,6.55,0c1.8,1.05,1.79,2.75,0,3.8ZM571,424.38a7.2,7.2,0,0,1-6.52,0c-1.78-1-1.8-2.75,0-3.78a7.2,7.2,0,0,1,6.55,0c1.81,1.05,1.8,2.74,0,3.79ZM557.91,432a7.2,7.2,0,0,1-6.55,0c-1.78-1-1.79-2.74,0-3.79a7.18,7.18,0,0,1,6.54,0c1.81,1,1.79,2.74,0,3.79Zm-13.14,7.58a7.24,7.24,0,0,1-6.54,0c-1.79-1-1.77-2.76,0-3.79a7.18,7.18,0,0,1,6.54,0c1.81,1.05,1.8,2.74,0,3.79Zm-13.11,7.57a7.18,7.18,0,0,1-6.54,0c-1.79-1-1.8-2.75,0-3.79a7.2,7.2,0,0,1,6.55,0c1.8,1.05,1.79,2.74,0,3.79Zm-13.13,7.58a7.18,7.18,0,0,1-6.54,0c-1.8-1-1.78-2.75,0-3.79a7.24,7.24,0,0,1,6.54,0c1.81,1.05,1.8,2.74,0,3.79Zm-13.11,7.57a7.18,7.18,0,0,1-6.54,0c-1.79-1-1.8-2.74,0-3.79a7.33,7.33,0,0,1,6.55,0c1.81,1.05,1.77,2.76,0,3.79Zm-13.14,7.58a7.18,7.18,0,0,1-6.54,0c-1.78-1-1.8-2.74,0-3.79a7.2,7.2,0,0,1,6.55,0c1.8,1,1.79,2.75,0,3.79Zm-13.11,7.57a7.18,7.18,0,0,1-6.54,0c-1.78-1-1.79-2.74,0-3.79a7.23,7.23,0,0,1,6.52,0c1.81,1.06,1.8,2.75,0,3.78ZM466,485a7.18,7.18,0,0,1-6.54,0c-1.79-1-1.8-2.75,0-3.8a7.27,7.27,0,0,1,6.55,0c1.8,1.06,1.79,2.74,0,3.8Zm-13.13,7.58a7.2,7.2,0,0,1-6.52,0c-1.78-1-1.8-2.74,0-3.78a7.27,7.27,0,0,1,6.55,0c1.8,1.05,1.8,2.74,0,3.79Zm-13.11,7.57a7.18,7.18,0,0,1-6.54,0c-1.79-1-1.8-2.75,0-3.79a7.2,7.2,0,0,1,6.55,0c1.8,1,1.79,2.74,0,3.79Zm-13.13,7.58a7.27,7.27,0,0,1-6.55,0c-1.78-1-1.77-2.76,0-3.79a7.2,7.2,0,0,1,6.55,0c1.8,1.05,1.8,2.74,0,3.79Zm-13.11,7.57a7.18,7.18,0,0,1-6.54,0c-1.79-1-1.81-2.74,0-3.79a7.2,7.2,0,0,1,6.55,0c1.81,1,1.79,2.74,0,3.79Zm-13.14,7.58a7.18,7.18,0,0,1-6.54,0c-1.79-1-1.78-2.75,0-3.79a7.27,7.27,0,0,1,6.55,0c1.8,1,1.79,2.74,0,3.79Zm-13.11,7.57a7.12,7.12,0,0,1-6.54,0c-1.79-1-1.8-2.74,0-3.79a7.31,7.31,0,0,1,6.54,0c1.81,1.06,1.77,2.75,0,3.79ZM374.18,538a7.18,7.18,0,0,1-6.54,0c-1.79-1-1.8-2.74,0-3.79a7.18,7.18,0,0,1,6.54,0c1.8,1,1.79,2.73,0,3.79Zm-13.11,7.57a7.18,7.18,0,0,1-6.54,0c-1.79-1-1.8-2.74,0-3.8a7.25,7.25,0,0,1,6.53,0c1.8,1,1.79,2.74,0,3.78Zm-13.13,7.58a7.2,7.2,0,0,1-6.55,0c-1.78-1-1.8-2.75,0-3.8a7.27,7.27,0,0,1,6.55,0c1.8,1.06,1.79,2.75,0,3.8Zm-13.12,7.57a7.18,7.18,0,0,1-6.54,0c-1.78-1-1.8-2.75,0-3.8a7.23,7.23,0,0,1,6.52,0c1.81,1,1.8,2.74,0,3.78Zm-13.13,7.58a7.18,7.18,0,0,1-6.54,0c-1.79-1-1.8-2.75,0-3.79a7.18,7.18,0,0,1,6.54,0c1.81,1.05,1.8,2.74,0,3.79Zm-13.14,7.58a7.16,7.16,0,0,1-6.53,0c-1.79-1-1.78-2.75,0-3.79a7.24,7.24,0,0,1,6.54,0c1.8,1,1.79,2.74,0,3.79Zm-13.1,7.57a7.18,7.18,0,0,1-6.54,0c-1.79-1-1.8-2.74,0-3.79a7.27,7.27,0,0,1,6.55,0c1.8,1,1.8,2.74,0,3.79Zm-13.13,7.58a7.2,7.2,0,0,1-6.55,0c-1.79-1-1.78-2.75,0-3.79a7.27,7.27,0,0,1,6.55,0c1.8,1.06,1.79,2.75,0,3.79Zm-13.12,7.57a7.18,7.18,0,0,1-6.54,0c-1.78-1-1.8-2.74,0-3.79a7.27,7.27,0,0,1,6.55,0c1.8,1,1.77,2.75,0,3.79Zm-13.13,7.59a7.2,7.2,0,0,1-6.55,0c-1.78-1-1.8-2.74,0-3.79a7.2,7.2,0,0,1,6.55,0c1.81,1,1.79,2.74,0,3.79ZM243,613.79a7.2,7.2,0,0,1-6.55,0c-1.78-1-1.8-2.74,0-3.79a7.24,7.24,0,0,1,6.54,0c1.8,1,1.77,2.75,0,3.79Zm-13.14,7.58a7.18,7.18,0,0,1-6.54,0c-1.79-1-1.8-2.74,0-3.79a7.2,7.2,0,0,1,6.55,0c1.8,1,1.79,2.74,0,3.79Zm-13.1,7.57a7.2,7.2,0,0,1-6.55,0c-1.79-1-1.8-2.74,0-3.79a7.17,7.17,0,0,1,6.52,0c1.8,1,1.8,2.73,0,3.77Zm-13.14,7.58a7.18,7.18,0,0,1-6.54,0c-1.79-1-1.8-2.74,0-3.79a7.2,7.2,0,0,1,6.55,0c1.81,1,1.8,2.74,0,3.79Zm-13.13,7.58a7.17,7.17,0,0,1-6.52,0c-1.79-1-1.81-2.74,0-3.78a7.27,7.27,0,0,1,6.55,0c1.81,1.05,1.79,2.74,0,3.79Zm-13.12,7.57a7.12,7.12,0,0,1-6.54,0c-1.78-1-1.8-2.74,0-3.79a7.27,7.27,0,0,1,6.55,0c1.8,1,1.79,2.74,0,3.79Zm-13.13,7.59a7.24,7.24,0,0,1-6.54,0c-1.79-1-1.78-2.76,0-3.79a7.18,7.18,0,0,1,6.54,0c1.81,1,1.8,2.74,0,3.79Zm-13.11,7.56a7.18,7.18,0,0,1-6.54,0c-1.79-1-1.8-2.74,0-3.79a7.27,7.27,0,0,1,6.55,0c1.8,1.06,1.77,2.76,0,3.79ZM138,674.41a7.2,7.2,0,0,1-6.55,0c-1.78-1-1.79-2.74,0-3.8a7.27,7.27,0,0,1,6.55,0c1.81,1.06,1.8,2.75,0,3.8Z" transform="translate(-44.8 -286.87)"/><path id="Trazado_2638" data-name="Trazado 2638" class="cls-3" d="M794.16,332.92a7.12,7.12,0,0,1-6.54,0c-1.79-1-1.8-2.74,0-3.79a7.31,7.31,0,0,1,6.54,0C796,330.19,796,331.89,794.16,332.92ZM781,340.51a7.18,7.18,0,0,1-6.54,0c-1.79-1-1.8-2.74,0-3.79a7.18,7.18,0,0,1,6.54,0c1.8,1,1.8,2.73,0,3.79Zm-13.11,7.57a7.18,7.18,0,0,1-6.54,0c-1.79-1-1.8-2.74,0-3.8a7.25,7.25,0,0,1,6.53,0C769.72,345.35,769.72,347,767.92,348.08Zm-13.13,7.58a7.2,7.2,0,0,1-6.55,0c-1.78-1-1.8-2.74,0-3.79a7.2,7.2,0,0,1,6.55,0c1.81,1.05,1.79,2.74,0,3.79Zm-13.12,7.57a7.18,7.18,0,0,1-6.54,0c-1.78-1-1.8-2.74,0-3.8a7.23,7.23,0,0,1,6.52,0c1.81,1.05,1.8,2.74,0,3.78Zm-13.13,7.58a7.2,7.2,0,0,1-6.55,0c-1.78-1-1.79-2.75,0-3.79a7.2,7.2,0,0,1,6.55,0c1.81,1.05,1.8,2.74,0,3.79ZM715.4,378.4a7.24,7.24,0,0,1-6.54,0c-1.78-1-1.77-2.76,0-3.8a7.24,7.24,0,0,1,6.54,0c1.8,1,1.8,2.74,0,3.8ZM702.3,386a7.24,7.24,0,0,1-6.54,0c-1.79-1-1.8-2.75,0-3.8a7.27,7.27,0,0,1,6.55,0c1.8,1.05,1.8,2.74,0,3.8Zm-13.13,7.58a7.27,7.27,0,0,1-6.55,0c-1.79-1-1.78-2.76,0-3.8a7.2,7.2,0,0,1,6.55,0c1.81,1.06,1.79,2.75,0,3.8Zm-13.12,7.56a7.18,7.18,0,0,1-6.54,0c-1.79-1-1.8-2.74,0-3.79a7.27,7.27,0,0,1,6.55,0c1.8,1.06,1.77,2.76,0,3.79Zm-13.13,7.58a7.2,7.2,0,0,1-6.55,0c-1.78-1-1.8-2.74,0-3.79a7.24,7.24,0,0,1,6.54,0C664.75,406,664.73,407.64,662.92,408.69Zm-13.12,7.57a7.12,7.12,0,0,1-6.54,0c-1.78-1-1.79-2.74,0-3.79a7.31,7.31,0,0,1,6.54,0c1.8,1,1.78,2.76,0,3.8Zm-13.13,7.59a7.18,7.18,0,0,1-6.54,0c-1.79-1-1.79-2.74,0-3.8a7.24,7.24,0,0,1,6.54,0c1.81,1.06,1.8,2.75,0,3.8Zm-13.1,7.57a7.2,7.2,0,0,1-6.55,0c-1.78-1-1.8-2.74,0-3.79a7.22,7.22,0,0,1,6.53,0c1.8,1.05,1.79,2.74,0,3.78ZM610.43,439a7.18,7.18,0,0,1-6.54,0c-1.79-1-1.8-2.74,0-3.8a7.27,7.27,0,0,1,6.55,0c1.81,1.06,1.8,2.75,0,3.8Zm-13.13,7.58a7.17,7.17,0,0,1-6.52,0c-1.79-1-1.81-2.74,0-3.78a7.27,7.27,0,0,1,6.55,0c1.81,1,1.79,2.74,0,3.79Zm-13.12,7.57a7.18,7.18,0,0,1-6.54,0c-1.78-1-1.8-2.74,0-3.79a7.24,7.24,0,0,1,6.54,0c1.8,1.05,1.79,2.74,0,3.79Zm-13.13,7.59a7.24,7.24,0,0,1-6.54,0c-1.79-1-1.77-2.76,0-3.8a7.24,7.24,0,0,1,6.54,0c1.81,1.06,1.8,2.75,0,3.8ZM558,469.3a7.2,7.2,0,0,1-6.55,0c-1.79-1-1.8-2.74,0-3.79a7.27,7.27,0,0,1,6.55,0c1.8,1.05,1.77,2.76,0,3.79Zm-13.14,7.58a7.2,7.2,0,0,1-6.55,0c-1.79-1-1.79-2.74,0-3.79a7.27,7.27,0,0,1,6.55,0c1.81,1.06,1.8,2.75,0,3.79Z" transform="translate(-44.8 -286.87)"/><path id="Trazado_2656" data-name="Trazado 2656" class="cls-4" d="M973,309a7.12,7.12,0,0,1-6.54,0c-1.79-1-1.8-2.74,0-3.79a7.31,7.31,0,0,1,6.54,0C974.83,306.28,974.8,308,973,309Zm-13.14,7.59a7.16,7.16,0,0,1-6.53,0c-1.79-1-1.8-2.74,0-3.79a7.18,7.18,0,0,1,6.54,0c1.8,1.05,1.8,2.74,0,3.79Zm-13.1,7.57a7.18,7.18,0,0,1-6.54,0c-1.79-1-1.8-2.74,0-3.8a7.25,7.25,0,0,1,6.53,0C948.56,321.44,948.56,323.13,946.76,324.17Zm-13.13,7.58a7.2,7.2,0,0,1-6.55,0c-1.78-1-1.8-2.74,0-3.79a7.2,7.2,0,0,1,6.55,0c1.81,1.05,1.79,2.74,0,3.79Zm-13.12,7.57a7.18,7.18,0,0,1-6.54,0c-1.78-1-1.8-2.74,0-3.8a7.23,7.23,0,0,1,6.52,0c1.81,1,1.8,2.74,0,3.78Zm-13.13,7.58a7.2,7.2,0,0,1-6.55,0c-1.78-1-1.79-2.74,0-3.79a7.2,7.2,0,0,1,6.55,0c1.81,1.05,1.8,2.74,0,3.79Zm-13.14,7.59a7.24,7.24,0,0,1-6.54,0c-1.78-1-1.77-2.76,0-3.8a7.27,7.27,0,0,1,6.55,0c1.8,1.05,1.79,2.74,0,3.8Zm-13.11,7.57a7.22,7.22,0,0,1-6.53,0c-1.79-1-1.8-2.75,0-3.8a7.27,7.27,0,0,1,6.55,0c1.8,1.05,1.8,2.74,0,3.8ZM868,369.64a7.24,7.24,0,0,1-6.54,0c-1.79-1-1.78-2.76,0-3.8a7.27,7.27,0,0,1,6.55,0c1.81,1.06,1.79,2.75,0,3.8Zm-13.11,7.56a7.18,7.18,0,0,1-6.54,0c-1.79-1-1.8-2.74,0-3.79a7.27,7.27,0,0,1,6.55,0c1.8,1.06,1.77,2.76,0,3.8Zm-13.13,7.59a7.27,7.27,0,0,1-6.55,0c-1.78-1-1.8-2.75,0-3.8a7.24,7.24,0,0,1,6.54,0C843.59,382.05,843.57,383.73,841.76,384.79Zm-13.12,7.57a7.18,7.18,0,0,1-6.54,0c-1.78-1-1.79-2.75,0-3.79a7.24,7.24,0,0,1,6.54,0c1.8,1.05,1.78,2.75,0,3.79Zm-13.13,7.58a7.18,7.18,0,0,1-6.54,0c-1.79-1-1.8-2.74,0-3.79a7.18,7.18,0,0,1,6.54,0c1.81,1.05,1.8,2.74,0,3.79Zm-13.1,7.57a7.2,7.2,0,0,1-6.55,0c-1.79-1-1.8-2.74,0-3.79a7.17,7.17,0,0,1,6.52,0c1.81,1,1.8,2.73,0,3.77Zm-13.14,7.58a7.18,7.18,0,0,1-6.54,0c-1.79-1-1.8-2.74,0-3.8a7.27,7.27,0,0,1,6.55,0c1.81,1.06,1.8,2.75,0,3.8Zm-13.13,7.58a7.17,7.17,0,0,1-6.52,0c-1.79-1-1.81-2.74,0-3.78a7.27,7.27,0,0,1,6.55,0c1.81,1.05,1.79,2.74,0,3.8ZM763,430.24a7.18,7.18,0,0,1-6.54,0c-1.78-1-1.8-2.74,0-3.79a7.27,7.27,0,0,1,6.55,0c1.8,1.05,1.79,2.74,0,3.8Zm-13.13,7.59a7.24,7.24,0,0,1-6.54,0c-1.79-1-1.77-2.76,0-3.8a7.24,7.24,0,0,1,6.54,0c1.81,1.06,1.8,2.75,0,3.8Zm-13.11,7.56a7.18,7.18,0,0,1-6.54,0c-1.79-1-1.8-2.74,0-3.79a7.24,7.24,0,0,1,6.54,0c1.81,1.06,1.78,2.76,0,3.8ZM723.65,453a7.2,7.2,0,0,1-6.55,0c-1.79-1-1.79-2.75,0-3.8a7.27,7.27,0,0,1,6.55,0c1.81,1.06,1.8,2.75,0,3.79Z" transform="translate(-44.8 -286.87)"/><path id="Trazado_2649" data-name="Trazado 2649" class="cls-5" d="M514,407.52a7.18,7.18,0,0,1-6.54,0c-1.79-1-1.8-2.74,0-3.79a7.27,7.27,0,0,1,6.55,0C515.78,404.78,515.74,406.48,514,407.52Zm-13.14,7.58a7.18,7.18,0,0,1-6.54,0c-1.78-1-1.8-2.74,0-3.79a7.27,7.27,0,0,1,6.55,0c1.8,1.05,1.79,2.74,0,3.79Zm-13.11,7.57a7.18,7.18,0,0,1-6.54,0c-1.78-1-1.8-2.74,0-3.79a7.23,7.23,0,0,1,6.52,0C489.51,420,489.5,421.64,487.7,422.67Zm-13.13,7.58a7.18,7.18,0,0,1-6.54,0c-1.79-1-1.8-2.74,0-3.79a7.24,7.24,0,0,1,6.54,0c1.81,1.06,1.8,2.75,0,3.79Zm-13.11,7.57a7.18,7.18,0,0,1-6.54,0c-1.79-1-1.8-2.74,0-3.79a7.23,7.23,0,0,1,6.52,0c1.81,1.06,1.8,2.75,0,3.78Zm-13.13,7.59a7.2,7.2,0,0,1-6.55,0c-1.78-1-1.79-2.75,0-3.8a7.27,7.27,0,0,1,6.55,0c1.81,1.05,1.8,2.75,0,3.8ZM435.19,453a7.24,7.24,0,0,1-6.54,0c-1.78-1-1.78-2.76,0-3.79a7.2,7.2,0,0,1,6.55,0c1.8,1.05,1.79,2.74,0,3.79Zm-13.11,7.57a7.18,7.18,0,0,1-6.54,0c-1.78-1-1.8-2.74,0-3.79a7.24,7.24,0,0,1,6.54,0c1.81,1.05,1.8,2.74,0,3.79ZM409,468.14a7.27,7.27,0,0,1-6.55,0c-1.78-1-1.77-2.75,0-3.79a7.2,7.2,0,0,1,6.55,0c1.82,1,1.8,2.74,0,3.79Zm-13.11,7.57a7.18,7.18,0,0,1-6.54,0c-1.79-1-1.8-2.74,0-3.79a7.24,7.24,0,0,1,6.54,0c1.81,1.05,1.78,2.75,0,3.79Zm-13.13,7.58a7.2,7.2,0,0,1-6.55,0c-1.78-1-1.8-2.74,0-3.79a7.2,7.2,0,0,1,6.55,0C384.54,480.55,384.52,482.24,382.71,483.29Zm-13.12,7.57a7.18,7.18,0,0,1-6.54,0c-1.78-1-1.8-2.74,0-3.79a7.27,7.27,0,0,1,6.55,0c1.8,1.05,1.77,2.76,0,3.79Zm-13.13,7.58a7.2,7.2,0,0,1-6.55,0c-1.78-1-1.79-2.74,0-3.79a7.24,7.24,0,0,1,6.54,0c1.81,1.05,1.8,2.75,0,3.8ZM343.35,506a7.24,7.24,0,0,1-6.54,0c-1.79-1-1.8-2.75,0-3.8a7.23,7.23,0,0,1,6.52,0c1.8,1.05,1.79,2.74,0,3.78Zm-13.14,7.57a7.16,7.16,0,0,1-6.53,0c-1.8-1-1.8-2.74,0-3.79a7.27,7.27,0,0,1,6.55,0c1.8,1.06,1.8,2.75,0,3.8Zm-13.13,7.59a7.18,7.18,0,0,1-6.51,0c-1.8-1-1.81-2.74,0-3.78a7.2,7.2,0,0,1,6.55,0c1.81,1.05,1.79,2.74,0,3.79ZM304,528.75a7.18,7.18,0,0,1-6.54,0c-1.78-1-1.8-2.74,0-3.79a7.2,7.2,0,0,1,6.55,0c1.8,1,1.79,2.74,0,3.79Zm-13.13,7.58a7.27,7.27,0,0,1-6.55,0c-1.78-1-1.77-2.75,0-3.79a7.27,7.27,0,0,1,6.55,0c1.81,1.06,1.8,2.74,0,3.79Zm-13.11,7.57a7.2,7.2,0,0,1-6.55,0c-1.78-1-1.79-2.75,0-3.8a7.31,7.31,0,0,1,6.54,0c1.81,1.06,1.77,2.77,0,3.8Zm-13.14,7.58a7.18,7.18,0,0,1-6.54,0c-1.79-1-1.8-2.74,0-3.79a7.18,7.18,0,0,1,6.54,0c1.81,1.06,1.81,2.75,0,3.79Z" transform="translate(-44.8 -286.87)"/><path id="Trazado_2652" data-name="Trazado 2652" class="cls-6" d="M1157.58,427.6a7.12,7.12,0,0,1-6.54,0c-1.79-1-1.8-2.74,0-3.79a7.33,7.33,0,0,1,6.55,0C1159.41,424.87,1159.37,426.57,1157.58,427.6Zm-13.14,7.59a7.18,7.18,0,0,1-6.54,0c-1.78-1-1.8-2.74,0-3.79a7.18,7.18,0,0,1,6.54,0c1.8,1.05,1.79,2.73,0,3.79Zm-13.11,7.57a7.18,7.18,0,0,1-6.54,0c-1.78-1-1.79-2.74,0-3.8a7.23,7.23,0,0,1,6.52,0C1133.14,440,1133.14,441.72,1131.33,442.76Zm-13.13,7.58a7.18,7.18,0,0,1-6.54,0c-1.79-1-1.8-2.74,0-3.8a7.27,7.27,0,0,1,6.55,0c1.8,1.06,1.79,2.75,0,3.8Zm-13.11,7.57a7.18,7.18,0,0,1-6.54,0c-1.79-1-1.8-2.74,0-3.8a7.23,7.23,0,0,1,6.52,0c1.81,1.05,1.8,2.74,0,3.78ZM1092,465.49a7.2,7.2,0,0,1-6.55,0c-1.78-1-1.79-2.75,0-3.79a7.2,7.2,0,0,1,6.55,0c1.81,1.05,1.8,2.74,0,3.79Zm-13.14,7.59a7.24,7.24,0,0,1-6.54,0c-1.78-1-1.78-2.76,0-3.8a7.27,7.27,0,0,1,6.55,0c1.8,1.05,1.79,2.74,0,3.8Zm-13.11,7.56a7.18,7.18,0,0,1-6.54,0c-1.78-1-1.8-2.74,0-3.79a7.24,7.24,0,0,1,6.54,0c1.81,1,1.81,2.74,0,3.79Zm-13.13,7.58a7.18,7.18,0,0,1-6.54,0c-1.79-1-1.78-2.75,0-3.79a7.18,7.18,0,0,1,6.54,0c1.82,1.06,1.8,2.75,0,3.79Zm-13.11,7.57a7.18,7.18,0,0,1-6.54,0c-1.79-1-1.8-2.74,0-3.79a7.24,7.24,0,0,1,6.54,0c1.81,1.06,1.78,2.76,0,3.79Zm-13.13,7.58a7.2,7.2,0,0,1-6.55,0c-1.78-1-1.8-2.74,0-3.79a7.27,7.27,0,0,1,6.55,0C1028.17,500.64,1028.15,502.32,1026.34,503.37Zm-13.12,7.57a7.12,7.12,0,0,1-6.54,0c-1.78-1-1.8-2.74,0-3.79a7.33,7.33,0,0,1,6.55,0c1.8,1.05,1.77,2.76,0,3.8Zm-13.13,7.59a7.18,7.18,0,0,1-6.54,0c-1.79-1-1.8-2.74,0-3.8a7.24,7.24,0,0,1,6.54,0c1.81,1.06,1.8,2.75,0,3.8ZM987,526.1a7.18,7.18,0,0,1-6.54,0c-1.79-1-1.8-2.74,0-3.8a7.23,7.23,0,0,1,6.52,0c1.8,1,1.8,2.74,0,3.78Zm-13.13,7.58a7.18,7.18,0,0,1-6.54,0c-1.8-1-1.8-2.74,0-3.8a7.27,7.27,0,0,1,6.55,0c1.81,1.06,1.8,2.75,0,3.8Zm-13.13,7.58a7.17,7.17,0,0,1-6.52,0c-1.8-1-1.81-2.74,0-3.78a7.27,7.27,0,0,1,6.55,0c1.81,1,1.79,2.74,0,3.79Zm-13.12,7.57a7.18,7.18,0,0,1-6.54,0c-1.78-1-1.8-2.74,0-3.79a7.27,7.27,0,0,1,6.55,0c1.8,1.05,1.79,2.74,0,3.79Zm-13.13,7.59a7.27,7.27,0,0,1-6.55,0c-1.78-1-1.77-2.76,0-3.8a7.27,7.27,0,0,1,6.55,0c1.81,1.06,1.8,2.75,0,3.8ZM921.36,564a7.2,7.2,0,0,1-6.55,0c-1.78-1-1.79-2.74,0-3.79a7.24,7.24,0,0,1,6.54,0c1.81,1,1.78,2.76,0,3.79Zm-13.14,7.58a7.18,7.18,0,0,1-6.54,0c-1.79-1-1.8-2.74,0-3.79a7.24,7.24,0,0,1,6.54,0c1.81,1.06,1.81,2.75,0,3.79Z" transform="translate(-44.8 -286.87)"/><path id="Trazado_2663" data-name="Trazado 2663" class="cls-7" d="M886.93,567.23a7.18,7.18,0,0,1-6.54,0c-1.79-1-1.8-2.74,0-3.79a7.33,7.33,0,0,1,6.55,0C888.76,564.49,888.72,566.2,886.93,567.23Zm-13.14,7.59a7.18,7.18,0,0,1-6.54,0c-1.78-1-1.8-2.75,0-3.79a7.18,7.18,0,0,1,6.54,0c1.8,1,1.79,2.73,0,3.78Zm-13.11,7.57a7.24,7.24,0,0,1-6.54,0c-1.78-1-1.79-2.75,0-3.8a7.23,7.23,0,0,1,6.52,0C862.49,579.66,862.49,581.35,860.68,582.39ZM847.55,590a7.18,7.18,0,0,1-6.54,0c-1.79-1-1.8-2.75,0-3.8a7.27,7.27,0,0,1,6.55,0c1.8,1.06,1.79,2.75,0,3.8Zm-13.11,7.57a7.18,7.18,0,0,1-6.54,0c-1.79-1-1.8-2.75,0-3.8a7.23,7.23,0,0,1,6.52,0c1.81,1,1.8,2.74,0,3.78Zm-13.13,7.58a7.2,7.2,0,0,1-6.55,0c-1.78-1-1.79-2.75,0-3.79a7.2,7.2,0,0,1,6.55,0c1.81,1,1.8,2.74,0,3.79Zm-13.14,7.58a7.18,7.18,0,0,1-6.54,0c-1.78-1-1.78-2.75,0-3.79a7.27,7.27,0,0,1,6.55,0c1.8,1.05,1.79,2.74,0,3.79Zm-13.11,7.57a7.18,7.18,0,0,1-6.54,0c-1.78-1-1.8-2.74,0-3.79a7.24,7.24,0,0,1,6.54,0c1.81,1,1.81,2.74,0,3.79Zm-13.13,7.58a7.18,7.18,0,0,1-6.54,0c-1.79-1-1.78-2.75,0-3.79a7.18,7.18,0,0,1,6.54,0c1.82,1.05,1.8,2.75,0,3.79Zm-13.11,7.57a7.18,7.18,0,0,1-6.54,0c-1.79-1-1.8-2.74,0-3.79a7.24,7.24,0,0,1,6.54,0c1.81,1,1.78,2.76,0,3.79ZM755.69,643a7.2,7.2,0,0,1-6.55,0c-1.78-1-1.8-2.74,0-3.79a7.27,7.27,0,0,1,6.55,0C757.52,640.26,757.5,642,755.69,643Zm-13.12,7.57a7.18,7.18,0,0,1-6.54,0c-1.78-1-1.8-2.74,0-3.79a7.33,7.33,0,0,1,6.55,0c1.8,1.05,1.77,2.76,0,3.8Zm-13.13,7.59a7.18,7.18,0,0,1-6.54,0c-1.79-1-1.8-2.75,0-3.8a7.24,7.24,0,0,1,6.54,0c1.81,1.06,1.8,2.75,0,3.8Zm-13.11,7.57a7.24,7.24,0,0,1-6.54,0c-1.79-1-1.8-2.74,0-3.8a7.23,7.23,0,0,1,6.52,0c1.8,1,1.8,2.74,0,3.78Zm-13.13,7.58a7.18,7.18,0,0,1-6.54,0c-1.8-1-1.8-2.75,0-3.8a7.27,7.27,0,0,1,6.55,0c1.81,1.06,1.8,2.75,0,3.8Zm-13.13,7.58a7.17,7.17,0,0,1-6.52,0c-1.8-1-1.81-2.74,0-3.78a7.27,7.27,0,0,1,6.55,0c1.81,1,1.79,2.74,0,3.79ZM677,688.46a7.18,7.18,0,0,1-6.54,0c-1.78-1-1.8-2.74,0-3.79a7.27,7.27,0,0,1,6.55,0c1.8,1.05,1.79,2.74,0,3.79ZM663.82,696a7.27,7.27,0,0,1-6.55,0c-1.78-1-1.77-2.75,0-3.79a7.27,7.27,0,0,1,6.55,0c1.81,1.06,1.8,2.75,0,3.8Zm-13.11,7.57a7.2,7.2,0,0,1-6.55,0c-1.78-1-1.79-2.74,0-3.79a7.24,7.24,0,0,1,6.54,0c1.81,1,1.78,2.76,0,3.79Zm-13.14,7.58a7.18,7.18,0,0,1-6.54,0c-1.79-1-1.8-2.74,0-3.79a7.18,7.18,0,0,1,6.54,0c1.81,1.06,1.81,2.75,0,3.79Z" transform="translate(-44.8 -286.87)"/><path id="Trazado_2664" data-name="Trazado 2664" class="cls-8" d="M565.59,631.31a7.18,7.18,0,0,1-6.54,0c-1.79-1-1.8-2.74,0-3.79a7.24,7.24,0,0,1,6.54,0C567.42,628.57,567.39,630.27,565.59,631.31Zm-13.14,7.58a7.16,7.16,0,0,1-6.53,0c-1.79-1-1.8-2.74,0-3.79a7.24,7.24,0,0,1,6.54,0c1.8,1,1.8,2.74,0,3.79Zm-13.1,7.57a7.18,7.18,0,0,1-6.54,0c-1.79-1-1.8-2.74,0-3.79a7.22,7.22,0,0,1,6.53,0C541.15,643.73,541.15,645.42,539.35,646.46ZM526.22,654a7.2,7.2,0,0,1-6.55,0c-1.78-1-1.8-2.74,0-3.79a7.2,7.2,0,0,1,6.55,0c1.81,1,1.79,2.75,0,3.79Zm-13.12,7.57a7.18,7.18,0,0,1-6.54,0c-1.78-1-1.8-2.74,0-3.79a7.23,7.23,0,0,1,6.52,0c1.81,1,1.8,2.74,0,3.78ZM500,669.2a7.27,7.27,0,0,1-6.55,0c-1.78-1.05-1.79-2.75,0-3.8a7.27,7.27,0,0,1,6.55,0c1.81,1.05,1.8,2.74,0,3.8Zm-13.14,7.58a7.24,7.24,0,0,1-6.54,0c-1.78-1-1.77-2.76,0-3.79a7.18,7.18,0,0,1,6.54,0c1.8,1,1.8,2.74,0,3.79Zm-13.1,7.57a7.18,7.18,0,0,1-6.54,0c-1.79-1-1.8-2.74,0-3.8a7.27,7.27,0,0,1,6.55,0c1.8,1.06,1.8,2.75,0,3.8Zm-13.13,7.58a7.27,7.27,0,0,1-6.55,0c-1.79-1-1.78-2.76,0-3.79a7.2,7.2,0,0,1,6.55,0c1.81,1.05,1.79,2.74,0,3.79Zm-13.12,7.57a7.18,7.18,0,0,1-6.54,0c-1.79-1-1.8-2.74,0-3.8a7.33,7.33,0,0,1,6.55,0c1.8,1.06,1.77,2.76,0,3.8Zm-13.13,7.58a7.2,7.2,0,0,1-6.55,0c-1.78-1-1.8-2.75,0-3.79a7.18,7.18,0,0,1,6.54,0C436.18,704.34,436.16,706,434.35,707.08Zm-13.12,7.57a7.18,7.18,0,0,1-6.54,0c-1.78-1-1.79-2.74,0-3.79a7.24,7.24,0,0,1,6.54,0c1.8,1,1.78,2.76,0,3.79Zm-13.13,7.58a7.18,7.18,0,0,1-6.54,0c-1.79-1-1.79-2.74,0-3.79a7.24,7.24,0,0,1,6.54,0c1.81,1,1.8,2.74,0,3.79ZM395,729.8a7.2,7.2,0,0,1-6.55,0c-1.78-1-1.8-2.74,0-3.79a7.2,7.2,0,0,1,6.52,0c1.81,1.05,1.8,2.74,0,3.78Zm-13.14,7.58a7.18,7.18,0,0,1-6.54,0c-1.79-1-1.8-2.74,0-3.79a7.2,7.2,0,0,1,6.55,0c1.81,1.06,1.8,2.75,0,3.79ZM368.73,745a7.2,7.2,0,0,1-6.52,0c-1.79-1.05-1.81-2.75,0-3.78a7.2,7.2,0,0,1,6.55,0c1.81,1.05,1.79,2.74,0,3.79Zm-13.12,7.57a7.18,7.18,0,0,1-6.54,0c-1.78-1-1.8-2.75,0-3.79a7.18,7.18,0,0,1,6.54,0c1.8,1,1.79,2.74,0,3.79Zm-13.13,7.58a7.24,7.24,0,0,1-6.54,0c-1.79-1-1.77-2.76,0-3.79a7.18,7.18,0,0,1,6.54,0c1.81,1,1.8,2.74,0,3.79Zm-13.1,7.57a7.2,7.2,0,0,1-6.55,0c-1.79-1-1.8-2.75,0-3.8a7.24,7.24,0,0,1,6.54,0c1.81,1.06,1.78,2.76,0,3.8Zm-13.14,7.58a7.2,7.2,0,0,1-6.55,0c-1.79-1-1.79-2.74,0-3.8a7.27,7.27,0,0,1,6.55,0c1.81,1.06,1.8,2.75,0,3.8Z" transform="translate(-44.8 -286.87)"/><path id="Trazado_2642" data-name="Trazado 2642" class="cls-9" d="M541.48,467.26a7.24,7.24,0,0,0,6.54,0c1.79-1,1.78-2.76,0-3.79a7.2,7.2,0,0,0-6.55,0C539.65,464.51,539.66,466.21,541.48,467.26ZM554.56,471a7.27,7.27,0,0,1,6.55,0c1.82,1,1.81,2.75,0,3.79a7.18,7.18,0,0,1-6.54,0c-1.8-1-1.83-2.75,0-3.79Zm13.14,7.58a7.27,7.27,0,0,1,6.55,0c1.81,1.05,1.8,2.75,0,3.79a7.18,7.18,0,0,1-6.54,0c-1.82-1.05-1.83-2.74,0-3.79Zm13.13,7.58a7.22,7.22,0,0,1,6.53,0c1.81,1.05,1.8,2.75,0,3.79a7.2,7.2,0,0,1-6.55,0c-1.79-1-1.81-2.73,0-3.78Zm13.11,7.57a7.27,7.27,0,0,1,6.55,0c1.82,1.05,1.8,2.75,0,3.79a7.18,7.18,0,0,1-6.54,0c-1.82-1.05-1.83-2.74,0-3.79Zm13.14,7.58a7.24,7.24,0,0,1,6.54,0c1.8,1,1.79,2.74,0,3.78a7.17,7.17,0,0,1-6.52,0c-1.82-1.05-1.83-2.74,0-3.79Zm13.1,7.57a7.27,7.27,0,0,1,6.55,0c1.82,1.06,1.81,2.76,0,3.8a7.24,7.24,0,0,1-6.54,0c-1.82-1.06-1.82-2.75,0-3.8Zm13.14,7.59a7.2,7.2,0,0,1,6.55,0c1.79,1,1.81,2.75,0,3.79a7.24,7.24,0,0,1-6.54,0c-1.82-1-1.82-2.75,0-3.79Zm13.11,7.57a7.2,7.2,0,0,1,6.55,0c1.82,1,1.81,2.75,0,3.79a7.2,7.2,0,0,1-6.55,0c-1.81-1-1.83-2.75,0-3.79Zm13.14,7.58a7.18,7.18,0,0,1,6.54,0c1.8,1,1.8,2.75,0,3.79a7.24,7.24,0,0,1-6.54,0c-1.82-1.05-1.83-2.75,0-3.79Zm13.11,7.57a7.24,7.24,0,0,1,6.54,0c1.82,1,1.81,2.75,0,3.79a7.18,7.18,0,0,1-6.54,0c-1.8-1-1.83-2.75,0-3.79Zm13.13,7.58a7.24,7.24,0,0,1,6.54,0c1.83,1.05,1.81,2.76,0,3.79a7.18,7.18,0,0,1-6.54,0c-1.83-1.05-1.83-2.74,0-3.79ZM699,554.39a7.2,7.2,0,0,1,6.52,0c1.82,1,1.8,2.75,0,3.79a7.2,7.2,0,0,1-6.55,0c-1.8-1-1.8-2.73,0-3.78Zm13.1,7.57a7.27,7.27,0,0,1,6.55,0c1.82,1,1.81,2.75,0,3.79a7.2,7.2,0,0,1-6.55,0c-1.81-1-1.83-2.74,0-3.79Zm13.14,7.58a7.27,7.27,0,0,1,6.55,0c1.79,1,1.78,2.74,0,3.78a7.17,7.17,0,0,1-6.52,0c-1.82-1.05-1.83-2.74,0-3.79Zm13.11,7.57a7.27,7.27,0,0,1,6.55,0c1.81,1,1.8,2.75,0,3.8a7.2,7.2,0,0,1-6.55,0c-1.82-1.06-1.83-2.75,0-3.8Zm13.13,7.59a7.2,7.2,0,0,1,6.55,0c1.79,1,1.81,2.75,0,3.79a7.24,7.24,0,0,1-6.54,0c-1.83-1.06-1.83-2.74,0-3.79Zm13.12,7.57a7.18,7.18,0,0,1,6.54,0c1.82,1.05,1.81,2.75,0,3.79a7.18,7.18,0,0,1-6.54,0c-1.83-1-1.84-2.75,0-3.79Zm13.12,7.58a7.2,7.2,0,0,1,6.55,0c1.8,1,1.81,2.75,0,3.79a7.24,7.24,0,0,1-6.54,0c-1.82-1-1.83-2.74,0-3.79Zm13.12,7.57a7.27,7.27,0,0,1,6.55,0c1.82,1.05,1.8,2.75,0,3.79a7.18,7.18,0,0,1-6.54,0c-1.8-1-1.83-2.74,0-3.79ZM803.92,615a7.2,7.2,0,0,1,6.55,0c1.82,1,1.8,2.75,0,3.79a7.2,7.2,0,0,1-6.55,0c-1.81-1-1.83-2.74,0-3.79Zm13.14,7.58a7.2,7.2,0,0,1,6.52,0c1.81,1,1.8,2.75,0,3.79a7.24,7.24,0,0,1-6.54,0c-1.8-1-1.81-2.73,0-3.77Z" transform="translate(-44.8 -286.87)"/><path id="Trazado_2658" data-name="Trazado 2658" class="cls-10" d="M817.87,560a7.18,7.18,0,0,0,6.54,0c1.79-1,1.77-2.75,0-3.79a7.27,7.27,0,0,0-6.55,0C816,557.28,816,559,817.87,560ZM831,563.8a7.33,7.33,0,0,1,6.55,0c1.82,1.06,1.8,2.76,0,3.8a7.27,7.27,0,0,1-6.55,0c-1.79-1-1.82-2.75,0-3.8Zm13.14,7.59a7.2,7.2,0,0,1,6.55,0c1.81,1.05,1.8,2.75,0,3.79a7.18,7.18,0,0,1-6.54,0c-1.82-1-1.83-2.75,0-3.79ZM857.22,579a7.25,7.25,0,0,1,6.53,0c1.81,1,1.8,2.76,0,3.8a7.2,7.2,0,0,1-6.55,0c-1.79-1-1.81-2.73,0-3.78Zm13.11,7.57a7.18,7.18,0,0,1,6.54,0c1.83,1.05,1.81,2.75,0,3.79a7.18,7.18,0,0,1-6.54,0c-1.83-1.05-1.83-2.74,0-3.79Zm13.14,7.58a7.24,7.24,0,0,1,6.54,0c1.79,1,1.79,2.74,0,3.78a7.18,7.18,0,0,1-6.51,0c-1.82-1-1.83-2.74,0-3.79Zm13.1,7.57a7.27,7.27,0,0,1,6.55,0c1.82,1,1.81,2.76,0,3.79a7.18,7.18,0,0,1-6.54,0c-1.82-1.05-1.83-2.74,0-3.79Zm13.14,7.58a7.27,7.27,0,0,1,6.55,0c1.79,1,1.8,2.76,0,3.8a7.24,7.24,0,0,1-6.54,0c-1.82-1.06-1.83-2.75,0-3.8Zm13.11,7.57a7.27,7.27,0,0,1,6.55,0c1.82,1.06,1.8,2.76,0,3.8a7.2,7.2,0,0,1-6.55,0c-1.81-1.06-1.83-2.75,0-3.8ZM936,624.42a7.24,7.24,0,0,1,6.54,0c1.8,1,1.8,2.76,0,3.79a7.18,7.18,0,0,1-6.54,0c-1.82-1.05-1.83-2.74,0-3.79ZM949.07,632a7.31,7.31,0,0,1,6.54,0c1.82,1.06,1.81,2.76,0,3.79a7.18,7.18,0,0,1-6.54,0c-1.8-1-1.83-2.74,0-3.79Zm13.13,7.59a7.18,7.18,0,0,1,6.54,0c1.82,1,1.81,2.75,0,3.79a7.16,7.16,0,0,1-6.53,0c-1.83-1-1.84-2.74,0-3.79Zm13.13,7.58a7.22,7.22,0,0,1,6.53,0c1.82,1.05,1.8,2.76,0,3.8a7.24,7.24,0,0,1-6.54,0c-1.8-1-1.81-2.73,0-3.78Zm13.11,7.57a7.2,7.2,0,0,1,6.55,0c1.82,1,1.8,2.75,0,3.79a7.2,7.2,0,0,1-6.55,0c-1.81-1-1.83-2.74,0-3.79Zm13.14,7.58a7.2,7.2,0,0,1,6.55,0c1.79,1,1.77,2.74,0,3.78a7.2,7.2,0,0,1-6.52,0c-1.82-1.05-1.83-2.74,0-3.79Zm13.11,7.57a7.18,7.18,0,0,1,6.54,0c1.82,1,1.81,2.75,0,3.79a7.18,7.18,0,0,1-6.54,0c-1.82-1-1.83-2.74,0-3.79Zm13.13,7.58a7.24,7.24,0,0,1,6.54,0c1.8,1,1.82,2.76,0,3.8a7.24,7.24,0,0,1-6.54,0c-1.83-1.06-1.83-2.75,0-3.8Zm13.11,7.57a7.27,7.27,0,0,1,6.55,0c1.82,1.05,1.81,2.76,0,3.8a7.22,7.22,0,0,1-6.53,0c-1.83-1.06-1.84-2.75,0-3.8Zm13.13,7.58a7.27,7.27,0,0,1,6.55,0c1.8,1,1.81,2.76,0,3.8a7.24,7.24,0,0,1-6.54,0c-1.82-1-1.83-2.75,0-3.8Zm13.12,7.58a7.27,7.27,0,0,1,6.55,0c1.81,1,1.79,2.75,0,3.79a7.18,7.18,0,0,1-6.54,0c-1.8-1-1.83-2.75,0-3.79Zm13.13,7.58a7.2,7.2,0,0,1,6.55,0c1.81,1.05,1.8,2.75,0,3.79a7.2,7.2,0,0,1-6.55,0c-1.82-1-1.83-2.75,0-3.79Zm13.14,7.58a7.23,7.23,0,0,1,6.52,0c1.81,1.06,1.8,2.76,0,3.79a7.18,7.18,0,0,1-6.54,0c-1.81-1-1.81-2.72,0-3.77Z" transform="translate(-44.8 -286.87)"/><path id="Trazado_2644" data-name="Trazado 2644" class="cls-11" d="M760.68,363.31a7.24,7.24,0,0,0,6.54,0c1.79-1,1.77-2.76,0-3.79a7.2,7.2,0,0,0-6.55,0C758.85,360.56,758.85,362.26,760.68,363.31Zm13.08,3.77a7.33,7.33,0,0,1,6.55,0c1.82,1.06,1.81,2.76,0,3.8a7.2,7.2,0,0,1-6.55,0c-1.79-1-1.82-2.75,0-3.79Zm13.14,7.59a7.2,7.2,0,0,1,6.55,0c1.81,1.05,1.8,2.75,0,3.79a7.18,7.18,0,0,1-6.54,0c-1.82-1-1.83-2.74,0-3.79ZM800,382.25a7.25,7.25,0,0,1,6.53,0c1.81,1.06,1.8,2.76,0,3.8a7.2,7.2,0,0,1-6.55,0c-1.79-1-1.81-2.73,0-3.78Zm13.11,7.57a7.2,7.2,0,0,1,6.55,0c1.81,1.05,1.8,2.75,0,3.79a7.18,7.18,0,0,1-6.54,0c-1.82-1.05-1.83-2.74,0-3.79Zm13.14,7.58a7.24,7.24,0,0,1,6.54,0c1.8,1,1.79,2.74,0,3.78a7.17,7.17,0,0,1-6.52,0c-1.82-1.05-1.83-2.74,0-3.79ZM839.39,405a7.24,7.24,0,0,1,6.54,0c1.82,1,1.81,2.76,0,3.79a7.18,7.18,0,0,1-6.54,0c-1.82-1.05-1.83-2.74,0-3.79Zm13.13,7.58a7.27,7.27,0,0,1,6.55,0c1.79,1,1.81,2.76,0,3.8a7.24,7.24,0,0,1-6.54,0c-1.83-1.06-1.84-2.75,0-3.79Z" transform="translate(-44.8 -286.87)"/><path id="Trazado_2657" data-name="Trazado 2657" class="cls-12" d="M939.52,339.4a7.22,7.22,0,0,0,6.53,0c1.8-1,1.78-2.76,0-3.79a7.2,7.2,0,0,0-6.55,0C937.69,336.66,937.69,338.35,939.52,339.4Zm13.08,3.78a7.27,7.27,0,0,1,6.55,0c1.82,1.05,1.81,2.75,0,3.79a7.2,7.2,0,0,1-6.55,0c-1.79-1-1.82-2.75,0-3.79Zm13.14,7.58a7.2,7.2,0,0,1,6.55,0c1.81,1.05,1.8,2.75,0,3.79a7.18,7.18,0,0,1-6.54,0c-1.82-1.05-1.83-2.74,0-3.79Zm13.13,7.58a7.23,7.23,0,0,1,6.52,0c1.82,1.06,1.81,2.76,0,3.8a7.2,7.2,0,0,1-6.55,0c-1.79-1-1.81-2.73,0-3.78ZM992,365.91a7.2,7.2,0,0,1,6.55,0c1.81,1,1.8,2.75,0,3.79a7.18,7.18,0,0,1-6.54,0c-1.82-1.05-1.83-2.74,0-3.79Zm13.14,7.58a7.24,7.24,0,0,1,6.54,0c1.8,1,1.79,2.74,0,3.78a7.17,7.17,0,0,1-6.52,0c-1.82-1-1.83-2.74,0-3.79Zm13.1,7.57a7.27,7.27,0,0,1,6.55,0c1.82,1.05,1.81,2.76,0,3.79a7.18,7.18,0,0,1-6.54,0c-1.82-1.05-1.83-2.74,0-3.79Zm13.14,7.58a7.27,7.27,0,0,1,6.55,0c1.79,1,1.81,2.76,0,3.8a7.22,7.22,0,0,1-6.53,0c-1.83-1.05-1.84-2.75,0-3.79Z" transform="translate(-44.8 -286.87)"/><path id="Trazado_2666" data-name="Trazado 2666" class="cls-13" d="M226.89,325.05a7.24,7.24,0,0,1-6.54,0c-1.79-1-1.77-2.75,0-3.79a7.27,7.27,0,0,1,6.55,0C228.72,322.31,228.72,324,226.89,325.05Zm-13.08,3.78a7.33,7.33,0,0,0-6.55,0c-1.82,1.05-1.81,2.76,0,3.79a7.2,7.2,0,0,0,6.55,0c1.79-1,1.82-2.74,0-3.79Zm-13.14,7.58a7.27,7.27,0,0,0-6.55,0c-1.82,1.06-1.8,2.76,0,3.8a7.18,7.18,0,0,0,6.54,0c1.82-1.06,1.83-2.74,0-3.8ZM187.54,344a7.25,7.25,0,0,0-6.53,0c-1.81,1-1.8,2.75,0,3.79a7.2,7.2,0,0,0,6.55,0c1.79-1,1.81-2.73,0-3.78Zm-13.11,7.57a7.27,7.27,0,0,0-6.55,0c-1.81,1.06-1.8,2.76,0,3.79a7.18,7.18,0,0,0,6.54,0c1.82-1.05,1.83-2.74,0-3.78Zm-13.14,7.59a7.18,7.18,0,0,0-6.54,0c-1.8,1-1.79,2.73,0,3.77a7.17,7.17,0,0,0,6.52,0c1.82-1.05,1.83-2.74,0-3.79Zm-13.11,7.57a7.18,7.18,0,0,0-6.54,0c-1.82,1-1.81,2.75,0,3.79a7.16,7.16,0,0,0,6.53,0c1.83-1.05,1.83-2.74,0-3.79Zm-13.13,7.58a7.27,7.27,0,0,0-6.55,0c-1.79,1-1.81,2.75,0,3.79a7.18,7.18,0,0,0,6.54,0c1.83-1,1.83-2.74,0-3.79Z" transform="translate(-44.8 -286.87)"/><path id="Trazado_2645" data-name="Trazado 2645" class="cls-14" d="M591,340.22a7.24,7.24,0,0,0,6.54,0c1.79-1,1.78-2.76,0-3.79a7.2,7.2,0,0,0-6.55,0C589.22,337.48,589.23,339.17,591,340.22ZM604.13,344a7.27,7.27,0,0,1,6.55,0c1.81,1.05,1.8,2.75,0,3.79a7.2,7.2,0,0,1-6.55,0c-1.79-1-1.82-2.74,0-3.79Zm13.14,7.58a7.24,7.24,0,0,1,6.54,0c1.82,1.05,1.8,2.75,0,3.79a7.18,7.18,0,0,1-6.54,0c-1.82-1.05-1.83-2.74,0-3.79Zm13.13,7.58a7.2,7.2,0,0,1,6.52,0c1.82,1.05,1.81,2.75,0,3.79a7.18,7.18,0,0,1-6.54,0c-1.79-1-1.81-2.73,0-3.78Zm13.1,7.57a7.27,7.27,0,0,1,6.55,0c1.82,1,1.81,2.75,0,3.79a7.18,7.18,0,0,1-6.54,0c-1.82-1-1.82-2.74,0-3.79Zm13.14,7.59a7.2,7.2,0,0,1,6.55,0c1.79,1,1.78,2.73,0,3.77a7.17,7.17,0,0,1-6.52,0c-1.81-1.06-1.82-2.75,0-3.8Zm13.11,7.57a7.2,7.2,0,0,1,6.55,0c1.82,1.05,1.81,2.75,0,3.79a7.18,7.18,0,0,1-6.54,0c-1.82-1.06-1.83-2.75,0-3.8Zm13.14,7.58a7.18,7.18,0,0,1,6.54,0c1.8,1,1.81,2.75,0,3.79a7.24,7.24,0,0,1-6.54,0c-1.82-1.05-1.83-2.75,0-3.8Z" transform="translate(-44.8 -286.87)"/><path id="Trazado_2655" data-name="Trazado 2655" class="cls-15" d="M198,291.44a7.18,7.18,0,0,0,6.54,0c1.79-1,1.77-2.75,0-3.79a7.24,7.24,0,0,0-6.54,0C196.15,288.7,196.16,290.39,198,291.44Zm13.08,3.78a7.33,7.33,0,0,1,6.55,0c1.82,1,1.81,2.76,0,3.8a7.24,7.24,0,0,1-6.54,0c-1.79-1-1.83-2.75,0-3.8Zm13.14,7.59a7.2,7.2,0,0,1,6.55,0c1.82,1.05,1.8,2.75,0,3.79a7.18,7.18,0,0,1-6.54,0c-1.81-1.05-1.82-2.75,0-3.79Zm13.13,7.58a7.25,7.25,0,0,1,6.53,0c1.82,1.05,1.8,2.75,0,3.8a7.2,7.2,0,0,1-6.55,0c-1.79-1.05-1.8-2.74,0-3.78ZM250.44,318a7.2,7.2,0,0,1,6.55,0c1.81,1.05,1.8,2.75,0,3.79a7.18,7.18,0,0,1-6.54,0c-1.82-1.06-1.83-2.75,0-3.79Zm13.14,7.58a7.24,7.24,0,0,1,6.54,0c1.8,1,1.79,2.74,0,3.78a7.17,7.17,0,0,1-6.52,0c-1.81-1.05-1.83-2.74,0-3.79Zm13.11,7.57a7.24,7.24,0,0,1,6.54,0c1.82,1.05,1.81,2.76,0,3.79a7.16,7.16,0,0,1-6.53,0c-1.82-1-1.83-2.74,0-3.79Zm13.13,7.58a7.27,7.27,0,0,1,6.55,0c1.79,1,1.81,2.76,0,3.8a7.24,7.24,0,0,1-6.54,0c-1.82-1.06-1.83-2.75,0-3.8Z" transform="translate(-44.8 -286.87)"/><path id="Trazado_2660" data-name="Trazado 2660" class="cls-16" d="M122.43,560.18a7.22,7.22,0,0,0,6.53,0c1.8-1,1.78-2.76,0-3.79a7.27,7.27,0,0,0-6.55,0C120.6,557.44,120.61,559.13,122.43,560.18ZM135.51,564a7.27,7.27,0,0,1,6.55,0c1.82,1,1.8,2.76,0,3.79a7.2,7.2,0,0,1-6.55,0c-1.79-1-1.82-2.74,0-3.79Zm13.14,7.58a7.27,7.27,0,0,1,6.55,0c1.81,1.05,1.79,2.76,0,3.8a7.18,7.18,0,0,1-6.54,0c-1.82-1.06-1.82-2.75,0-3.8Zm13.13,7.58a7.23,7.23,0,0,1,6.52,0c1.83,1,1.81,2.75,0,3.79a7.2,7.2,0,0,1-6.55,0c-1.79-1-1.8-2.73,0-3.77Zm13.11,7.57a7.24,7.24,0,0,1,6.54,0c1.82,1.06,1.81,2.76,0,3.79a7.12,7.12,0,0,1-6.54,0c-1.82-1.05-1.83-2.74,0-3.79ZM188,594.28a7.18,7.18,0,0,1,6.54,0c1.79,1,1.79,2.74,0,3.77a7.15,7.15,0,0,1-6.51,0c-1.81-1.05-1.83-2.74,0-3.79Zm13.1,7.57a7.27,7.27,0,0,1,6.55,0c1.82,1,1.81,2.75,0,3.79a7.18,7.18,0,0,1-6.54,0c-1.82-1-1.82-2.75,0-3.79Zm13.14,7.58a7.27,7.27,0,0,1,6.55,0c1.79,1,1.8,2.75,0,3.79a7.18,7.18,0,0,1-6.54,0c-1.82-1.05-1.82-2.74,0-3.79Z" transform="translate(-44.8 -286.87)"/><path id="Trazado_2647" data-name="Trazado 2647" class="cls-17" d="M402.89,318.49a7.24,7.24,0,0,0,6.54,0c1.79-1,1.78-2.76,0-3.79a7.18,7.18,0,0,0-6.54,0C401.06,315.74,401.06,317.43,402.89,318.49ZM416,322.26a7.31,7.31,0,0,1,6.54,0c1.82,1.06,1.81,2.76,0,3.8a7.27,7.27,0,0,1-6.55,0c-1.79-1-1.83-2.75,0-3.8Zm13.14,7.59a7.18,7.18,0,0,1,6.54,0c1.82,1,1.8,2.75,0,3.79a7.18,7.18,0,0,1-6.54,0c-1.82-1.05-1.83-2.74,0-3.79Zm13.12,7.58a7.25,7.25,0,0,1,6.53,0c1.82,1,1.81,2.76,0,3.8a7.27,7.27,0,0,1-6.55,0c-1.79-1-1.8-2.73,0-3.78ZM455.35,345a7.2,7.2,0,0,1,6.55,0c1.82,1.05,1.81,2.75,0,3.79a7.18,7.18,0,0,1-6.54,0c-1.82-1.05-1.83-2.74,0-3.79Zm13.14,7.58a7.27,7.27,0,0,1,6.55,0c1.79,1,1.78,2.74,0,3.78a7.17,7.17,0,0,1-6.52,0c-1.81-1.05-1.83-2.74,0-3.79Zm13.11,7.57a7.27,7.27,0,0,1,6.55,0c1.81,1.05,1.8,2.76,0,3.8a7.24,7.24,0,0,1-6.54,0c-1.82-1.06-1.83-2.75,0-3.8Zm13.14,7.58a7.24,7.24,0,0,1,6.54,0c1.79,1,1.81,2.76,0,3.8a7.24,7.24,0,0,1-6.54,0c-1.82-1.06-1.83-2.75,0-3.8Z" transform="translate(-44.8 -286.87)"/><path id="Trazado_2659" data-name="Trazado 2659" class="cls-18" d="M1007.31,528.88a7.18,7.18,0,0,0,6.54,0c1.79-1,1.78-2.75,0-3.79a7.24,7.24,0,0,0-6.54,0C1005.48,526.14,1005.48,527.83,1007.31,528.88Zm13.09,3.78a7.31,7.31,0,0,1,6.54,0c1.82,1.06,1.81,2.76,0,3.8a7.27,7.27,0,0,1-6.55,0c-1.79-1-1.83-2.75,0-3.8Zm13.14,7.59a7.18,7.18,0,0,1,6.54,0c1.82,1,1.8,2.75,0,3.79a7.18,7.18,0,0,1-6.54,0c-1.82-1-1.83-2.74,0-3.79Zm13.12,7.58a7.25,7.25,0,0,1,6.53,0c1.82,1.05,1.81,2.76,0,3.79a7.2,7.2,0,0,1-6.55,0c-1.79-1-1.8-2.72,0-3.77Zm13.11,7.57a7.2,7.2,0,0,1,6.55,0c1.82,1.05,1.81,2.75,0,3.79a7.18,7.18,0,0,1-6.54,0c-1.82-1.05-1.83-2.74,0-3.8Zm13.14,7.58a7.27,7.27,0,0,1,6.55,0c1.79,1,1.78,2.74,0,3.78a7.2,7.2,0,0,1-6.52,0c-1.81-1-1.83-2.74,0-3.79Zm13.11,7.57a7.27,7.27,0,0,1,6.55,0c1.81,1.05,1.8,2.76,0,3.8a7.24,7.24,0,0,1-6.54,0c-1.82-1.06-1.83-2.75,0-3.8Zm13.14,7.58a7.24,7.24,0,0,1,6.54,0c1.79,1,1.81,2.76,0,3.8a7.24,7.24,0,0,1-6.54,0c-1.82-1.06-1.83-2.75,0-3.8Z" transform="translate(-44.8 -286.87)"/><path id="Trazado_2667" data-name="Trazado 2667" class="cls-19" d="M144.54,536.54a7.24,7.24,0,0,1-6.54,0c-1.79-1-1.78-2.76,0-3.79a7.18,7.18,0,0,1,6.54,0C146.37,533.79,146.36,535.48,144.54,536.54Zm-13.09,3.77a7.31,7.31,0,0,0-6.54,0c-1.82,1.06-1.81,2.76,0,3.8a7.27,7.27,0,0,0,6.55,0c1.79-1,1.83-2.75,0-3.8Zm-13.14,7.59a7.18,7.18,0,0,0-6.54,0c-1.82,1.05-1.8,2.75,0,3.79a7.18,7.18,0,0,0,6.54,0c1.82-1.05,1.83-2.74,0-3.79Zm-13.12,7.58a7.25,7.25,0,0,0-6.53,0c-1.82,1-1.81,2.76,0,3.8a7.27,7.27,0,0,0,6.55,0c1.79-1,1.8-2.73,0-3.78Zm-13.11,7.57a7.2,7.2,0,0,0-6.55,0c-1.82,1.05-1.81,2.75,0,3.79a7.18,7.18,0,0,0,6.54,0c1.82-1.05,1.83-2.74,0-3.79Zm-13.14,7.58a7.27,7.27,0,0,0-6.55,0c-1.79,1-1.78,2.74,0,3.78a7.17,7.17,0,0,0,6.52,0c1.81-1,1.83-2.74,0-3.79ZM65.83,578.2a7.27,7.27,0,0,0-6.55,0c-1.81,1-1.8,2.76,0,3.8a7.24,7.24,0,0,0,6.54,0c1.82-1.06,1.83-2.75,0-3.8Zm-13.14,7.58a7.24,7.24,0,0,0-6.54,0c-1.79,1-1.81,2.76,0,3.8a7.24,7.24,0,0,0,6.54,0c1.82-1.06,1.83-2.75,0-3.79Z" transform="translate(-44.8 -286.87)"/><path id="Trazado_2651" data-name="Trazado 2651" class="cls-20" d="M1074.26,366.3a7.16,7.16,0,0,0,6.53,0c1.8-1,1.78-2.75,0-3.79a7.27,7.27,0,0,0-6.55,0C1072.43,363.56,1072.43,365.25,1074.26,366.3Zm13.08,3.78a7.33,7.33,0,0,1,6.55,0c1.82,1.05,1.81,2.76,0,3.79a7.18,7.18,0,0,1-6.54,0c-1.8-1-1.84-2.74,0-3.79Zm13.14,7.58a7.27,7.27,0,0,1,6.55,0c1.81,1.06,1.8,2.76,0,3.8a7.18,7.18,0,0,1-6.54,0c-1.82-1.06-1.83-2.75,0-3.79Zm13.13,7.58a7.23,7.23,0,0,1,6.52,0c1.82,1,1.81,2.75,0,3.79a7.2,7.2,0,0,1-6.55,0c-1.79-1-1.81-2.73,0-3.77Zm13.11,7.57a7.27,7.27,0,0,1,6.55,0c1.81,1.06,1.8,2.76,0,3.79a7.12,7.12,0,0,1-6.54,0c-1.82-1.05-1.83-2.73,0-3.79Zm13.14,7.59a7.18,7.18,0,0,1,6.54,0c1.8,1,1.79,2.74,0,3.77a7.17,7.17,0,0,1-6.52,0c-1.82-1.05-1.83-2.74,0-3.79ZM1153,408a7.27,7.27,0,0,1,6.55,0c1.82,1,1.81,2.76,0,3.79a7.18,7.18,0,0,1-6.54,0c-1.82-1.05-1.83-2.74,0-3.79Zm13.14,7.58a7.27,7.27,0,0,1,6.55,0c1.79,1,1.81,2.76,0,3.8a7.24,7.24,0,0,1-6.54,0c-1.82-1.06-1.83-2.75,0-3.8Z" transform="translate(-44.8 -286.87)"/><path id="Trazado_2648" data-name="Trazado 2648" class="cls-21" d="M397,402.15a7.18,7.18,0,0,1-6.54,0c-1.79-1-1.8-2.74,0-3.79a7.2,7.2,0,0,1,6.52,0C398.79,399.43,398.78,401.12,397,402.15Zm-13.13,7.58a7.2,7.2,0,0,1-6.55,0c-1.78-1-1.8-2.74,0-3.79a7.24,7.24,0,0,1,6.54,0c1.81,1.06,1.8,2.75,0,3.8Zm-13.14,7.59a7.18,7.18,0,0,1-6.51,0c-1.79-1-1.8-2.74,0-3.78a7.2,7.2,0,0,1,6.55,0c1.8,1.05,1.8,2.74,0,3.79Zm-13.1,7.57a7.2,7.2,0,0,1-6.55,0c-1.79-1-1.8-2.74,0-3.79a7.2,7.2,0,0,1,6.55,0c1.81,1,1.79,2.74,0,3.79Zm-13.14,7.58a7.27,7.27,0,0,1-6.55,0c-1.78-1-1.77-2.76,0-3.79a7.2,7.2,0,0,1,6.55,0c1.81,1.05,1.8,2.74,0,3.79ZM331.36,440a7.18,7.18,0,0,1-6.54,0c-1.79-1-1.81-2.74,0-3.79a7.24,7.24,0,0,1,6.54,0c1.81,1.05,1.77,2.75,0,3.79Z" transform="translate(-44.8 -286.87)"/></g></svg>