<svg xmlns="http://www.w3.org/2000/svg" width="141.21px" height="37.16px" viewBox="0 0 245.93 336.17"><title>Recurso 10</title><g id="Capa_2" data-name="Capa 2"><g id="Capa_1-2" data-name="Capa 1"><path d="M123,166.64a3.33,3.33,0,0,0-3.33,3.32v6.86a24.3,24.3,0,0,0-12.89,5,18.86,18.86,0,0,0-6.86,14.76,15.78,15.78,0,0,0,7.8,13.83c4.33,2.66,9.39,4,14,5.82,7.6,2.77,17.67,5.84,17.77,13.62a11.66,11.66,0,0,1-4.57,9.46A18.85,18.85,0,0,1,123,243.14a20.37,20.37,0,0,1-17-9.56,3.34,3.34,0,0,0-4.68-1.56,3.51,3.51,0,0,0-.83,5,26.47,26.47,0,0,0,19.33,12.47c0,.12-.1.2-.1.32v6.65a3.33,3.33,0,0,0,6.65,0V249.8a1.47,1.47,0,0,0,0-.21,24.53,24.53,0,0,0,12.89-5.09A18.66,18.66,0,0,0,146,229.84a16,16,0,0,0-7.79-13.93c-4.34-2.66-9.4-4-14-5.82-7.55-2.77-17.67-5.83-17.77-13.51A11.87,11.87,0,0,1,111,187a18.83,18.83,0,0,1,12-3.74,20.29,20.29,0,0,1,17,9.46,3.35,3.35,0,0,0,4.68,1.56,3.5,3.5,0,0,0,.83-5,26.32,26.32,0,0,0-19.33-12.37c0-.11.1-.2.1-.31V170A3.32,3.32,0,0,0,123,166.64Z"/><path d="M123,336.17a123,123,0,1,1,123-123A123.1,123.1,0,0,1,123,336.17Zm0-236.33A113.37,113.37,0,1,0,236.33,213.21,113.5,113.5,0,0,0,123,99.84Z"/><path d="M123,293a79.76,79.76,0,1,1,79.75-79.75A79.85,79.85,0,0,1,123,293Zm0-149.91a70.16,70.16,0,1,0,70.15,70.16A70.23,70.23,0,0,0,123,143.05Z"/><path d="M52,125.81a4.8,4.8,0,0,1-4.8-4.8V75.79a75.79,75.79,0,0,1,151.58,0v40.84a4.81,4.81,0,0,1-9.61,0V75.79a66.19,66.19,0,1,0-132.37,0V121A4.8,4.8,0,0,1,52,125.81Z"/></g></g></svg>