<svg id="Capa_1" data-name="Capa 1" xmlns="http://www.w3.org/2000/svg" viewBox="0 0 286 280.7"><title>bandas-valor</title><path d="M73.19,288.59H23.43A16.46,16.46,0,0,1,7,272.15V26.08A16.45,16.45,0,0,1,23.43,9.65H73.19A16.46,16.46,0,0,1,89.63,26.08V272.15A16.47,16.47,0,0,1,73.19,288.59ZM23.43,20.24a5.85,5.85,0,0,0-5.84,5.84V272.15A5.85,5.85,0,0,0,23.43,278H73.19A5.85,5.85,0,0,0,79,272.15V26.08a5.85,5.85,0,0,0-5.84-5.84Z" transform="translate(-7 -9.65)"/><path d="M175.07,290.35H125.31a16.46,16.46,0,0,1-16.44-16.43V63.16a16.46,16.46,0,0,1,16.44-16.44h49.76A16.45,16.45,0,0,1,191.5,63.16V273.92A16.45,16.45,0,0,1,175.07,290.35Zm-49.76-233a5.86,5.86,0,0,0-5.84,5.85V273.92a5.85,5.85,0,0,0,5.84,5.84h49.76a5.85,5.85,0,0,0,5.84-5.84V63.16a5.86,5.86,0,0,0-5.84-5.85Z" transform="translate(-7 -9.65)"/><path d="M276.57,286.82H226.81a16.46,16.46,0,0,1-16.44-16.43V133.77a16.46,16.46,0,0,1,16.44-16.43h49.76A16.45,16.45,0,0,1,293,133.77V270.39A16.45,16.45,0,0,1,276.57,286.82ZM226.81,127.93a5.85,5.85,0,0,0-5.84,5.84V270.39a5.85,5.85,0,0,0,5.84,5.84h49.76a5.85,5.85,0,0,0,5.84-5.84V133.77a5.85,5.85,0,0,0-5.84-5.84Z" transform="translate(-7 -9.65)"/></svg>