<svg id="Capa_1" data-name="Capa 1" xmlns="http://www.w3.org/2000/svg" viewBox="0 0 289.03 294"><title>comparables-zona</title><path d="M106,145C94.87,132.42,80,125.5,64.22,125.5S33.56,132.42,22.43,145c-22.6,25.53-22.6,67.07,0,92.6l41.79,47.2L106,237.59C128.6,212.06,128.6,170.52,106,145Zm-7.34,86.1L64.22,270,29.77,231.09c-19.43-21.94-19.43-57.66,0-79.61C39,141.05,51.25,135.3,64.22,135.3s25.21,5.75,34.44,16.18C118.09,173.43,118.09,209.14,98.66,231.09Z" transform="translate(-5.48 -3)"/><path d="M241.86,123.08l31.67-35.7c17.05-19.21,17.05-50.45,0-69.66C265.11,8.23,253.86,3,241.86,3s-23.25,5.23-31.68,14.72c-17,19.21-17,50.45,0,69.66ZM217.51,24.23c6.54-7.37,15.19-11.43,24.35-11.43s17.8,4.06,24.34,11.43c13.86,15.62,13.86,41,0,56.65l-24.34,27.44L217.51,80.88C203.65,65.26,203.65,39.85,217.51,24.23Z" transform="translate(-5.48 -3)"/><path d="M260.76,270.13a4.91,4.91,0,0,0-5.86,3.71,17,17,0,0,1-3.24,6.82,4.9,4.9,0,1,0,7.7,6,26.92,26.92,0,0,0,5.1-10.72A4.9,4.9,0,0,0,260.76,270.13Z" transform="translate(-5.48 -3)"/><path d="M159.78,154.9a17,17,0,0,1-6.14-1.13,4.9,4.9,0,1,0-3.49,9.16,26.81,26.81,0,0,0,9.62,1.77h1.74a4.9,4.9,0,0,0,0-9.8Z" transform="translate(-5.48 -3)"/><path d="M148.14,123.91a4.9,4.9,0,0,0,2.59-.74,16.87,16.87,0,0,1,7.12-2.46,4.9,4.9,0,1,0-1.07-9.75,26.63,26.63,0,0,0-11.24,3.89,4.9,4.9,0,0,0,2.6,9.06Z" transform="translate(-5.48 -3)"/><path d="M91.51,287.2h-9.8a4.9,4.9,0,1,0,0,9.8h9.8a4.9,4.9,0,0,0,0-9.8Z" transform="translate(-5.48 -3)"/><path d="M179.37,199c-.43,0-.84,0-1.26,0a4.9,4.9,0,0,0,.2,9.79h.2l9.6,0a4.9,4.9,0,0,0,0-9.8Z" transform="translate(-5.48 -3)"/><path d="M176.92,120.6h9.8a4.9,4.9,0,1,0,0-9.8h-9.8a4.9,4.9,0,1,0,0,9.8Z" transform="translate(-5.48 -3)"/><path d="M237.11,199a4.9,4.9,0,0,0,0,9.8h9.8a4.9,4.9,0,0,0,0-9.8Z" transform="translate(-5.48 -3)"/><path d="M254.62,159.8a4.9,4.9,0,0,0-4.9-4.9h-9.8a4.9,4.9,0,1,0,0,9.8h9.8A4.9,4.9,0,0,0,254.62,159.8Z" transform="translate(-5.48 -3)"/><path d="M207.71,208.8h9.8a4.9,4.9,0,0,0,0-9.8h-9.8a4.9,4.9,0,0,0,0,9.8Z" transform="translate(-5.48 -3)"/><path d="M216.12,120.6a4.9,4.9,0,1,0,0-9.8h-9.8a4.9,4.9,0,0,0,0,9.8Z" transform="translate(-5.48 -3)"/><path d="M181.12,154.9a4.9,4.9,0,0,0,0,9.8h9.8a4.9,4.9,0,0,0,0-9.8Z" transform="translate(-5.48 -3)"/><path d="M225.22,159.8a4.9,4.9,0,0,0-4.9-4.9h-9.8a4.9,4.9,0,0,0,0,9.8h9.8A4.9,4.9,0,0,0,225.22,159.8Z" transform="translate(-5.48 -3)"/><path d="M294.19,177.6a4.9,4.9,0,1,0-9.68,1.55,15.8,15.8,0,0,1,.21,2.7,17.24,17.24,0,0,1-.7,4.85,4.9,4.9,0,0,0,3.33,6.08,5,5,0,0,0,1.37.19,4.9,4.9,0,0,0,4.71-3.52,27,27,0,0,0,1.09-7.56A26,26,0,0,0,294.19,177.6Z" transform="translate(-5.48 -3)"/><path d="M209.11,287.2h-9.8a4.9,4.9,0,0,0,0,9.8h9.8a4.9,4.9,0,0,0,0-9.8Z" transform="translate(-5.48 -3)"/><path d="M179.71,287.2h-9.8a4.9,4.9,0,0,0,0,9.8h9.8a4.9,4.9,0,0,0,0-9.8Z" transform="translate(-5.48 -3)"/><path d="M233.62,248a4.9,4.9,0,0,0-4.9-4.9h-9.8a4.9,4.9,0,1,0,0,9.8h9.8A4.9,4.9,0,0,0,233.62,248Z" transform="translate(-5.48 -3)"/><path d="M204.22,248a4.9,4.9,0,0,0-4.9-4.9h-9.8a4.9,4.9,0,1,0,0,9.8h9.8A4.9,4.9,0,0,0,204.22,248Z" transform="translate(-5.48 -3)"/><path d="M238.17,287.2h-9.46a4.9,4.9,0,0,0,0,9.8h9.66l.14-4.9V297a4.76,4.76,0,0,0,4.73-4.9A5,5,0,0,0,238.17,287.2Z" transform="translate(-5.48 -3)"/><path d="M255.5,261.32a4.83,4.83,0,0,0,3-1.05,4.89,4.89,0,0,0,.83-6.88,27.25,27.25,0,0,0-9.21-7.48,4.9,4.9,0,1,0-4.36,8.77,17.38,17.38,0,0,1,5.86,4.78A4.92,4.92,0,0,0,255.5,261.32Z" transform="translate(-5.48 -3)"/><path d="M274.19,197.67a17.05,17.05,0,0,1-6.62,1.33h-1.06a4.9,4.9,0,1,0,0,9.8h1.06A26.88,26.88,0,0,0,278,206.71a4.9,4.9,0,0,0-3.79-9Z" transform="translate(-5.48 -3)"/><path d="M140.34,149.29a4.92,4.92,0,0,0,3.13-6.19,16.94,16.94,0,0,1-.85-5.33,17.8,17.8,0,0,1,.13-2.2,4.9,4.9,0,0,0-9.72-1.23,27.4,27.4,0,0,0,1.12,11.82,4.9,4.9,0,0,0,4.66,3.37A4.75,4.75,0,0,0,140.34,149.29Z" transform="translate(-5.48 -3)"/><path d="M120.91,287.2h-9.8a4.9,4.9,0,0,0,0,9.8h9.8a4.9,4.9,0,0,0,0-9.8Z" transform="translate(-5.48 -3)"/><path d="M170.2,250.91a4.9,4.9,0,0,0,2-9.35,17.45,17.45,0,0,1-6-4.59,4.9,4.9,0,1,0-7.5,6.31,27.09,27.09,0,0,0,9.44,7.18A5,5,0,0,0,170.2,250.91Z" transform="translate(-5.48 -3)"/><path d="M281.06,158.52A26.7,26.7,0,0,0,269.7,155a4.9,4.9,0,1,0-.76,9.77,16.81,16.81,0,0,1,7.2,2.24,4.9,4.9,0,1,0,4.92-8.47Z" transform="translate(-5.48 -3)"/><path d="M150.31,287.2h-9.8a4.9,4.9,0,1,0,0,9.8h9.8a4.9,4.9,0,0,0,0-9.8Z" transform="translate(-5.48 -3)"/><path d="M162.52,222.71a16.92,16.92,0,0,1,3-6.92,4.9,4.9,0,1,0-7.89-5.81,26.83,26.83,0,0,0-4.77,10.89,4.9,4.9,0,0,0,9.63,1.84Z" transform="translate(-5.48 -3)"/><path d="M243.07,76.5a27,27,0,1,0-26.95-26.95A27,27,0,0,0,243.07,76.5Zm0-44.1a17.15,17.15,0,1,1-17.15,17.15A17.17,17.17,0,0,1,243.07,32.4Z" transform="translate(-5.48 -3)"/><path d="M64.22,154.9a29.4,29.4,0,1,0,29.4,29.4A29.43,29.43,0,0,0,64.22,154.9Zm0,49a19.6,19.6,0,1,1,19.6-19.6A19.62,19.62,0,0,1,64.22,203.9Z" transform="translate(-5.48 -3)"/></svg>