<?xml version="1.0" encoding="utf-8"?>
<!-- Generator: Adobe Illustrator 23.0.3, SVG Export Plug-In . SVG Version: 6.00 Build 0)  -->
<svg version="1.1" id="Capa_1" xmlns="http://www.w3.org/2000/svg" xmlns:xlink="http://www.w3.org/1999/xlink" x="0px" y="0px"
	 viewBox="0 0 289 294" style="enable-background:new 0 0 289 294;" xml:space="preserve">
<style type="text/css">
	.st0{fill:#3B536D;}
</style>
<title>comparables-zona</title>
<path class="st0" d="M100.5,142c-11.1-12.6-26-19.5-41.8-19.5S28.1,129.4,17,142c-22.6,25.5-22.6,67.1,0,92.6l41.8,47.2l41.8-47.2
	C123.1,209.1,123.1,167.5,100.5,142z M93.2,228.1L58.7,267l-34.5-38.9c-19.4-21.9-19.4-57.7,0-79.6c9.2-10.4,21.5-16.2,34.5-16.2
	s25.2,5.8,34.4,16.2C112.6,170.4,112.6,206.1,93.2,228.1L93.2,228.1z"/>
<path class="st0" d="M236.4,120.1L268,84.4c17-19.2,17-50.5,0-69.7C259.6,5.2,248.4,0,236.4,0s-23.2,5.2-31.7,14.7
	c-17,19.2-17,50.4,0,69.7L236.4,120.1z M212,21.2c6.5-7.4,15.2-11.4,24.4-11.4s17.8,4.1,24.3,11.4c13.9,15.6,13.9,41,0,56.7
	l-24.3,27.4L212,77.9C198.2,62.3,198.2,36.8,212,21.2z"/>
<path class="st0" d="M255.3,267.1c-2.6-0.6-5.3,1.1-5.9,3.7c-0.6,2.5-1.7,4.8-3.2,6.8c-1.8,2-1.7,5.1,0.2,6.9c2,1.8,5.1,1.7,6.9-0.2
	c0.2-0.2,0.4-0.4,0.5-0.7c2.5-3.1,4.2-6.8,5.1-10.7C259.5,270.3,257.9,267.7,255.3,267.1z"/>
<path class="st0" d="M154.3,151.9c-2.1,0-4.2-0.4-6.1-1.1c-2.5-1-5.4,0.3-6.3,2.8c-1,2.5,0.3,5.4,2.8,6.3c3.1,1.2,6.3,1.8,9.6,1.8
	h1.7c2.7,0,4.9-2.2,4.9-4.9c0-2.7-2.2-4.9-4.9-4.9H154.3z"/>
<path class="st0" d="M142.7,120.9c0.9,0,1.8-0.3,2.6-0.7c2.2-1.3,4.6-2.2,7.1-2.5c2.7-0.3,4.6-2.7,4.3-5.4s-2.7-4.6-5.4-4.3l0,0
	c-4,0.4-7.8,1.8-11.2,3.9c-2.3,1.4-3,4.5-1.6,6.7C139.4,120,141,120.9,142.7,120.9L142.7,120.9z"/>
<path class="st0" d="M86,284.2h-9.8c-2.7,0-4.9,2.2-4.9,4.9c0,2.7,2.2,4.9,4.9,4.9c0,0,0,0,0,0H86c2.7,0,4.9-2.2,4.9-4.9
	C90.9,286.4,88.7,284.2,86,284.2z"/>
<path class="st0" d="M173.9,196c-0.4,0-0.8,0-1.3,0c-2.7,0.2-4.8,2.5-4.6,5.2c0.2,2.5,2.2,4.6,4.8,4.6h0.2h9.6
	c2.7,0,4.9-2.2,4.9-4.9c0-2.7-2.2-4.9-4.9-4.9L173.9,196z"/>
<path class="st0" d="M171.4,117.6h9.8c2.7,0,4.9-2.2,4.9-4.9s-2.2-4.9-4.9-4.9h-9.8c-2.7,0-4.9,2.2-4.9,4.9S168.7,117.6,171.4,117.6
	z"/>
<path class="st0" d="M231.6,196c-2.7,0-4.9,2.2-4.9,4.9c0,2.7,2.2,4.9,4.9,4.9h9.8c2.7,0,4.9-2.2,4.9-4.9c0-2.7-2.2-4.9-4.9-4.9
	H231.6z"/>
<path class="st0" d="M249.1,156.8c0-2.7-2.2-4.9-4.9-4.9h-9.8c-2.7,0-4.9,2.2-4.9,4.9c0,2.7,2.2,4.9,4.9,4.9h9.8
	C246.9,161.7,249.1,159.5,249.1,156.8L249.1,156.8z"/>
<path class="st0" d="M202.2,205.8h9.8c2.7,0,4.9-2.2,4.9-4.9c0-2.7-2.2-4.9-4.9-4.9l0,0h-9.8c-2.7,0-4.9,2.2-4.9,4.9
	C197.3,203.6,199.5,205.8,202.2,205.8z"/>
<path class="st0" d="M210.6,117.6c2.7,0,4.9-2.2,4.9-4.9s-2.2-4.9-4.9-4.9h-9.8c-2.7,0-4.9,2.2-4.9,4.9s2.2,4.9,4.9,4.9H210.6z"/>
<path class="st0" d="M175.6,151.9c-2.7,0-4.9,2.2-4.9,4.9c0,2.7,2.2,4.9,4.9,4.9h9.8c2.7,0,4.9-2.2,4.9-4.9c0-2.7-2.2-4.9-4.9-4.9
	l0,0H175.6z"/>
<path class="st0" d="M219.7,156.8c0-2.7-2.2-4.9-4.9-4.9H205c-2.7,0-4.9,2.2-4.9,4.9c0,2.7,2.2,4.9,4.9,4.9h9.8
	C217.5,161.7,219.7,159.5,219.7,156.8L219.7,156.8z"/>
<path class="st0" d="M288.7,174.6c-0.4-2.7-2.9-4.5-5.6-4.1c-2.7,0.4-4.5,2.9-4.1,5.6l0,0c0.1,0.9,0.2,1.8,0.2,2.7
	c0,1.6-0.2,3.3-0.7,4.9c-0.8,2.6,0.7,5.3,3.3,6.1c0,0,0,0,0,0c0.4,0.1,0.9,0.2,1.4,0.2c2.2,0,4.1-1.4,4.7-3.5c0.7-2.5,1.1-5,1.1-7.6
	C289,177.5,288.9,176,288.7,174.6z"/>
<path class="st0" d="M203.6,284.2h-9.8c-2.7,0-4.9,2.2-4.9,4.9c0,2.7,2.2,4.9,4.9,4.9h9.8c2.7,0,4.9-2.2,4.9-4.9
	C208.5,286.4,206.3,284.2,203.6,284.2z"/>
<path class="st0" d="M174.2,284.2h-9.8c-2.7,0-4.9,2.2-4.9,4.9c0,2.7,2.2,4.9,4.9,4.9h9.8c2.7,0,4.9-2.2,4.9-4.9
	C179.1,286.4,176.9,284.2,174.2,284.2z"/>
<path class="st0" d="M228.1,245c0-2.7-2.2-4.9-4.9-4.9h-9.8c-2.7,0-4.9,2.2-4.9,4.9c0,2.7,2.2,4.9,4.9,4.9h9.8
	C225.9,249.9,228.1,247.7,228.1,245L228.1,245z"/>
<path class="st0" d="M198.7,245c0-2.7-2.2-4.9-4.9-4.9H184c-2.7,0-4.9,2.2-4.9,4.9c0,2.7,2.2,4.9,4.9,4.9h9.8
	C196.5,249.9,198.7,247.7,198.7,245L198.7,245z"/>
<path class="st0" d="M232.7,284.2h-9.5c-2.7,0-4.9,2.2-4.9,4.9c0,2.7,2.2,4.9,4.9,4.9h9.7l0.1-4.9v4.9c2.6,0,4.7-2.2,4.7-4.8
	c0,0,0-0.1,0-0.1C237.7,286.4,235.4,284.2,232.7,284.2z"/>
<path class="st0" d="M250,258.3c1.1,0,2.1-0.4,3-1c2.1-1.7,2.5-4.7,0.8-6.9c0,0,0,0,0,0c-2.5-3.1-5.6-5.7-9.2-7.5
	c-2.4-1.3-5.4-0.4-6.6,2c-1.3,2.4-0.4,5.4,2,6.6c0.1,0.1,0.2,0.1,0.3,0.2c2.3,1.1,4.3,2.8,5.9,4.8
	C247.1,257.6,248.5,258.3,250,258.3z"/>
<path class="st0" d="M268.7,194.7c-2.1,0.9-4.3,1.3-6.6,1.3H261c-2.7,0-4.9,2.2-4.9,4.9c0,2.7,2.2,4.9,4.9,4.9h1.1
	c3.6,0,7.1-0.7,10.4-2.1c2.4-1.3,3.3-4.2,2.1-6.6C273.5,195,271,194,268.7,194.7L268.7,194.7z"/>
<path class="st0" d="M134.9,146.3c2.6-0.9,4-3.6,3.1-6.2c-0.6-1.7-0.9-3.5-0.9-5.3c0-0.7,0-1.5,0.1-2.2c0.3-2.7-1.7-5.1-4.4-5.4
	c-2.6-0.3-5,1.6-5.4,4.1c-0.5,4-0.1,8,1.1,11.8c0.7,2,2.5,3.4,4.7,3.4C133.8,146.5,134.4,146.5,134.9,146.3z"/>
<path class="st0" d="M115.4,284.2h-9.8c-2.7,0-4.9,2.2-4.9,4.9c0,2.7,2.2,4.9,4.9,4.9h9.8c2.7,0,4.9-2.2,4.9-4.9
	C120.3,286.4,118.1,284.2,115.4,284.2z"/>
<path class="st0" d="M164.7,247.9c2.7,0,4.9-2.2,4.8-5c0-1.9-1.1-3.6-2.8-4.4c-2.3-1.1-4.4-2.6-6-4.6c-1.7-2.1-4.8-2.3-6.9-0.6
	c-2.1,1.7-2.3,4.8-0.6,6.9c2.6,3.1,5.8,5.5,9.4,7.2C163.3,247.8,164,247.9,164.7,247.9z"/>
<path class="st0" d="M275.6,155.5c-3.5-2-7.4-3.2-11.4-3.5c-2.7-0.2-5.1,1.8-5.3,4.5c-0.2,2.7,1.8,5.1,4.5,5.3c0,0,0.1,0,0.1,0
	c2.5,0.2,5,1,7.2,2.2c2.3,1.4,5.3,0.7,6.8-1.6c1.4-2.3,0.7-5.3-1.6-6.8C275.8,155.6,275.7,155.6,275.6,155.5L275.6,155.5z"/>
<path class="st0" d="M144.8,284.2H135c-2.7,0-4.9,2.2-4.9,4.9c0,2.7,2.2,4.9,4.9,4.9c0,0,0,0,0,0h9.8c2.7,0,4.9-2.2,4.9-4.9
	C149.7,286.4,147.5,284.2,144.8,284.2z"/>
<path class="st0" d="M157,219.7c0.5-2.5,1.5-4.9,3-6.9c1.6-2.1,1.2-5.2-0.9-6.9c-2.1-1.6-5.2-1.2-6.9,0.9c0,0-0.1,0.1-0.1,0.1
	c-2.4,3.2-4,6.9-4.8,10.9c-0.5,2.7,1.2,5.2,3.9,5.7S156.5,222.4,157,219.7L157,219.7L157,219.7z"/>
<path class="st0" d="M237.6,73.5c14.9,0,27-12,27-26.9c0-14.9-12-27-26.9-27c-14.9,0-27,12-27,26.9c0,0,0,0.1,0,0.1
	C210.7,61.4,222.7,73.5,237.6,73.5z M237.6,29.4c9.5,0,17.1,7.7,17.1,17.1s-7.7,17.2-17.1,17.2c-9.5,0-17.2-7.7-17.2-17.1v0
	C220.5,37.1,228.1,29.4,237.6,29.4z"/>
<path class="st0" d="M58.7,151.9c-16.2,0-29.4,13.2-29.4,29.4s13.2,29.4,29.4,29.4s29.4-13.2,29.4-29.4l0,0
	C88.1,165.1,75,151.9,58.7,151.9z M58.7,200.9c-10.8,0-19.6-8.8-19.6-19.6c0-10.8,8.8-19.6,19.6-19.6c10.8,0,19.6,8.8,19.6,19.6
	C78.3,192.1,69.6,200.9,58.7,200.9z"/>
</svg>
