<?xml version="1.0" encoding="utf-8"?>
<!-- Generator: Adobe Illustrator 23.0.3, SVG Export Plug-In . SVG Version: 6.00 Build 0)  -->
<svg version="1.1" id="Capa_1" xmlns="http://www.w3.org/2000/svg" xmlns:xlink="http://www.w3.org/1999/xlink" x="0px" y="0px"
	 viewBox="0 0 246.7 296" style="enable-background:new 0 0 246.7 296;" xml:space="preserve">
<style type="text/css">
	.st0{fill:#3B536D;}
</style>
<title>precio-historico</title>
<circle class="st0" cx="123.3" cy="128.3" r="4.9"/>
<circle class="st0" cx="138.1" cy="118.4" r="4.9"/>
<circle class="st0" cx="108.5" cy="118.4" r="4.9"/>
<circle class="st0" cx="93.7" cy="108.5" r="4.9"/>
<circle class="st0" cx="152.9" cy="108.5" r="4.9"/>
<circle class="st0" cx="167.7" cy="98.7" r="4.9"/>
<circle class="st0" cx="78.9" cy="98.7" r="4.9"/>
<circle class="st0" cx="123.3" cy="108.5" r="4.9"/>
<circle class="st0" cx="123.3" cy="167.7" r="4.9"/>
<circle class="st0" cx="123.3" cy="182.5" r="4.9"/>
<circle class="st0" cx="123.3" cy="197.3" r="4.9"/>
<circle class="st0" cx="123.3" cy="212.1" r="4.9"/>
<circle class="st0" cx="123.3" cy="226.9" r="4.9"/>
<circle class="st0" cx="123.3" cy="241.7" r="4.9"/>
<path class="st0" d="M241.7,286.1h-14.8v-19.7h-24.7V216c0-13.3-6.6-25.7-17.7-33.1L132.2,148l52.3-34.9
	c11.1-7.4,17.7-19.8,17.7-33.1V29.6h24.7V9.9h14.8c2.7-0.1,4.8-2.4,4.7-5.2c-0.1-2.6-2.2-4.6-4.7-4.7H4.9C2.2,0.1,0.1,2.4,0.2,5.2
	c0.1,2.6,2.2,4.6,4.7,4.7h14.8v19.7h24.7V80c0,13.3,6.6,25.7,17.7,33.1l52.3,34.9l-52.3,34.9C51,190.3,44.4,202.7,44.4,216v50.4
	H19.7v19.7H4.9c-2.7,0.1-4.8,2.4-4.7,5.2c0.1,2.6,2.2,4.6,4.7,4.7h236.8c2.7-0.1,4.8-2.4,4.7-5.2
	C246.3,288.3,244.3,286.2,241.7,286.1z M29.6,19.7V9.9h187.5v9.9H29.6z M67.6,104.9C59.3,99.4,54.2,90,54.3,80V29.6h138.1V80
	c0,10-5,19.3-13.3,24.9l-55.8,37.2L67.6,104.9z M54.3,216c0-10,5-19.4,13.3-24.9l55.8-37.2l55.8,37.2c8.3,5.5,13.3,14.9,13.3,24.9
	v50.4H54.3V216z M29.6,276.3h187.5v9.9H29.6V276.3z"/>
</svg>
