<?xml version="1.0" encoding="utf-8"?>
<!-- Generator: Adobe Illustrator 23.0.3, SVG Export Plug-In . SVG Version: 6.00 Build 0)  -->
<svg version="1.1" id="Capa_1" xmlns="http://www.w3.org/2000/svg" xmlns:xlink="http://www.w3.org/1999/xlink" x="0px" y="0px"
	 viewBox="0 0 294.8 284" style="enable-background:new 0 0 294.8 284;" xml:space="preserve">
<style type="text/css">
	.st0{fill:#3B536D;}
</style>
<title>puntaje-desarrollo</title>
<path class="st0" d="M276.9,117.9h-58.4c-3,0-5.4,2.4-5.4,5.4s2.4,5.4,5.4,5.4l0,0h48.8l15.5,144.6H12.1l18.2-144.6h48.9
	c3,0,5.4-2.4,5.4-5.4s-2.4-5.4-5.4-5.4H20.9L0,284h294.7L276.9,117.9z"/>
<path class="st0" d="M142.8,203.4c-0.8,0.5-1.6,0.9-2.4,1.4c-1.2,0.8-2.3,1.6-3.5,2.4c-2.3,1.8-2.8,5.2-1,7.5c1.7,2.3,5,2.8,7.3,1.1
	c1-0.7,1.9-1.4,2.9-2c1.8-1.1,3.6-2.2,5.4-3.1c2.5-1.3,3.6-4.2,2.5-6.8l0.1-0.1c9.7-10.3,42.3-48.7,55.9-112.8
	c2.7-12.2,3.3-24.7,1.8-37.1C207.4,18.6,185.5,0,148.7,0S90,18.6,85.4,53.8c-1.5,12.4-0.9,24.9,1.8,37.1
	C100.6,154.4,132.8,192.7,142.8,203.4z M96,55.2c3.9-30,21.2-44.5,52.7-44.5s48.7,14.6,52.7,44.5c1.3,11.2,0.8,22.5-1.7,33.5
	c-12.2,57.6-41.1,94.2-51,105.2c-9.8-11.1-38.8-47.7-51-105.2C95.2,77.7,94.7,66.4,96,55.2z"/>
<path class="st0" d="M148.7,101.4c21.7,0,39.4-17.6,39.4-39.3c0-21.7-17.6-39.4-39.3-39.4c-21.7,0-39.4,17.6-39.4,39.3c0,0,0,0,0,0
	C109.4,83.7,127,101.3,148.7,101.4z M148.7,33.4c15.8,0,28.6,12.8,28.6,28.6c0,15.8-12.8,28.6-28.6,28.6S120,77.8,120,62
	c0,0,0,0,0,0C120.1,46.2,132.9,33.4,148.7,33.4L148.7,33.4z"/>
<path class="st0" d="M168.4,193.8c-2.9,0.6-4.8,3.4-4.2,6.3c0.5,2.5,2.7,4.3,5.3,4.3c0.4,0,0.8,0,1.1-0.1c3.1-0.7,6.5-1.2,10.1-1.7
	c2.9-0.3,5.1-2.9,4.8-5.8c-0.3-2.9-2.9-5.1-5.8-4.8c-0.1,0-0.2,0-0.4,0C175.5,192.4,171.8,193,168.4,193.8z"/>
<path class="st0" d="M196.1,195.9c0.1,2.9,2.5,5.1,5.4,5.1h0.2l10.7-0.4c3-0.1,5.2-2.6,5.1-5.6c0,0,0,0,0,0
	c-0.2-2.9-2.7-5.2-5.6-5.1l-10.7,0.4C198.2,190.5,195.9,193,196.1,195.9z"/>
<path class="st0" d="M120.2,220.6c-2.8,2.1-5.6,4.1-8.5,5.9c-2.5,1.6-3.2,4.9-1.6,7.4s4.9,3.2,7.4,1.6l0,0c3.1-2,6.1-4.1,9.1-6.4
	c2.3-1.8,2.7-5.2,0.9-7.5C125.8,219.4,122.5,218.9,120.2,220.6L120.2,220.6z"/>
<path class="st0" d="M239.6,185.3c-2.2,1.4-4.6,2.4-7.2,2.8c-2.9,0.6-4.8,3.4-4.2,6.3c0.5,2.5,2.7,4.3,5.2,4.3c0.4,0,0.7,0,1.1-0.1
	c4-0.7,7.8-2.3,11.2-4.6l0.7-0.5c2.4-1.8,2.8-5.1,1-7.5s-5.1-2.8-7.5-1l0,0L239.6,185.3z"/>
<path class="st0" d="M47.5,227.1c0.8-2.9-0.9-5.8-3.8-6.6c-2.9-0.8-5.8,0.9-6.6,3.8c-0.7,2.5-1.1,5-1.2,7.5c0,0.6,0,1.2,0,1.9
	c0,1,0.1,2.1,0.2,3.1c0.3,2.7,2.6,4.8,5.3,4.8h0.5c2.9-0.3,5.1-2.9,4.8-5.9c-0.1-0.7-0.1-1.4-0.1-2.1c0-0.4,0-0.9,0-1.3
	C46.7,230.7,47,228.9,47.5,227.1z"/>
<path class="st0" d="M239.5,143.6c-4.3-0.5-8.6-0.2-12.8,1c-2.8,0.8-4.5,3.8-3.7,6.6c0.7,2.3,2.7,3.9,5.1,3.9c0.5,0,1-0.1,1.5-0.2
	c2.7-0.8,5.6-1,8.4-0.7c2.9,0.5,5.7-1.5,6.1-4.5s-1.5-5.7-4.5-6.1C239.6,143.7,239.5,143.7,239.5,143.6L239.5,143.6z"/>
<path class="st0" d="M250.1,170.2c-0.9,2.8,0.7,5.8,3.5,6.7c2.8,0.9,5.8-0.7,6.7-3.5c0.5-1.7,0.9-3.4,1-5.2c0-0.4,0-0.9,0-1.3
	c0-2.5-0.5-5.1-1.4-7.4c-0.8-2.8-3.8-4.5-6.6-3.7s-4.5,3.8-3.7,6.6c0.1,0.3,0.2,0.5,0.3,0.8c0.4,1.2,0.7,2.5,0.7,3.7v0.6
	C250.6,168.4,250.4,169.3,250.1,170.2z"/>
<path class="st0" d="M93.7,236.6c-3.1,1.5-6.3,2.8-9.5,4.1c-2.8,1.1-4.1,4.2-3,7c0.8,2,2.8,3.4,4.9,3.4c0.7,0,1.3-0.1,1.9-0.4
	c3.4-1.3,6.8-2.8,10.2-4.4c2.7-1.3,3.8-4.4,2.6-7.1S96.3,235.3,93.7,236.6L93.7,236.6L93.7,236.6z"/>
<path class="st0" d="M54.6,214.3c0.9,0,1.8-0.2,2.6-0.6c1.5-0.8,3.2-1.4,4.9-1.6c0.7-0.1,1.4-0.1,2.2,0c2.9,0.3,5.6-1.9,5.9-4.8
	c0.3-2.8-1.7-5.3-4.4-5.8c-1.6-0.2-3.2-0.2-4.8,0c-3.1,0.3-6.1,1.3-8.8,2.8c-2.6,1.4-3.5,4.7-2.1,7.3
	C50.9,213.3,52.7,214.3,54.6,214.3L54.6,214.3z"/>
<path class="st0" d="M53.5,256.3c1.2,0.3,2.3,0.5,3.5,0.7c1.4,0.2,2.7,0.3,4.1,0.2c1.7,0,3.3-0.1,5-0.3c2.9-0.3,5.1-2.9,4.8-5.8
	c-0.3-2.9-2.9-5.1-5.8-4.8c-0.1,0-0.2,0-0.4,0c-2.2,0.3-4.3,0.3-6.5,0.1c-0.7-0.1-1.4-0.2-2.1-0.4c-2.8-0.8-5.8,0.8-6.6,3.7
	c-0.8,2.8,0.8,5.8,3.7,6.6C53.3,256.3,53.4,256.3,53.5,256.3L53.5,256.3z"/>
</svg>
