<?xml version="1.0" encoding="utf-8"?>
<!-- Generator: Adobe Illustrator 23.0.3, SVG Export Plug-In . SVG Version: 6.00 Build 0)  -->
<svg version="1.1" id="Capa_1" xmlns="http://www.w3.org/2000/svg" xmlns:xlink="http://www.w3.org/1999/xlink" x="0px" y="0px"
	 viewBox="0 0 294.4 276" style="enable-background:new 0 0 294.4 276;" xml:space="preserve">
<style type="text/css">
	.st0{fill:#3B536D;}
</style>
<title>riesgo</title>
<path class="st0" d="M187.4,138c-3.2,0-5.8,2.6-5.8,5.8s2.6,5.8,5.8,5.8s5.8-2.6,5.8-5.8l0,0C193.2,140.6,190.6,138,187.4,138z"/>
<path class="st0" d="M239.2,230h-6.9l-18.7-104.9C210.1,105.9,193.5,92,174,92h-53.6c-19.5,0-36.1,13.9-39.6,33.1L62.1,230h-6.9
	c-9.5,0-17.2,7.7-17.2,17.2v23c0,3.2,2.6,5.7,5.7,5.8c0,0,0,0,0,0h207c3.2,0,5.7-2.6,5.8-5.7c0,0,0,0,0,0v-23
	C256.4,237.7,248.7,230,239.2,230z M92.1,127.1c2.5-13.7,14.4-23.6,28.3-23.6H174c13.9,0,25.8,9.9,28.3,23.6L220.6,230H73.8
	L92.1,127.1z M244.9,264.5H49.5v-17.2c0-3.2,2.6-5.7,5.8-5.8h184c3.2,0,5.7,2.6,5.8,5.8V264.5z"/>
<path class="st0" d="M206,211.7l-8.4-46.4c-0.6-3.1-3.6-5.2-6.7-4.6c-3.1,0.6-5.2,3.6-4.6,6.7l0,0l8.4,46.4c0.6,3.1,3.6,5.2,6.7,4.6
	S206.5,214.8,206,211.7L206,211.7z"/>
<path class="st0" d="M288.7,138h-49.5c-3.2,0-5.8,2.6-5.8,5.8s2.6,5.8,5.8,5.8l0,0h49.5c3.2,0,5.8-2.6,5.8-5.8
	C294.4,140.6,291.8,138,288.7,138z"/>
<path class="st0" d="M55.2,138H5.8c-3.2,0-5.8,2.6-5.8,5.8s2.6,5.8,5.8,5.8h49.5c3.2,0,5.8-2.6,5.8-5.8S58.4,138,55.2,138z"/>
<path class="st0" d="M248.8,42.1c-2.2-2.2-5.9-2.2-8.1,0l-32.5,32.5c-2.2,2.3-2.1,5.9,0.2,8.1c2.2,2.1,5.7,2.1,8,0l32.5-32.5
	C251.1,48,251.1,44.4,248.8,42.1C248.9,42.1,248.9,42.1,248.8,42.1z"/>
<path class="st0" d="M86.2,74.6L53.7,42.1c-2.3-2.2-5.9-2.1-8.1,0.2c-2.1,2.2-2.1,5.7,0,8l32.5,32.5c2.3,2.2,6,2,8.1-0.3
	C88.2,80.2,88.2,76.8,86.2,74.6z"/>
<path class="st0" d="M147.2,0c-3.2,0-5.7,2.6-5.8,5.7c0,0,0,0,0,0v46c0,3.2,2.6,5.8,5.8,5.8s5.8-2.6,5.8-5.8v-46
	C153,2.6,150.4,0,147.2,0C147.2,0,147.2,0,147.2,0z"/>
</svg>
