<svg id="Capa_1" data-name="Capa 1" xmlns="http://www.w3.org/2000/svg" viewBox="0 0 294.4 276"><title>riesgo</title><path d="M190.25,150a5.75,5.75,0,1,0,5.75,5.75A5.76,5.76,0,0,0,190.25,150Z" transform="translate(-2.8 -12)"/><path d="M242,242h-6.87L216.41,137.05A40.23,40.23,0,0,0,176.81,104H123.19a40.23,40.23,0,0,0-39.6,33.07L64.87,242H58a17.27,17.27,0,0,0-17.25,17.25v23A5.74,5.74,0,0,0,46.5,288h207a5.74,5.74,0,0,0,5.75-5.75v-23A17.27,17.27,0,0,0,242,242ZM94.91,139.11a28.73,28.73,0,0,1,28.28-23.61h53.62a28.73,28.73,0,0,1,28.28,23.59L223.45,242H76.55ZM247.75,276.5H52.25V259.25A5.76,5.76,0,0,1,58,253.5H242a5.76,5.76,0,0,1,5.75,5.75Z" transform="translate(-2.8 -12)"/><path d="M208.79,223.72l-8.44-46.43A5.75,5.75,0,1,0,189,179.35l8.43,46.43a5.75,5.75,0,0,0,11.32-2.06Z" transform="translate(-2.8 -12)"/><path d="M291.45,150H242a5.75,5.75,0,0,0,0,11.5h49.45a5.75,5.75,0,0,0,0-11.5Z" transform="translate(-2.8 -12)"/><path d="M58,150H8.55a5.75,5.75,0,0,0,0,11.5H58A5.75,5.75,0,0,0,58,150Z" transform="translate(-2.8 -12)"/><path d="M251.65,54.1a5.76,5.76,0,0,0-8.13,0L211,86.63a5.75,5.75,0,0,0,8.13,8.13l32.53-32.53A5.74,5.74,0,0,0,251.65,54.1Z" transform="translate(-2.8 -12)"/><path d="M89,86.63,56.48,54.1a5.75,5.75,0,0,0-8.13,8.13L80.88,94.76A5.75,5.75,0,0,0,89,86.63Z" transform="translate(-2.8 -12)"/><path d="M150,12a5.74,5.74,0,0,0-5.75,5.75v46a5.75,5.75,0,0,0,11.5,0v-46A5.74,5.74,0,0,0,150,12Z" transform="translate(-2.8 -12)"/></svg>