<svg id="Capa_1" data-name="Capa 1" xmlns="http://www.w3.org/2000/svg" viewBox="0 0 300 300"><title>valor-comercial</title><path d="M149-2C66.35-2-1,65.35-1,148S66.35,298,149,298s150-67.35,150-150S231.65-2,149-2Zm0,32.14A117.86,117.86,0,1,1,31.14,148,117.62,117.62,0,0,1,149,30.14Zm0,32.15a16.06,16.06,0,0,0-16.07,16.07V80.7a47.26,47.26,0,0,0-16.58,8.54,41.69,41.69,0,0,0-15.06,32c0,13.84,8.84,26,17.74,31.48s17.48,7.5,24.28,10.21c8.82,3.51,16.13,5.95,19.25,7.87,6.42,9.78-6.25,14.64-13.39,14.73a22.38,22.38,0,0,1-18.25-10c-3.77-8.11-15-11.63-22.6-7s-10,16.25-4.69,23.44a53.09,53.09,0,0,0,29.3,23.1v2.68a16.07,16.07,0,1,0,32.14,0v-2.17a47.28,47.28,0,0,0,16.74-8.71,41.7,41.7,0,0,0,15.07-32c0-13.84-8.84-26-17.75-31.48s-17.48-7.67-24.27-10.38c-8.82-3.51-16.13-5.78-19.25-7.7-6.44-9.92,6.3-14.65,13.56-14.73a22.41,22.41,0,0,1,18.25,10c4,7.82,14.81,10.91,22.26,6.37s9.86-15.75,4.86-22.94A52.87,52.87,0,0,0,165.07,80.7V78.36A16.06,16.06,0,0,0,149,62.29Z" transform="translate(1 2)"/></svg>