<svg id="Capa_1" data-name="Capa 1" xmlns="http://www.w3.org/2000/svg" viewBox="0 0 294 294"><title>valor-terreno</title><path d="M150.66,45.66A107.83,107.83,0,1,0,258.49,153.49,108,108,0,0,0,150.66,45.66Zm0,23.1a84.73,84.73,0,1,1-84.72,84.73A84.56,84.56,0,0,1,150.66,68.76Zm0,36.75a9,9,0,0,0-9,9v1.31a26.33,26.33,0,0,0-9.27,4.78A23.33,23.33,0,0,0,124,138.49c0,7.75,5,14.56,9.94,17.62s9.78,4.2,13.58,5.72c4.94,2,9,3.33,10.78,4.4,3.59,5.48-3.5,8.2-7.5,8.25a12.51,12.51,0,0,1-10.21-5.63,9.27,9.27,0,0,0-12.65-3.93A9.46,9.46,0,0,0,125.27,178,29.75,29.75,0,0,0,141.66,191v1.5a9,9,0,0,0,18,0v-1.22a26.73,26.73,0,0,0,9.37-4.87,23.36,23.36,0,0,0,8.43-17.9c0-7.75-5-14.56-9.93-17.62s-9.79-4.29-13.59-5.81c-4.94-2-9-3.23-10.78-4.31-3.6-5.55,3.53-8.2,7.59-8.24A12.53,12.53,0,0,1,161,138.12a9.14,9.14,0,0,0,12.46,3.56,9.39,9.39,0,0,0,2.72-12.84,29.57,29.57,0,0,0-16.49-13v-1.31A9,9,0,0,0,150.66,105.51Z" transform="translate(-3 -3)"/><line x1="231.06" y1="147" x2="282.45" y2="147"/><path d="M285.45,161.55H234.06a11.55,11.55,0,0,1,0-23.1h51.39a11.55,11.55,0,1,1,0,23.1Z" transform="translate(-3 -3)"/><line x1="11.55" y1="147" x2="62.94" y2="147"/><path d="M65.94,161.55H14.55a11.55,11.55,0,0,1,0-23.1H65.94a11.55,11.55,0,0,1,0,23.1Z" transform="translate(-3 -3)"/><line x1="147" y1="231.06" x2="147" y2="282.45"/><path d="M150,297a11.55,11.55,0,0,1-11.55-11.55V234.06a11.55,11.55,0,0,1,23.1,0v51.39A11.55,11.55,0,0,1,150,297Z" transform="translate(-3 -3)"/><line x1="147" y1="11.55" x2="147" y2="62.94"/><path d="M150,77.49a11.55,11.55,0,0,1-11.55-11.55V14.55a11.55,11.55,0,0,1,23.1,0V65.94A11.55,11.55,0,0,1,150,77.49Z" transform="translate(-3 -3)"/></svg>