<svg id="Capa_1" data-name="Capa 1" xmlns="http://www.w3.org/2000/svg" viewBox="0 0 297.88 287.22"><title>valor-destructible</title><path d="M97.43,293.61a14.39,14.39,0,0,1-5.63-1.15A148.77,148.77,0,0,1,1.06,155.33C1.06,73.2,67.87,6.39,150,6.39S298.94,73.2,298.94,155.33a148.36,148.36,0,0,1-80.75,132.4A14.41,14.41,0,1,1,205,262.1a120.06,120.06,0,1,0-101.93,3.83,14.41,14.41,0,0,1-5.64,27.68Z" transform="translate(-1.06 -6.39)"/><path d="M120,238.24a14.44,14.44,0,0,1-5.61-1.15,91.3,91.3,0,1,1,77.42-2.89,14.42,14.42,0,0,1-13.2-25.64,62.44,62.44,0,1,0-53,2,14.42,14.42,0,0,1-5.63,27.7Z" transform="translate(-1.06 -6.39)"/><path d="M150,188.44A38.44,38.44,0,1,1,188.44,150,38.49,38.49,0,0,1,150,188.44Zm0-48.05a9.61,9.61,0,1,0,9.61,9.61A9.62,9.62,0,0,0,150,140.39Z" transform="translate(-1.06 -6.39)"/></svg>