<svg id="Capa_1" data-name="Capa 1" xmlns="http://www.w3.org/2000/svg" viewBox="0 0 238 299.6"><title>valor-renta</title><path d="M269,299.8H31l.07-91c0-.81,5.44-81.93,118.93-81.93s118.94,79.79,119,80.6l0,.72Zm-210-28H241V208.71c-.4-4.2-6.93-53.83-91-53.83-84.33,0-90.61,51.27-90.95,55.12Z" transform="translate(-31 -0.2)"/><path d="M150,120.57a60.19,60.19,0,1,1,60.19-60.19A60.25,60.25,0,0,1,150,120.57Zm0-92.37a32.19,32.19,0,1,0,32.19,32.18A32.22,32.22,0,0,0,150,28.2Z" transform="translate(-31 -0.2)"/></svg>