<svg id="Capa_1" data-name="Capa 1" xmlns="http://www.w3.org/2000/svg" viewBox="0 0 301.3 154"><title>compra-venta</title><path d="M9.39,73c-5.23,0-10,3.74-10,9V217.9c0,5.26,4.81,9.1,10,9.1H290.61c5.23,0,10-3.84,10-9.1V82c0-5.26-4.81-9-10-9Zm0,6.7H290.61C292.8,79.7,294,81,294,82V217.9c0,1-1.16,2.4-3.35,2.4H9.39C7.2,220.3,6,218.91,6,217.9V82C6,81,7.2,79.7,9.39,79.7Zm46.87,23.43a3.35,3.35,0,0,0-3.35,3.35v6.9a24.43,24.43,0,0,0-13,5A19,19,0,0,0,33,133.26a15.86,15.86,0,0,0,7.84,13.91c4.36,2.68,9.46,4,14.13,5.86,7.65,2.79,17.78,5.88,17.89,13.71a11.74,11.74,0,0,1-4.61,9.52,18.94,18.94,0,0,1-12,3.87A20.51,20.51,0,0,1,39.1,170.5a3.36,3.36,0,0,0-4.7-1.57,3.54,3.54,0,0,0-.84,5A26.64,26.64,0,0,0,53,186.51c0,.11-.11.2-.11.32v6.69a3.35,3.35,0,0,0,6.7,0v-6.9a24.75,24.75,0,0,0,13-5.13,18.78,18.78,0,0,0,6.91-14.75,16.07,16.07,0,0,0-7.85-14c-4.36-2.68-9.45-4-14.12-5.86-7.61-2.78-17.79-5.87-17.89-13.6a11.93,11.93,0,0,1,4.6-9.62c2.88-2.35,7.06-3.77,12-3.77a20.43,20.43,0,0,1,17.16,9.52A3.37,3.37,0,0,0,78.13,131a3.53,3.53,0,0,0,.83-5A26.5,26.5,0,0,0,59.5,113.49c0-.12.11-.2.11-.32v-6.69A3.35,3.35,0,0,0,56.26,103.13Zm53.57,3.35a3.35,3.35,0,1,0,0,6.69h147.3a3.35,3.35,0,1,0,0-6.69Zm0,40.17a3.35,3.35,0,0,0,0,6.7H156.7a3.35,3.35,0,0,0,0-6.7Zm89.76,0a3.41,3.41,0,0,0-2.51,2L181,187.35l-11.72,2.93a3.35,3.35,0,1,0,1.67,6.49l13.4-3.35a3.42,3.42,0,0,0,2.3-2L200,159.21,210.47,188c.9,2.37,4.85,2.65,6.07.42L230,164.12l10.68,24.07a3.45,3.45,0,0,0,3.87,1.88L258,186.72a3.35,3.35,0,0,0-1.68-6.49l-10.67,2.62-12.24-27.51c-1-2.25-4.74-2.45-6-.32l-13.18,23.75-10.88-29.92a3.54,3.54,0,0,0-3.77-2.2Z" transform="translate(0.65 -73)"/></svg>