<svg id="Capa_1" data-name="Capa 1" xmlns="http://www.w3.org/2000/svg" viewBox="0 0 200 293.36"><title>cumplimiento-ley</title><path d="M246.36,3.33a3.35,3.35,0,0,0-2,.94L210,29.33,182,4.48a3.45,3.45,0,0,0-4.37,0L149.85,29.13,122.09,4.48a3.45,3.45,0,0,0-4.37,0l-28,24.85L55.32,4.27a3.38,3.38,0,0,0-2.18-.73A3.45,3.45,0,0,0,50,7v285c-.26,4.68,2.27,5.35,5.3,3.85l34.43-25,28,24.86a3.45,3.45,0,0,0,4.37,0L149.85,271l27.77,24.65a3.45,3.45,0,0,0,4.37,0l28-24.86,34.43,25a3.32,3.32,0,0,0,5.3-3.85V8.12a3.51,3.51,0,0,0-3.33-4.79ZM119.9,11.45l27.77,24.64a3.45,3.45,0,0,0,4.37,0l27.77-24.64,27.76,24.64a3.44,3.44,0,0,0,4.16.11L243,13.42v273.2l-31.3-22.78a3.44,3.44,0,0,0-4.16.21L179.81,288.7,152,264.05a3.45,3.45,0,0,0-4.37,0L119.9,288.7,92.14,264.05a3.4,3.4,0,0,0-2.81-.83,3.33,3.33,0,0,0-1.35.62L56.67,286.62V13.42L88,36.2a3.44,3.44,0,0,0,4.16-.11L119.9,11.45Zm29.95,85.38a3.32,3.32,0,0,0-3.32,3.32V107a22.76,22.76,0,0,0-20,23.09c0,7.49,3.33,12.71,7.7,15.91s9.5,4.86,14.14,7.07c5.1,2.43,10,4,13.1,6.34s5,4.82,5,10.61c0,10.5-7,16.64-16.64,16.64-7.85,0-14.09-5.81-16.95-11.54a3.37,3.37,0,1,0-6,3h0c3.38,6.78,10.38,13.62,19.66,15V200a3.33,3.33,0,1,0,6.65,0v-6.86a22.76,22.76,0,0,0,20-23.09c0-7.49-3.33-12.71-7.7-15.91s-9.5-4.87-14.14-7.07c-5.11-2.43-10-4.15-13.1-6.45s-5-4.71-5-10.5c0-10.5,7-16.64,16.63-16.64,7.86,0,14.1,5.7,17,11.44a3.37,3.37,0,0,0,6-3c-3.38-6.79-10.37-13.54-19.66-14.87v-6.87a3.33,3.33,0,0,0-3.33-3.32Z" transform="translate(-50 -3.32)"/></svg>