<svg id="Capa_1" data-name="Capa 1" xmlns="http://www.w3.org/2000/svg" viewBox="0 0 300 300.01"><title>hipoteca-online</title><path d="M149.68,0a4.44,4.44,0,0,0-1.81.63L1.28,116.55c-2.37,1.7-.78,6.31,2.13,6.18H37.5V265.91H3.41A3.5,3.5,0,0,0,0,269.32V296.6A3.54,3.54,0,0,0,3.41,300H296.59A3.54,3.54,0,0,0,300,296.6V269.32a3.54,3.54,0,0,0-3.41-3.41H269.32V122.73h27.27c2.91.13,4.5-4.48,2.13-6.18L152.13.64A4.35,4.35,0,0,0,149.68,0ZM150,7.78,286.79,115.91H13.21Zm0,43.36A20.46,20.46,0,1,0,170.45,71.6,20.5,20.5,0,0,0,150,51.14ZM150,58A13.64,13.64,0,1,1,136.36,71.6,13.59,13.59,0,0,1,150,58ZM44.32,122.73H64.77V265.91H44.32V122.73Zm27.27,0H235.23V265.91H71.59V122.73Zm170.46,0H262.5V265.91H242.05V122.73ZM6.82,272.73H293.18v20.46H6.82Z" transform="translate(0 0.01)"/><path d="M150,132.9a4.39,4.39,0,0,0-4.39,4.39v9.05a31.93,31.93,0,0,0-17,6.58,24.87,24.87,0,0,0-9.06,19.47,20.81,20.81,0,0,0,10.29,18.24c5.72,3.51,12.39,5.25,18.51,7.68,10,3.66,23.32,7.71,23.46,18a15.37,15.37,0,0,1-6,12.48c-3.78,3.08-9.26,5.07-15.77,5.07a26.87,26.87,0,0,1-22.49-12.61,4.42,4.42,0,0,0-6.17-2.06,4.62,4.62,0,0,0-1.1,6.58,35,35,0,0,0,25.51,16.46c0,.15-.14.26-.14.41v8.78a4.39,4.39,0,1,0,8.78,0v-9a32.4,32.4,0,0,0,17-6.72,24.61,24.61,0,0,0,9.06-19.34,21,21,0,0,0-10.29-18.37c-5.72-3.51-12.39-5.25-18.51-7.68-10-3.66-23.32-7.7-23.46-17.83a15.62,15.62,0,0,1,6-12.62c3.78-3.08,9.26-4.94,15.77-4.94a26.78,26.78,0,0,1,22.49,12.48,4.42,4.42,0,0,0,6.17,2.06,4.63,4.63,0,0,0,1.1-6.58,34.74,34.74,0,0,0-25.51-16.32c0-.15.14-.26.14-.41v-8.78A4.39,4.39,0,0,0,150,132.9Z" transform="translate(0 0.01)"/></svg>