<svg id="Capa_1" data-name="Capa 1" xmlns="http://www.w3.org/2000/svg" viewBox="0 0 232.2 290.15"><title>logo-cide</title><path d="M278.34,61.55h-6.28c8.51,22.59,7.78,45-.24,67.6h6.68v56.91H89.75V129.45h7A95.3,95.3,0,0,1,90.19,95.7,102.88,102.88,0,0,1,96,61.78H89.56V5.23H278.34ZM107.68,147a6,6,0,0,0-.09.78c0,6.53,0,13.06,0,19.58,0,.78.28,1,1,1,3.45,0,6.89,0,10.33,0,21.6,0,43.19.09,64.79,0a71,71,0,0,0,11.65-1,72.61,72.61,0,0,0,41.58-21.88c15.26-16.05,22.06-35.21,20.35-57.32a69,69,0,0,0-7.15-25.59,1.67,1.67,0,0,0-1.73-1.07c-8,0-16.07,0-24.11,0-.37,0-.74,0-1.34.07.48.6.82,1,1.15,1.42,9.25,11.61,13,24.83,11,39.52A49.71,49.71,0,0,1,219,133.38a49.27,49.27,0,0,1-33.62,13.54c-16.21.19-32.43,0-48.64,0H108.67C108.35,146.92,108,147,107.68,147Zm37.57-17.47c0-.16.05-.25,0-.3-.19-.26-.39-.5-.6-.75-10.48-13-14.2-27.7-10.74-44a51.11,51.11,0,0,1,49.84-40.39c25.18-.11,50.36,0,75.54.07,1.45,0,1.45,0,1.45-1.47V24.46c0-1.63,0-1.63-1.61-1.63H181.76a61,61,0,0,0-16.45,2.22,71,71,0,0,0-32.58,19.61c-15.53,16.22-22.75,35.46-20.45,58a71.54,71.54,0,0,0,7.9,25.93,1.61,1.61,0,0,0,1.67,1c7.46,0,14.92,0,22.38,0C144.58,129.57,144.92,129.54,145.25,129.52ZM217.2,94.88c0-18.12-14.78-33.08-32.68-33.09-18.45,0-33.4,14.68-33.42,32.81a33.05,33.05,0,1,0,66.1.28Zm43.49,54.74a105.64,105.64,0,0,1-18.32,18.72h18.32ZM123.42,23.1l-.15-.22c-.28,0-.56-.05-.84-.05-4.55,0-9.1,0-13.65,0-.94,0-1.23.25-1.22,1.21.06,5,0,10,.07,15a10.42,10.42,0,0,0,.13,1.07A96.4,96.4,0,0,1,123.42,23.1Z" transform="translate(-67.8 -5.23)"/><path d="M179.34,222h1.25c11.3,0,22.59-.05,33.89,0a35.74,35.74,0,0,1,16.29,3.74,27.81,27.81,0,0,1,14.21,17,41.56,41.56,0,0,1-.88,28.52c-4.52,11.37-13.19,18.07-24.93,21a45.75,45.75,0,0,1-10.87,1.21c-9.18,0-18.36,0-27.54,0-.46,0-.91,0-1.42-.07ZM195,228v59.3a3.46,3.46,0,0,0,.46.07c4.19-.06,8.4.1,12.57-.25,8.68-.74,15-5,18.45-13.17a39.76,39.76,0,0,0,2.84-12.72,52,52,0,0,0-1-16.55c-2.19-8.69-7.45-14.29-16.39-16.05A154.61,154.61,0,0,0,195,228Z" transform="translate(-67.8 -5.23)"/><path d="M300,293.45c-.24,0-.62.05-1,.05q-18.72,0-37.44,0c-1,0-1.26-.31-1.26-1.28q0-34.53,0-69.07c0-.35,0-.71.05-1.13H300v8.81a146,146,0,0,0-23.86-1.39v22.62c7.87-.05,15.71.35,23.74-1a17.38,17.38,0,0,0,.07,9c-8-1.27-15.86-.92-23.82-.95,0,.44-.07.82-.08,1.2,0,8.17,0,16.35,0,24.53,0,.94.26,1.23,1.21,1.21a214.39,214.39,0,0,0,22.51-1.44,1,1,0,0,1,.25,0Z" transform="translate(-67.8 -5.23)"/><path d="M131,225.21c-.73,3.4-1.43,6.72-2.17,10-.07.29-.4.75-.57.74a2.6,2.6,0,0,1-1.38-.51c-1.86-1.73-3.47-3.76-5.5-5.24-9.58-7-23.8-4.52-30.64,6.68a37.54,37.54,0,0,0-5,14.51,45.06,45.06,0,0,0,1.43,20.41c2,6.18,5.39,11.37,11.27,14.46,7.62,4,15.39,3.77,23,.07a47.88,47.88,0,0,0,6.76-4.34c.8-.58,1.36-.8,2.19,0-.72,2.81-1.43,5.68-2.2,8.53-.09.3-.53.56-.86.72A39.59,39.59,0,0,1,113.73,295a50.11,50.11,0,0,1-21.35-1.9c-10-3.31-17.65-9.39-21.89-19.25A37.39,37.39,0,0,1,68,256a41.93,41.93,0,0,1,3.6-14.74A33.5,33.5,0,0,1,91.8,223.08c12.77-4.41,25.45-4.12,37.89,1.45C130.14,224.73,130.56,225,131,225.21Z" transform="translate(-67.8 -5.23)"/><path d="M144.94,222.25h15.52V293.7H144.94Z" transform="translate(-67.8 -5.23)"/><path d="M201.25,95.32A17.32,17.32,0,1,1,183.9,78,17.24,17.24,0,0,1,201.25,95.32Z" transform="translate(-67.8 -5.23)"/></svg>