<svg id="Capa_1" data-name="Capa 1" xmlns="http://www.w3.org/2000/svg" viewBox="0 0 300.62 294.95"><title>logo-inaoe</title><path d="M331.31,156.53l-6.52,3.37L309.6,135.28c2.22-.91,4.37-1.81,6.55-2.63.2-.07.72.35.91.65q4.53,7.27,9,14.58c1.5,2.43,3,4.86,4.51,7.29a10.39,10.39,0,0,0,.72.92Z" transform="translate(-30.69 -2.53)"/><path d="M125.82,2.53,132,6.07,116.8,30.69l-6.09-4.24c1.64-2.65,3.22-5.23,4.82-7.81Q120.23,11,124.94,3.4c.17-.28.29-.58.44-.87Z" transform="translate(-30.69 -2.53)"/><path d="M276,283.18v14.1a6.71,6.71,0,0,1-.69.07c-6.19,0-12.39.13-18.58-.06-5.45-.17-10.25-2.05-13.66-6.59a20,20,0,0,1-3.88-11.49c-.24-6.4-.18-12.82-.25-19.23,0-1.31,0-2.63,0-4a6,6,0,0,1,.87-.12c6.2,0,12.39,0,18.58.16,5.12.16,9.69,1.86,13.12,5.9a19.88,19.88,0,0,1,4.31,10.75c.26,2.11.27,4.24.4,6.36,0,.55-.05.91-.74.9-3.59,0-7.19,0-10.78,0H251.44c-.15,2.83,2.7,6,5.85,6.24,2,.16,4,.1,6,.16.61,0,.86-.22.84-.84s0-1.46,0-2.27Zm-11.92-8.73c-.18-.75-.3-1.4-.48-2-1-3.36-3-5-6.43-5.34-1.38-.12-2.78-.06-4.17-.06-2.15,0-2.15,0-2.15,2.15v5.27Z" transform="translate(-30.69 -2.53)"/><path d="M194.48,255.91a7.07,7.07,0,0,1,.88-.08c6.16,0,12.32-.07,18.47.17,6.51.26,11.85,2.82,15.06,8.83a23.16,23.16,0,0,1,2.48,9.05c.17,1.94.2,3.88.22,5.83.06,5.49.06,11,.13,16.48,0,.92-.17,1.3-1.19,1.28-6-.08-12,0-18-.17-5-.14-9.5-1.73-12.94-5.58a18.41,18.41,0,0,1-4.37-9.8,49.65,49.65,0,0,1-.53-6.45c-.11-6.07-.13-12.15-.18-18.23Zm12.19,11.3c0,3.65-.06,7.34,0,11a11.17,11.17,0,0,0,.76,3.4,6.26,6.26,0,0,0,5.35,4.46,54.61,54.61,0,0,0,6.14.15c.24,0,.7-.44.69-.67-.06-3.94,0-7.91-.36-11.83-.34-3.63-2.58-6.15-5.57-6.49A61.11,61.11,0,0,0,206.67,267.21Z" transform="translate(-30.69 -2.53)"/><path d="M187.09,255.93v41.36H175.22V279.84c-.39,0-.67-.1-.94-.1-3.78,0-7.55,0-11.33,0-.83,0-1.06.25-1,1.06,0,5,0,10,0,15.06v1.43h-11.8c0-.28-.07-.56-.07-.84,0-6.52,0-13.05,0-19.57a28.36,28.36,0,0,1,1.56-9.49c2.34-6.53,7.09-10.14,13.85-11.14a35.45,35.45,0,0,1,5.15-.34c5.1,0,10.19,0,15.28,0Zm-12,11.18c-2.23,0-4.31-.15-6.38,0a7,7,0,0,0-6.45,7.29h12.83Z" transform="translate(-30.69 -2.53)"/><path d="M130.72,297.05V295.7c0-6.67,0-13.34-.08-20a14.34,14.34,0,0,0-.81-4.18,6.39,6.39,0,0,0-6-4.68c-2-.15-4.1,0-6.31,0v30.25H105.66V255.79a2.13,2.13,0,0,1,.5-.11c6.34,0,12.69-.17,19,.1,9.28.4,15.31,5.91,16.86,15.09a45.44,45.44,0,0,1,.59,6.89c.08,6.12,0,12.24,0,18.36,0,.29,0,.58-.07.93Z" transform="translate(-30.69 -2.53)"/><path d="M82.92,71.42,89.3,75.2,37.23,159.57l-6.54-3.48Z" transform="translate(-30.69 -2.53)"/><path d="M288.67,87.47,282,90.76l-52-84.37,6.47-3.58Q262.56,45.19,288.67,87.47Z" transform="translate(-30.69 -2.53)"/><path d="M275.82,248.72H171.36c.1-2.32.2-4.57.31-6.94.46,0,.85-.05,1.23-.05q50.82,0,101.65,0c1,0,1.32.29,1.29,1.29C275.77,244.87,275.82,246.73,275.82,248.72Z" transform="translate(-30.69 -2.53)"/><path d="M172.18,234.94c.18-1.87.35-3.68.56-5.49,0-.17.3-.39.5-.44a4.56,4.56,0,0,1,1,0q49.16,0,98.3,0c1.19,0,1.81.2,1.91,1.52s.46,2.88.73,4.42Z" transform="translate(-30.69 -2.53)"/><path d="M275.62,93.59l-5.87,2.5L219.1,14l5-3.82C241.26,38,258.4,65.69,275.62,93.59Z" transform="translate(-30.69 -2.53)"/><path d="M49.72,164.47l-6-2.14L95.18,78.84l5.24,3.52Q75.06,123.46,49.72,164.47Z" transform="translate(-30.69 -2.53)"/><path d="M55.67,166.21l49.59-80.44,5.25,3.92-4.58,7.45Q84.41,132,62.9,166.89c-.36.58-.67.81-1.38.63C59.65,167.05,57.75,166.67,55.67,166.21Z" transform="translate(-30.69 -2.53)"/><path d="M264.4,98.18l-6.27,2.29q-24.09-39-48-77.84l4.66-4.81Z" transform="translate(-30.69 -2.53)"/><path d="M173.57,223.39c.31-1.9.58-3.71.92-5.51,0-.23.43-.47.7-.58a2.53,2.53,0,0,1,.87,0q46.76,0,93.49,0c1,0,1.43.22,1.69,1.19.43,1.62,1,3.2,1.57,4.94Z" transform="translate(-30.69 -2.53)"/><path d="M115.76,93.94l4.55,4-6.08,9.87q-18.75,30.4-37.48,60.81a1.56,1.56,0,0,1-1.76.87c-1.76-.21-3.54-.33-5.53-.5C84.93,143.87,100.3,119,115.76,93.94Z" transform="translate(-30.69 -2.53)"/><path d="M205.47,27.58c15.48,25.09,30.82,50,46.27,75-1.93.54-3.76,1.1-5.61,1.54-.23.06-.68-.43-.88-.76-2.85-4.57-5.67-9.15-8.5-13.73q-17.15-27.77-34.31-55.51a2,2,0,0,1,.13-2.76C203.58,30.24,204.43,29,205.47,27.58Z" transform="translate(-30.69 -2.53)"/><path d="M175.73,211.09c.42-1.76.77-3.37,1.24-4.94a1.36,1.36,0,0,1,1.05-.6c3.19-.05,6.38,0,9.57,0q38.32,0,76.65,0a1.61,1.61,0,0,1,1.76,1.07c.67,1.49,1.45,2.94,2.25,4.56Z" transform="translate(-30.69 -2.53)"/><path d="M98.06,255.72v41.33H86.24v-1c0-8.68-.1-17.37,0-26.06.08-4.81,1.61-9.16,5.57-12.28A9.15,9.15,0,0,1,98.06,255.72Z" transform="translate(-30.69 -2.53)"/><path d="M262.17,199.8H178.61l1.85-5.16h1.13q37.85,0,75.67,0a2.05,2.05,0,0,1,2,1C260.11,197,261.09,198.28,262.17,199.8Z" transform="translate(-30.69 -2.53)"/><path d="M82.82,169.57l41.82-67.76,3.84,4.07-8.39,13.59Q105,143.88,89.94,168.25a2.08,2.08,0,0,1-1.33.87C86.79,169.34,85,169.41,82.82,169.57Z" transform="translate(-30.69 -2.53)"/><path d="M240,105.83c-1.81.34-3.45.7-5.1.92a1.57,1.57,0,0,1-1.12-.73q-6.3-10.12-12.53-20.28-12.68-20.58-25.38-41.13a1.64,1.64,0,0,1-.1-1.9c.82-1.42,1.55-2.89,2.45-4.6Z" transform="translate(-30.69 -2.53)"/><path d="M132.37,110.79c.26.33.38.47.48.62,2.75,4.07,2.75,4.08.21,8.19Q118.72,142.82,104.34,166a2.11,2.11,0,0,1-1.21.93c-2,.47-3.94.82-6.18,1.27Z" transform="translate(-30.69 -2.53)"/><path d="M192.13,50.35l35.46,57.43a16.15,16.15,0,0,1-6.15-.38c-.31-.09-.54-.56-.74-.89Q208.46,86.7,196.24,66.86c-1.94-3.15-3.89-6.29-5.8-9.46a1.86,1.86,0,0,1-.27-1.3C190.74,54.25,191.41,52.43,192.13,50.35Z" transform="translate(-30.69 -2.53)"/><path d="M228.54,129.93c-1.95-.59-3.91-1.15-5.84-1.79a2,2,0,0,1-.8-.83q-17.16-27.82-34.3-55.66a2,2,0,0,1-.37-1.21c.25-2,.59-4,.9-5.94l.32-.07,40.24,65.15Z" transform="translate(-30.69 -2.53)"/><path d="M111.78,164.51l40.28-65.33h.31c.45,1.91.92,3.81,1.31,5.73.06.29-.19.68-.38,1q-14,22.73-28.05,45.45c-2.1,3.39-4.18,6.8-6.31,10.18a2.92,2.92,0,0,1-1.28,1.08c-1.89.76-3.82,1.42-5.73,2.11Z" transform="translate(-30.69 -2.53)"/><path d="M183,189c.18-.34.31-.6.45-.85,2.3-4,2.3-4,6.84-4q28.74,0,57.5,0a2.68,2.68,0,0,1,2.21.9c1.14,1.28,2.37,2.49,3.73,3.9Z" transform="translate(-30.69 -2.53)"/><path d="M162.36,178.46c1.52-1.28,3-2.58,4.59-3.83a1.71,1.71,0,0,1,1-.14l69,0a1.74,1.74,0,0,1,.95.15,45.9,45.9,0,0,1,5.07,4h-80.3Z" transform="translate(-30.69 -2.53)"/><path d="M147.83,162.77c22.07-7.69,44.16-7.58,66.25,0Z" transform="translate(-30.69 -2.53)"/><path d="M220.89,149.42c-17.55-13.84-28.77-31.57-33.11-53.55l.29-.18,33.06,53.56Z" transform="translate(-30.69 -2.53)"/><path d="M141.2,148.85l33-53.55c-4,22.19-15.32,39.83-32.73,53.75Z" transform="translate(-30.69 -2.53)"/><path d="M211.05,126.66l-7.28-11.75q-8.28-13.41-16.54-26.85a5.63,5.63,0,0,1-.81-2.54c-.11-2.41,0-4.83,0-7.45.27.35.45.54.59.76q12.87,20.85,25.76,41.69a1.72,1.72,0,0,1,.15,1.82C212.26,123.71,211.71,125.1,211.05,126.66Z" transform="translate(-30.69 -2.53)"/><path d="M125.53,158.8l11.75-19.07q7.16-11.58,14.29-23.18a2,2,0,0,1,1.62-1.09c1.56-.18,3.11-.42,4.88-.66-.23.41-.38.71-.56,1q-11.67,18.94-23.35,37.85a4.73,4.73,0,0,1-1.52,1.5c-2.29,1.35-4.63,2.61-6.95,3.91Z" transform="translate(-30.69 -2.53)"/><path d="M173.76,166.24h5q21.57,0,43.12,0a4.49,4.49,0,0,1,1.88.42,75.15,75.15,0,0,1,7,3.87,6.39,6.39,0,0,1-.75.09q-25.8,0-51.59,0a2.27,2.27,0,0,1-1.45-.7C175.89,168.82,174.93,167.62,173.76,166.24Z" transform="translate(-30.69 -2.53)"/><path d="M116.57,241.79c-.31,2.36-.6,4.6-.9,6.91H86.15v-6.91Z" transform="translate(-30.69 -2.53)"/><path d="M136.64,47.33l-4.81-4.59,15.63-25.33,4.73,4.71Z" transform="translate(-30.69 -2.53)"/><path d="M306.61,166.77c-2.18.46-4.16.84-6.11,1.32-.75.18-.88-.34-1.13-.74q-5.81-9.39-11.59-18.79L284.34,143c2.16-.53,4.2-1.06,6.27-1.51.22,0,.64.37.82.66q4.35,7,8.66,14,2.93,4.71,5.83,9.44C306.13,165.92,306.32,166.26,306.61,166.77Z" transform="translate(-30.69 -2.53)"/><path d="M89,223.61c.65-2,1.21-3.78,1.88-5.55a1.39,1.39,0,0,1,1.07-.6c3.15-.05,6.31,0,9.46,0h20.77c-.6,2-1.15,3.92-1.73,5.8-.06.17-.36.31-.57.36a2.82,2.82,0,0,1-.77,0H89Z" transform="translate(-30.69 -2.53)"/><path d="M122.46,34.76,137.93,9.68l5,3.77L127.34,38.77Z" transform="translate(-30.69 -2.53)"/><path d="M296.82,139.5c1.92-.62,3.7-1.16,5.46-1.78.71-.25.89.17,1.17.61L312,152.18l6.46,10.45c-1.95.69-3.78,1.38-5.64,2-.22.07-.71-.39-.91-.71q-5.28-8.49-10.52-17Z" transform="translate(-30.69 -2.53)"/><path d="M86.82,235.12l1-5.87H119c-.38,1.85-.73,3.67-1.18,5.46,0,.21-.69.39-1,.39q-10.44,0-20.88,0Z" transform="translate(-30.69 -2.53)"/><path d="M93.58,211c1-1.86,1.79-3.53,2.68-5.16a1.16,1.16,0,0,1,.85-.48c9.82,0,19.64,0,29.62,0-.74,1.85-1.41,3.61-2.18,5.33-.1.22-.68.31-1,.32-5.28,0-10.56,0-15.84,0Z" transform="translate(-30.69 -2.53)"/><path d="M156.74,27.41l3.8,5.16L145.41,57.1c-1.33-1.52-2.62-2.93-3.82-4.42-.16-.19.07-.81.27-1.14q5.94-9.67,11.92-19.34Z" transform="translate(-30.69 -2.53)"/><path d="M271.07,145.24c2.06-.33,3.93-.66,5.82-.87.31,0,.81.36,1,.69q6,9.6,11.88,19.23l3.06,5c-2.1.15-4,.27-6,.46-.71.07-1-.34-1.25-.82l-12.33-20C272.59,147.73,271.87,146.55,271.07,145.24Z" transform="translate(-30.69 -2.53)"/><path d="M100,199.82c1.11-1.55,2.18-3.07,3.3-4.56a1.14,1.14,0,0,1,.82-.38q14,0,27.92,0s.05,0,.18.11c-.86,1.59-1.7,3.2-2.59,4.78-.09.16-.44.24-.67.24l-28.68,0S100.25,200,100,199.82Z" transform="translate(-30.69 -2.53)"/><path d="M152.61,66.76c-1.05-1.5-2-2.86-3-4.27a1.21,1.21,0,0,1-.07-1.06q7.11-11.61,14.3-23.19c0-.05.11-.08.27-.19.89,1.7,1.78,3.37,2.63,5.06a1,1,0,0,1-.08.79C162,51.48,157.36,59.05,152.61,66.76Z" transform="translate(-30.69 -2.53)"/><path d="M258.31,146.09c1.94-.11,3.73-.26,5.51-.27a1.67,1.67,0,0,1,1.11.8q6.29,10.11,12.53,20.27l1.68,2.74c-1.12,0-2.12-.08-3.1,0-2.59.26-4-1-5.28-3.18C267,160,262.93,153.66,259,147.27,258.78,146.93,258.59,146.58,258.31,146.09Z" transform="translate(-30.69 -2.53)"/><path d="M139.42,184.15c-1.19,1.62-2.29,3.15-3.44,4.65a1.09,1.09,0,0,1-.78.24q-13.35,0-26.69,0a1.73,1.73,0,0,1-.38-.13c1.55-1.59,3-3.12,4.56-4.62a1.27,1.27,0,0,1,.82-.19h25.38C139,184.09,139.15,184.12,139.42,184.15Z" transform="translate(-30.69 -2.53)"/><path d="M99.76,44.36l6.07,4.26L96.35,64l-6.23-4Z" transform="translate(-30.69 -2.53)"/><path d="M288.88,101.71l6.84-3c3.19,5.17,6.37,10.33,9.64,15.61-2.22.89-4.38,1.76-6.55,2.59a.79.79,0,0,1-.7-.26C295,111.68,292,106.74,288.88,101.71Z" transform="translate(-30.69 -2.53)"/><path d="M169.86,50.2c.7,2,1.37,4,2,5.91a1.07,1.07,0,0,1-.19.79q-6.39,10.4-12.81,20.76a2.94,2.94,0,0,1-.24.23c-.87-1.69-1.74-3.36-2.56-5-.09-.19.06-.57.2-.79q6.58-10.72,13.21-21.42A3.86,3.86,0,0,1,169.86,50.2Z" transform="translate(-30.69 -2.53)"/><path d="M264.9,168.56c-2.19-.44-4.26-.85-6.33-1.3a1.35,1.35,0,0,1-.72-.6Q251.46,156.35,245.1,146a1.82,1.82,0,0,1-.15-.41c2,.13,3.9.25,5.83.42a1.14,1.14,0,0,1,.73.54q6.68,10.77,13.32,21.57C264.87,168.21,264.86,168.29,264.9,168.56Z" transform="translate(-30.69 -2.53)"/><path d="M138.09,248.77c.31-2.43.61-4.7.91-7h18.93c-.16,2.18-.29,4.29-.52,6.4,0,.23-.67.55-1,.55-4.84,0-9.68,0-14.52,0Z" transform="translate(-30.69 -2.53)"/><path d="M280,123.49c-2.11.59-4.07,1.16-6,1.68a.94.94,0,0,1-.76-.36c-2.85-4.56-5.66-9.13-8.57-13.83l6.32-2.16Z" transform="translate(-30.69 -2.53)"/><path d="M116.89,79.33l-5.14-4,9.06-14.67c1.56,1.38,3,2.67,4.49,4a1,1,0,0,1,.08.9C122.58,70.11,119.76,74.68,116.89,79.33Z" transform="translate(-30.69 -2.53)"/><path d="M111.26,52.91l4.94,3.9L107,71.72l-5.12-3.61Z" transform="translate(-30.69 -2.53)"/><path d="M236.38,159.17c-2.56-1.46-5.13-2.91-7.68-4.39a1.71,1.71,0,0,1-.49-.57q-6.36-10.28-12.69-20.57a1.15,1.15,0,0,1-.07-.25c1.64,1.26,3.23,2.5,4.86,3.7a13.61,13.61,0,0,0,2.5,1.57,6.8,6.8,0,0,1,3.15,3c3.36,5.54,6.79,11,10.2,16.55.14.24.25.49.38.74Z" transform="translate(-30.69 -2.53)"/><path d="M285.68,121.7l-9.2-14.9,5.89-2.36c3.12,5,6.22,10.09,9.39,15.21Z" transform="translate(-30.69 -2.53)"/><path d="M162.52,107.74a46.68,46.68,0,0,0,1.15-10.25,1.64,1.64,0,0,1,.28-.81q5.67-9.21,11.36-18.42a3.54,3.54,0,0,1,.28-.32c0,2.87,0,5.67,0,8.47a1.87,1.87,0,0,1-.34.8Q169,97.31,162.78,107.4A2.78,2.78,0,0,1,162.52,107.74Z" transform="translate(-30.69 -2.53)"/><path d="M139.92,235.12c.4-2.08.77-4,1.14-5.89h18.39c-.23,1.87-.43,3.69-.72,5.48,0,.18-.63.38-1,.39-3.89,0-7.77,0-11.66,0Z" transform="translate(-30.69 -2.53)"/><path d="M161.69,217.6c-.37,2-.74,3.93-1.13,6h-18.1c.5-2,1-3.91,1.51-5.82,0-.14.41-.28.63-.28q8.34,0,16.7,0A1.56,1.56,0,0,1,161.69,217.6Z" transform="translate(-30.69 -2.53)"/><path d="M148.88,174.69c-1.58,1.45-3,2.79-4.47,4.09a1.4,1.4,0,0,1-.83.17H119.41c-.1,0-.21,0-.66-.09,2-1.48,3.81-2.81,5.63-4.12a1.37,1.37,0,0,1,.74-.11h23.07C148.36,174.64,148.52,174.66,148.88,174.69Z" transform="translate(-30.69 -2.53)"/><path d="M165.05,166.18c-2.8,1.15-5.77,2.27-8.64,3.6a8,8,0,0,1-3.55.82c-6.85,0-13.71,0-20.56,0h-1.16l-.08-.29c2-1.06,4.07-2.09,6.06-3.2a7.91,7.91,0,0,1,4.1-.94c7.62,0,15.25,0,22.87,0Z" transform="translate(-30.69 -2.53)"/><path d="M162.87,90.41c-.59-2.14-1.11-4-1.58-5.78a1.25,1.25,0,0,1,.23-.81q6-9.81,12.09-19.61c.06-.1.12-.19.43-.25.34,2.1.69,4.2,1,6.31a1.23,1.23,0,0,1-.26.69Q169,80.4,163.15,89.83A5.44,5.44,0,0,0,162.87,90.41Z" transform="translate(-30.69 -2.53)"/><path d="M231.49,142.77c2,.52,4,1,5.92,1.53a1.46,1.46,0,0,1,.7.63q6,9.75,12,19.53a3.68,3.68,0,0,1,.19.54c-1.62-.57-3-1.17-4.54-1.59a5.55,5.55,0,0,1-3.4-2.81c-3.38-5.65-6.89-11.23-10.35-16.84C231.88,143.46,231.71,143.15,231.49,142.77Z" transform="translate(-30.69 -2.53)"/><path d="M163.12,211H145.78c.63-1.86,1.2-3.61,1.82-5.34.05-.16.39-.3.6-.3,5.41,0,10.83,0,16.37,0C164.08,207.31,163.61,209.13,163.12,211Z" transform="translate(-30.69 -2.53)"/><path d="M266.77,127c-1.95.41-3.73.81-5.52,1.12a1.22,1.22,0,0,1-1-.45c-2.69-4.28-5.33-8.58-8-13a4.36,4.36,0,0,1,.62-.3l2.86-.76c2.44-.68,2.44-.68,3.74,1.44Z" transform="translate(-30.69 -2.53)"/><path d="M126.49,87.47c-1.41-1.24-2.74-2.39-4-3.58a.94.94,0,0,1-.17-.89c2.7-4.44,5.44-8.86,8.18-13.28,0,0,.12-.07.16-.1,1.34,1.3,2.69,2.57,4,3.9.13.13.07.62-.07.85C131.9,78.71,129.23,83,126.49,87.47Z" transform="translate(-30.69 -2.53)"/><path d="M168.19,194.86c-.65,1.67-1.23,3.23-1.87,4.77a.84.84,0,0,1-.67.38c-5.2,0-10.39,0-15.59,0-.06,0-.12-.07-.32-.19.68-1.54,1.37-3.1,2.09-4.64a.87.87,0,0,1,.63-.31Z" transform="translate(-30.69 -2.53)"/><path d="M139.18,78.55c1,1.27,2.11,2.54,3.13,3.87a1.09,1.09,0,0,1,0,1c-2.55,4.19-5.12,8.35-7.76,12.62-1.2-1.32-2.34-2.57-3.45-3.85a.85.85,0,0,1,0-.76Q135,85,139,78.62S139,78.59,139.18,78.55Z" transform="translate(-30.69 -2.53)"/><path d="M254.29,129.33c-1.78.2-3.59.41-5.4.57-.2,0-.51-.25-.65-.47q-3.8-6.11-7.55-12.25c-.06-.08-.05-.2-.08-.35,1.71-.29,3.39-.6,5.08-.85a1,1,0,0,1,.78.35q3.93,6.35,7.82,12.72S254.29,129.12,254.29,129.33Z" transform="translate(-30.69 -2.53)"/><path d="M174.19,184.09c-1.06,1.64-2,3.15-3,4.63a1,1,0,0,1-.72.32c-5.06,0-10.11,0-15.5,0,1.1-1.71,2.09-3.26,3.11-4.79.09-.13.39-.16.6-.16Z" transform="translate(-30.69 -2.53)"/><path d="M146.33,87.82c1,1.64,1.86,3,2.68,4.46a1.2,1.2,0,0,1,0,1c-2.52,4.12-5.07,8.21-7.61,12.31a.92.92,0,0,1-.2.16c-.93-1.56-1.85-3.1-2.75-4.67a.69.69,0,0,1,.06-.59C141.08,96.33,143.63,92.2,146.33,87.82Z" transform="translate(-30.69 -2.53)"/><path d="M227.88,117.6c1.85,0,3.71,0,5.56,0a1,1,0,0,1,.68.4c2.56,4.1,5.09,8.2,7.75,12.51-2,0-3.88,0-5.72,0a1.08,1.08,0,0,1-.67-.47q-3.79-6.12-7.55-12.25A.51.51,0,0,1,227.88,117.6Z" transform="translate(-30.69 -2.53)"/></svg>