<svg id="Capa_1" data-name="Capa 1" xmlns="http://www.w3.org/2000/svg" viewBox="0 0 817.83 213.18"><title>logo-infotec</title><path d="M822.24,197c-10.52,0-21,.09-31.56-.12-19-.38-37-13.9-43.35-32.42a48.42,48.42,0,0,1,47.44-63.29c9.16.17,18.31-.06,27.47-.11v3c-.45.88-1,1.72-1.34,2.63-3.49,8.58-9.66,12.81-18.83,12.85-3.22,0-6.44,0-9.65,0-15.8.5-28.35,13.94-28.15,30.1a29.08,29.08,0,0,0,28.81,28.92c3.21,0,6.44,0,9.65,0,6,.14,11.16,2.37,14.79,7.23a75.89,75.89,0,0,1,4.72,8.18Z" transform="translate(-4.41 -41.82)"/><path d="M153.55,102.5q0,17.3,0,34.58c0,6.7-4.77,10.06-9.59,13-4.13,2.55-8.65,1.95-12.63-.74-5.54-3.74-9.14-8.19-8.92-15.8.53-18.2.12-36.43.22-54.65,0-2.74-.69-3.79-3.59-4.22-20.58-3.06-38.32,3.42-54.36,15.78-21.57,16.61-29.62,39.33-28.54,65.62.58,13.84,5.52,26.56,13.67,37.9,6.08,8.47,5.29,16.77-2.29,23.84-5.8,5.4-14.31,4.45-19.47-2.37-11.85-15.66-19.73-33-22.52-52.61-3.08-21.7.14-42.52,10.42-61.54,14-25.82,34.11-45.49,62.72-54.94a85.46,85.46,0,0,1,55.37.09c5.15,1.74,9.83,5.58,14,9.26,4,3.5,5.66,8.45,5.54,14C153.39,80.69,153.55,91.6,153.55,102.5Z" transform="translate(-4.41 -41.82)"/><path d="M68.36,194.51c0-10.9.23-21.81-.07-32.71C68.07,154,73,150.07,78.71,147s10.83-.19,15.12,3.75a15,15,0,0,1,5.34,12c-.36,16.1-.11,32.22-.15,48.33,0,2.59-.28,5.18-.41,7.77-.11,2.18.71,3.39,3.09,3.72,12.37,1.73,24.41.8,36-4,12.81-5.35,24-13.21,32.56-24,7.39-9.24,11.84-20.23,14.1-31.93,4.32-22.39.17-42.91-13.45-61.43-6.5-8.85-.27-23.3,10.64-24.76A12,12,0,0,1,193,81.26c12.86,16.41,21.44,34.86,23.38,55.64,2.6,27.85-3.75,53.5-21.67,75.74-7.74,9.6-16.2,18.35-26.37,25.37-11.75,8.12-24.63,13.7-38.76,15.83-14.34,2.17-28.58,1.45-42.38-3.52-7.23-2.6-13.19-6.91-16.66-13.91a19.82,19.82,0,0,1-2.08-8.07c-.22-11.27-.09-22.55-.09-33.83Z" transform="translate(-4.41 -41.82)"/><path d="M518.67,196.92C491.46,196.89,470,175.66,470,149c0-27.52,24.39-48.54,49.4-47.93,26.51.65,48.37,22,48.23,48.41S545.62,197,518.67,196.92Zm-.06-18.38a28.85,28.85,0,0,0,29.3-29.11c.1-16.6-12.82-29.91-29.06-29.94s-29.18,13-29.2,29.69S502.17,178.51,518.61,178.54Z" transform="translate(-4.41 -41.82)"/><path d="M281.62,196.64c0-18.37-1-36.5.27-54.45,1.53-21.06,20.91-38.73,42.32-40.87,23.43-2.35,45.08,11.33,52,33.24a52.22,52.22,0,0,1,2.33,14.59c.3,15.23.13,30.47.12,45.7a17.64,17.64,0,0,1-.27,1.94,31.21,31.21,0,0,1-4.64-.39A19.8,19.8,0,0,1,359,178.07c-.13-9.42.07-18.83-.09-28.24-.26-16.74-12.38-29.75-28-30.31a29.28,29.28,0,0,0-30.15,28.78c-.15,9.79.07,19.58-.08,29.36C300.52,188.26,291.22,197.31,281.62,196.64Z" transform="translate(-4.41 -41.82)"/><path d="M737.52,101.79c.43,8.75-7.77,17.26-17.28,17.64-3.84.15-7.69,0-11.53.1-16,.49-28.24,13.69-28.07,30.08a28.78,28.78,0,0,0,28.66,29c4.93.07,10-.1,14.75.89,7.78,1.61,13.26,8.95,13.62,17.22-1.06.09-2.13.24-3.2.24-8.8,0-17.6-.14-26.4,0-22.82.39-45.06-19.1-46.93-42.35-2.14-26.52,14.77-49.26,40.15-52.53C713.17,100.52,725.42,101.79,737.52,101.79Z" transform="translate(-4.41 -41.82)"/><path d="M558.17,102.86h96.24c1.77,7.08-7.12,17.78-16.66,18-5.82.16-11.65.26-17.46,0-3.38-.15-4.15,1.1-4.14,4.26.12,22.29.07,44.58.07,66.87v4.3c-8.1,1.4-17.46-6.07-19.06-14.95a42.42,42.42,0,0,1-.62-7.38c-.06-16.22,0-32.44,0-48.66v-4.39c-7.13,0-13.79.11-20.44,0C566.38,120.72,558.62,113,558.17,102.86Z" transform="translate(-4.41 -41.82)"/><path d="M389.27,196.93c0-18.69-1.57-37.14.39-55.22,2.59-24.06,23.56-40.56,47.81-40.54h27.79c1.12,8.65-7.36,17.81-16.74,18.25-3.71.17-7.43,0-11.14.08-16.44.36-28.76,12.77-28.9,29.17-.08,9.41.06,18.83,0,28.24a20.16,20.16,0,0,1-14.56,19.36A32.19,32.19,0,0,1,389.27,196.93Z" transform="translate(-4.41 -41.82)"/><path d="M250.8,101.51c9.14-.85,19.15,7.77,19.27,17.5.33,25.76.11,51.53.11,77.7-6.76.44-11.81-2.57-15.25-7.56-2.22-3.21-4.09-7.43-4.15-11.22-.39-25-.24-50.07-.25-75.1A7.67,7.67,0,0,1,250.8,101.51Z" transform="translate(-4.41 -41.82)"/><path d="M447,139.82c5.31,0,10.63.06,15.94,0,2.39,0,2.94.8,2.46,3.14a18.75,18.75,0,0,1-18.05,15.22c-5.56.1-11.12.08-16.68,0s-9.22-3.74-9.23-8.93c0-5.55,3.58-9.27,9.25-9.38,5.43-.1,10.87,0,16.31,0Z" transform="translate(-4.41 -41.82)"/><path d="M737.52,139.89c.23,9.24-7.4,17.65-16.53,18.16-6.41.36-12.86.21-19.28,0a8.54,8.54,0,0,1-8.09-8.51c-.19-5.13,2.94-9.49,7.74-9.59C713.33,139.72,725.3,139.89,737.52,139.89Z" transform="translate(-4.41 -41.82)"/></svg>