<svg id="Capa_1" data-name="Capa 1" xmlns="http://www.w3.org/2000/svg" viewBox="0 0 347.43 297.12"><title>logo-conacyt</title><path d="M354.72,245.38c-.17,1-.35,2-.5,2.93-.27,1.7-.51,3.41-.78,5.22H338.53c-2.07,14.6-4.12,29.1-6.18,43.67H320.41c.44-3.65,1.1-7.23,1.65-10.82s1.14-7.23,1.71-10.84,1.14-7.23,1.7-10.84,1.11-7.21,1.69-10.94c-1.05,0-2-.11-2.88-.11-3.82,0-7.64.09-11.46.09a3.35,3.35,0,0,0-2.57,1.13c-.13.14-.28.29-.4.44-3.13,4-6.27,8.07-9.38,12.13-.74.95-1.34,2-2.05,3a18,18,0,0,0-3.14,9c-.43,3.91-.9,7.83-1.33,11.75-.15,1.35-.25,2.72-.38,4.08-.06.64-.15,1.28-.23,2H281.52c.11-1,.2-1.88.32-2.78.68-5.23,1.32-10.46,2.08-15.67a15,15,0,0,0-1.17-8.57c-3.65-8-7.18-16.09-10.75-24.14-.23-.51-.43-1-.68-1.62a6.14,6.14,0,0,1,.92-.15c3.58,0,7.16.08,10.74.08a2,2,0,0,1,1.91,1,11.62,11.62,0,0,1,.95,1.94c1.8,4.86,3.57,9.74,5.35,14.61.15.4.33.79.54,1.31.3-.4.5-.65.67-.91,3.17-4.95,6.38-9.87,9.5-14.85a6.38,6.38,0,0,1,5.86-3.33c6.12.08,12.24.15,18.35.15,9.38,0,18.76-.06,28.13-.1a2.67,2.67,0,0,0,.48-.08Z" transform="translate(-7.28 -1.44)"/><path d="M180.09,1.44l2.22.47A14.75,14.75,0,0,1,194.13,16a14.92,14.92,0,0,1-11.82,15.23,15.42,15.42,0,0,1-17.89-12A15.1,15.1,0,0,1,177.6,1.7c.43-.05.86-.17,1.29-.26Z" transform="translate(-7.28 -1.44)"/><path d="M130.36,255.35c-1.13,7.17-2.07,14.13-3.09,21.07s-2,13.83-3,20.8H113.45l7.87-52.86a3,3,0,0,1,.58-.11c5.07,0,10.13.09,15.2.1a2.39,2.39,0,0,1,2.2,1.22,10.62,10.62,0,0,1,.94,2q6.27,17.35,12.52,34.72c.42,1.17.94,2.31,1.43,3.45a6.86,6.86,0,0,0,.5.82c2-14.17,3.88-28.05,5.81-42h10.59c-.24,1.95-.48,3.84-.72,5.74l-.75,5.74c-.25,1.91-.51,3.82-.76,5.74s-.53,3.9-.79,5.86-.51,3.82-.76,5.74l-.75,5.74c-.25,1.91-.52,3.82-.74,5.74a43.85,43.85,0,0,0-.6,5.58l.32.08a4.89,4.89,0,0,0,.54-.58c.6-1,1.22-1.9,1.77-2.88l22-39.57c.21-.39.42-.78.66-1.15a3.72,3.72,0,0,1,3.06-1.89c3.58-.09,7.16-.1,10.74-.11a3.5,3.5,0,0,1,1.18.24,2.48,2.48,0,0,1,1.71,1.84c1.79,6.67,3.65,13.33,5.46,20q4,14.78,8,29.57c.11.42.2.85.32,1.36a3.13,3.13,0,0,1-.62.13c-3.18,0-6.35,0-9.53-.11a2.67,2.67,0,0,1-2.88-2.21c-.6-1.92-1.14-3.85-1.66-5.79-.85-3.15-1.66-6.3-2.48-9.45-.09-.31-.16-.63-.27-.93a2.58,2.58,0,0,0-2.68-2c-1.13,0-2.26,0-3.38,0-2.57-.15-5.14-.28-7.7-.54a5.44,5.44,0,0,0-5.56,2.59c-.43.67-.79,1.4-1.16,2.11-2.42,4.68-4.83,9.36-7.27,14a3.72,3.72,0,0,1-3.58,2.2c-8.53,0-17.06.08-25.59.13-.24,0-.48,0-.83,0-.15-.39-.32-.78-.46-1.19Q138.43,276.6,131.56,257a5.86,5.86,0,0,0-.39-1C131.05,255.75,130.78,255.65,130.36,255.35Zm67-2.3-.29-.08-1.87,3.58-1.89,3.64c-.64,1.25-1.3,2.5-1.92,3.75a39.53,39.53,0,0,0-1.8,3.63,77.36,77.36,0,0,0,11.7-.13Z" transform="translate(-7.28 -1.44)"/><path d="M81.6,298.49a33,33,0,0,1-11.88-1.73c-8.19-2.94-13.57-8.5-15.34-17.14-2.37-11.57,2.24-29.43,20.93-35.16A40.89,40.89,0,0,1,92,243.14a32.88,32.88,0,0,1,7.4,1.65,20.5,20.5,0,0,1,11.78,10.8A29.56,29.56,0,0,1,114,271.08a29.94,29.94,0,0,1-3.28,12c-3.81,7.2-9.82,11.66-17.54,13.94A38.37,38.37,0,0,1,81.6,298.49ZM65.82,273.65c.17,1.51.23,3.05.54,4.54,1.1,5.39,4.29,8.87,9.67,10.24a22.31,22.31,0,0,0,8.38.48c6.33-.77,11.25-3.74,14.36-9.36a22.68,22.68,0,0,0,2-17.18,12.09,12.09,0,0,0-8.31-8.83,21.64,21.64,0,0,0-4.21-1c-7.91-1-14.21,1.79-18.72,8.39A23.49,23.49,0,0,0,65.82,273.65Z" transform="translate(-7.28 -1.44)"/><path d="M50.61,286.86c-.73,3-1.42,5.89-2.13,8.77a1.85,1.85,0,0,1-1.64,1.54c-5.5.83-11,1.63-16.58,1.32a30.6,30.6,0,0,1-10.19-2.28A18.5,18.5,0,0,1,8.81,283.79a33.75,33.75,0,0,1,.71-22.16c3.81-9.7,11-15.59,21.07-18.14a41.71,41.71,0,0,1,11.63-1c3.9.12,7.8.32,11.7.5a3.06,3.06,0,0,1,.51.09v10.23l-4-.58c-3-.41-6-.9-9-1.21a20.32,20.32,0,0,0-22.55,17.64,18.94,18.94,0,0,0,.15,7.08c1.37,5.78,5.09,9.26,10.78,10.66a34,34,0,0,0,9.61.65c2.25-.1,4.5-.2,6.75-.33C47.6,287.16,49,287,50.61,286.86Z" transform="translate(-7.28 -1.44)"/><path d="M269.1,242.92v10.93l-2.63-.65a64,64,0,0,0-9.08-1.9c-10.33-1.08-20.1,4.08-23.25,15.74a18.85,18.85,0,0,0-.23,10.24A13.36,13.36,0,0,0,245.24,287a74.24,74.24,0,0,0,11.93.36c2.29-.09,4.58-.13,6.88-.18a10.42,10.42,0,0,1,1.11.12c-.44,2.25-.81,4.43-1.31,6.57a4.35,4.35,0,0,1-3.65,3.44c-1.33.27-2.69.49-4,.65a58.23,58.23,0,0,1-14.57.08,27.83,27.83,0,0,1-7.54-2.05,18.37,18.37,0,0,1-10.86-13.06,36,36,0,0,1,1.49-22.28c3.49-8.64,10-14,18.84-16.63a33.2,33.2,0,0,1,9.63-1.45C258.42,242.58,263.69,242.78,269.1,242.92Z" transform="translate(-7.28 -1.44)"/><path d="M88.17,120.81a15,15,0,1,1,14.91-15A15,15,0,0,1,88.17,120.81Z" transform="translate(-7.28 -1.44)"/><path d="M228.2,22.25a15,15,0,0,1-30-.46,15,15,0,1,1,30,.46Z" transform="translate(-7.28 -1.44)"/><path d="M94.36,172.45a15,15,0,1,1,15,14.94A14.91,14.91,0,0,1,94.36,172.45Z" transform="translate(-7.28 -1.44)"/><path d="M272.8,150.07a15,15,0,1,1,15-14.42A15,15,0,0,1,272.8,150.07Z" transform="translate(-7.28 -1.44)"/><path d="M111.25,69.44a15.12,15.12,0,0,1-15.09,15A14.92,14.92,0,0,1,81.3,69.42a15,15,0,0,1,30,0Z" transform="translate(-7.28 -1.44)"/><path d="M116.13,56.08a15,15,0,0,1-15-14.93,15.22,15.22,0,0,1,15.13-15,15,15,0,0,1,14.81,15.15A14.78,14.78,0,0,1,116.13,56.08Z" transform="translate(-7.28 -1.44)"/><path d="M203.2,220.52a14.85,14.85,0,0,1-15-14.86,15.33,15.33,0,0,1,15-15.08,15.14,15.14,0,0,1,15,15.28A14.68,14.68,0,0,1,203.2,220.52Z" transform="translate(-7.28 -1.44)"/><path d="M227.14,39.52a14.72,14.72,0,0,1,14.63-14.83,15,15,0,0,1,15.32,14.86c.06,8-6.93,15.14-15,15.1A15.09,15.09,0,0,1,227.14,39.52Z" transform="translate(-7.28 -1.44)"/><path d="M259.69,99a14.79,14.79,0,0,1,14.8-14.78,15,15,0,0,1,15.07,14.82,14.94,14.94,0,1,1-29.87,0Z" transform="translate(-7.28 -1.44)"/><path d="M236.32,205.62a14.8,14.8,0,0,1-14.89-15.45,15,15,0,1,1,29.95,1.25A14.88,14.88,0,0,1,236.32,205.62Z" transform="translate(-7.28 -1.44)"/><path d="M77.21,140.79a15,15,0,0,1,29.93,0,15,15,0,1,1-29.93,0Z" transform="translate(-7.28 -1.44)"/><path d="M145.24,39A14.88,14.88,0,0,1,130.38,24,14.81,14.81,0,0,1,145.11,9a15.11,15.11,0,0,1,15.15,14.84A15.16,15.16,0,0,1,145.24,39Z" transform="translate(-7.28 -1.44)"/><path d="M244.83,166.83A14.7,14.7,0,0,1,259.5,152a14.92,14.92,0,0,1,15.24,14.8A15.33,15.33,0,0,1,259.79,182,15,15,0,0,1,244.83,166.83Z" transform="translate(-7.28 -1.44)"/><path d="M279.89,65.68a15,15,0,0,1-15.06,15,15.22,15.22,0,0,1-14.74-15.14,14.83,14.83,0,0,1,15-14.79A14.55,14.55,0,0,1,279.89,65.68Z" transform="translate(-7.28 -1.44)"/><path d="M135.08,209.44a15,15,0,1,1,15-15A14.94,14.94,0,0,1,135.08,209.44Z" transform="translate(-7.28 -1.44)"/><path d="M167.79,221.52a14.91,14.91,0,1,1,14.89-14.9A14.88,14.88,0,0,1,167.79,221.52Z" transform="translate(-7.28 -1.44)"/><path d="M202,182.83a11.73,11.73,0,1,1-.4-23.46,11.74,11.74,0,1,1,.4,23.46Z" transform="translate(-7.28 -1.44)"/><path d="M119.78,129.47a11.84,11.84,0,1,1,11.87-11.94A11.83,11.83,0,0,1,119.78,129.47Z" transform="translate(-7.28 -1.44)"/><path d="M216.12,71.34a11.77,11.77,0,1,1,12-11.33A11.68,11.68,0,0,1,216.12,71.34Z" transform="translate(-7.28 -1.44)"/><path d="M162.93,173.38a11.8,11.8,0,1,1,11.64,11.89C168.37,185.25,162.74,179.71,162.93,173.38Z" transform="translate(-7.28 -1.44)"/><path d="M165,63.53a11.8,11.8,0,1,1,0-23.59,11.8,11.8,0,1,1,0,23.59Z" transform="translate(-7.28 -1.44)"/><path d="M251.58,135a11.68,11.68,0,0,1-11.7,11.76c-6.51,0-12-5.38-12-11.69a12.06,12.06,0,0,1,11.94-11.91A11.75,11.75,0,0,1,251.58,135Z" transform="translate(-7.28 -1.44)"/><path d="M236.36,156.73a11.79,11.79,0,0,1-11.76,11.76,11.94,11.94,0,0,1-11.92-11.9,11.76,11.76,0,0,1,12-11.62A11.64,11.64,0,0,1,236.36,156.73Z" transform="translate(-7.28 -1.44)"/><path d="M125.34,99a12.07,12.07,0,0,1-11.88-11.86,11.9,11.9,0,0,1,11.76-11.79A11.83,11.83,0,1,1,125.34,99Z" transform="translate(-7.28 -1.44)"/><path d="M180.36,49.17a11.79,11.79,0,1,1,23.57,0A11.78,11.78,0,0,1,192.05,61,11.65,11.65,0,0,1,180.36,49.17Z" transform="translate(-7.28 -1.44)"/><path d="M140.61,51.39A11.72,11.72,0,1,1,128.9,63.52,11.45,11.45,0,0,1,140.61,51.39Z" transform="translate(-7.28 -1.44)"/><path d="M248.26,80.15A11.8,11.8,0,1,1,236.5,68.47,11.76,11.76,0,0,1,248.26,80.15Z" transform="translate(-7.28 -1.44)"/><path d="M243.38,95.65a11.76,11.76,0,0,1,11.74,11.88,11.55,11.55,0,0,1-11.65,11.64,11.76,11.76,0,1,1-.09-23.52Z" transform="translate(-7.28 -1.44)"/><path d="M116.58,145.22a11.51,11.51,0,0,1,11.57-11.68,11.7,11.7,0,1,1-11.57,11.68Z" transform="translate(-7.28 -1.44)"/><path d="M147.68,175.44a11.72,11.72,0,1,1,11.55-11.91A11.68,11.68,0,0,1,147.68,175.44Z" transform="translate(-7.28 -1.44)"/><path d="M169.76,158a8.93,8.93,0,1,1,9.06-8.87A9.21,9.21,0,0,1,169.76,158Z" transform="translate(-7.28 -1.44)"/><path d="M193.6,80.08a8.77,8.77,0,0,1,8.85-8.88,8.93,8.93,0,0,1,9,9,8.78,8.78,0,0,1-8.9,8.86A8.7,8.7,0,0,1,193.6,80.08Z" transform="translate(-7.28 -1.44)"/><path d="M208.84,129.94a8.73,8.73,0,0,1,8.94,8.66,8.93,8.93,0,1,1-17.86.15A8.74,8.74,0,0,1,208.84,129.94Z" transform="translate(-7.28 -1.44)"/><path d="M182.88,81.58a8.57,8.57,0,0,1-8.76-8.81,8.88,8.88,0,0,1,8.82-9,9.05,9.05,0,0,1,9,9.12A8.73,8.73,0,0,1,182.88,81.58Z" transform="translate(-7.28 -1.44)"/><path d="M225.06,97.41a8.74,8.74,0,0,1-8.9,8.85,9,9,0,0,1-8.95-9,8.92,8.92,0,0,1,9.07-8.77A8.71,8.71,0,0,1,225.06,97.41Z" transform="translate(-7.28 -1.44)"/><path d="M150.38,84.33a8.71,8.71,0,0,1,8.92,8.79,8.94,8.94,0,0,1-9,9,8.85,8.85,0,0,1-8.83-8.94A8.66,8.66,0,0,1,150.38,84.33Z" transform="translate(-7.28 -1.44)"/><path d="M164,86.48a8.67,8.67,0,0,1-8.93-8.78,9,9,0,0,1,8.94-9,8.89,8.89,0,0,1,8.83,9A8.64,8.64,0,0,1,164,86.48Z" transform="translate(-7.28 -1.44)"/><path d="M215.88,127A8.71,8.71,0,0,1,207,118.2a8.9,8.9,0,1,1,17.8,0A8.69,8.69,0,0,1,215.88,127Z" transform="translate(-7.28 -1.44)"/><path d="M190.4,140.54a8.89,8.89,0,1,1-8.88,8.88A8.89,8.89,0,0,1,190.4,140.54Z" transform="translate(-7.28 -1.44)"/><path d="M152.32,144a8.86,8.86,0,1,1,8.87-8.91A8.8,8.8,0,0,1,152.32,144Z" transform="translate(-7.28 -1.44)"/><path d="M143.83,123.17a8.91,8.91,0,0,1,0-17.81,8.91,8.91,0,0,1,0,17.81Z" transform="translate(-7.28 -1.44)"/><path d="M157.58,116.21a6.66,6.66,0,0,1,6.94-6.52,6.7,6.7,0,1,1-.34,13.39A6.67,6.67,0,0,1,157.58,116.21Z" transform="translate(-7.28 -1.44)"/><path d="M169.76,92a6.5,6.5,0,0,1,6.57,6.69,6.63,6.63,0,1,1-13.25,0A6.52,6.52,0,0,1,169.76,92Z" transform="translate(-7.28 -1.44)"/><path d="M179.63,95.89a6.71,6.71,0,0,1,13.42,0,6.71,6.71,0,1,1-13.42,0Z" transform="translate(-7.28 -1.44)"/><path d="M169.93,130.06a6.62,6.62,0,1,1,6.54,6.74A6.61,6.61,0,0,1,169.93,130.06Z" transform="translate(-7.28 -1.44)"/><path d="M193.65,132.15a6.69,6.69,0,1,1,0-13.38,6.69,6.69,0,0,1,0,13.38Z" transform="translate(-7.28 -1.44)"/><path d="M197.46,115.73a6.65,6.65,0,0,1-.05-13.29,6.87,6.87,0,0,1,6.83,6.71A6.72,6.72,0,0,1,197.46,115.73Z" transform="translate(-7.28 -1.44)"/><path d="M187.05,111.63a5.6,5.6,0,0,1-5.39,5.68,5.63,5.63,0,1,1-.12-11.25A5.59,5.59,0,0,1,187.05,111.63Z" transform="translate(-7.28 -1.44)"/></svg>