<svg id="Capa_1" data-name="Capa 1" xmlns="http://www.w3.org/2000/svg" viewBox="0 0 294 294"><title>patente-tramite</title><path d="M181.2,297A147,147,0,0,1,54.88,225.61h0c-41.67-69.52-19-160,50.51-201.64a147,147,0,0,1,218.14,161.8A146.89,146.89,0,0,1,181.2,297ZM61.89,221.4c39.35,65.65,124.77,87,190.42,47.71A138.81,138.81,0,0,0,214.69,15.4,137.9,137.9,0,0,0,109.6,31C44,70.33,22.55,155.75,61.89,221.4Z" transform="translate(-34 -3)"/><path d="M76.4,142.41q2.56,2.91,2.73,8.45l.2,7.06,12.2-.34.2,7-33.95,1L57.37,151a11.71,11.71,0,0,1,2.4-8.11q2.53-3.08,8-3.23Q73.82,139.51,76.4,142.41Zm-12.08,5.76a5.68,5.68,0,0,0-1,3.81l.18,6.39,10-.28-.18-6.39A5.38,5.38,0,0,0,72,148a5,5,0,0,0-3.91-1.24A4.68,4.68,0,0,0,64.32,148.17Z" transform="translate(-34 -3)"/><path d="M60.89,120.61,63,112.87,99,110.35l-2.06,7.42-7.33.3-3.33,12.05,6.11,4.08-2,7.16Zm20.24,6.09,2.32-8.39-14,.57Z" transform="translate(-34 -3)"/><path d="M83.37,73l5.11,3.18-5.37,8.62,23.72,14.78-3.77,6.06L79.33,90.83l-5.39,8.66-5.11-3.18Z" transform="translate(-34 -3)"/><path d="M114.61,52.16,100.92,63.81l4.68,5.49,12.56-10.69L122,63.1,109.42,73.79l5.66,6.65L129.4,68.26l3.95,4.65-19.6,16.68-22-25.87,19-16.14Z" transform="translate(-34 -3)"/><path d="M123.58,39.76l6.93-2.69,21.15,17.18-8.58-22.07,6.16-2.4,12.3,31.66L154.93,64,133.31,46.56,142,69l-6.16,2.4Z" transform="translate(-34 -3)"/><path d="M188.78,26l.29,6-10.15.49,1.34,27.91-7.13.35L171.78,32.8l-10.19.49-.29-6Z" transform="translate(-34 -3)"/><path d="M223.65,39.75l-17.38-4.6-1.84,7,15.95,4.23-1.51,5.7-16-4.22-2.24,8.44,18.18,4.81L217.29,67l-24.88-6.59,8.7-32.83,24.08,6.38Z" transform="translate(-34 -3)"/><path d="M277.8,82.19,265.94,68.68l-5.42,4.76,10.88,12.4L267,89.73l-10.88-12.4-6.57,5.76,12.41,14.13-4.59,4-17-19.34L265.89,59.5l16.43,18.72Z" transform="translate(-34 -3)"/><path d="M290.32,90.93l2.8,6.89-16.85,21.42,21.94-8.93,2.49,6.12-31.46,12.81-2.67-6.57,17.1-21.9-22.32,9.09-2.49-6.12Z" transform="translate(-34 -3)"/><path d="M299.16,188.62l-5.89-1.21,2.05-10L268,171.81l1.44-7,27.37,5.65,2.06-10,5.9,1.22Z" transform="translate(-34 -3)"/><path d="M283,218.77a8.45,8.45,0,0,1-3.64,1.56,10.63,10.63,0,0,1-3.33,0,9.52,9.52,0,0,1-3.41-1.25,10.18,10.18,0,0,1-3.5-3.44,6.8,6.8,0,0,1-.85-5.15,6.36,6.36,0,0,1-4,1.54,11.14,11.14,0,0,1-5.08-1.82l-2-1.14a17,17,0,0,0-2.82-1.42,2.83,2.83,0,0,0-2.34.17l-.73-.43,3.92-6.78c.76.19,1.36.36,1.81.51a16.45,16.45,0,0,1,2.68,1.21l2.76,1.54c1.89,1.06,3.32,1.46,4.31,1.2s2-1.25,3-3l3.47-6-11.52-6.68,3.48-6,29.39,17-8.15,14.06A14.68,14.68,0,0,1,283,218.77Zm3-15.21-7.9-4.58-3.83,6.61a8.14,8.14,0,0,0-1.23,3.23c-.11,1.49.65,2.71,2.3,3.66s3.3,1.17,4.57.4a7,7,0,0,0,2.16-2.54Z" transform="translate(-34 -3)"/><path d="M263.11,242.41,257,247.56l-31-18.35,5.9-4.93,6.2,3.92,9.59-8-2.71-6.83,5.7-4.76ZM249.92,225.9l-6.68,5.58,11.87,7.5Zm10.27,31.47,1-9.78,3.64-3,1,8.12Z" transform="translate(-34 -3)"/><path d="M213.38,270.1l-2.21-5.59,9.45-3.73-10.25-26,6.64-2.62,10.26,26,9.49-3.75L239,260Z" transform="translate(-34 -3)"/><path d="M191.84,239.06l7-1.12,5.41,33.53-7,1.12Z" transform="translate(-34 -3)"/><path d="M161.31,272.2l-10.16-1.09,3.64-33.77,6.57.71-2.46,22.84c-.07.65-.17,1.57-.32,2.76s-.24,2.09-.31,2.73l9.45-27.65,6.85.74,3.31,29c.07-.64.16-1.55.27-2.74s.2-2.1.27-2.76l2.46-22.84,6.58.71-3.64,33.77-10.27-1.11-3.28-27.21Z" transform="translate(-34 -3)"/><path d="M114.15,254.94l2.65-5.4,9.12,4.46,12.28-25.1,6.42,3.13-12.28,25.11,9.17,4.49-2.64,5.4Z" transform="translate(-34 -3)"/><path d="M90.27,225.94l13,12.45,5-5.2-11.9-11.43,4.08-4.25,11.9,11.42,6-6.3-13.56-13,4.22-4.4L127.59,223l-23.52,24.5-18-17.25Z" transform="translate(-34 -3)"/><path d="M181.1,232.82a83.31,83.31,0,0,1-20.25-2.51A82.2,82.2,0,0,1,110,192.58h0a82.66,82.66,0,1,1,71.12,40.24ZM117,188.38a74.57,74.57,0,1,0-8.37-56.45A74.09,74.09,0,0,0,117,188.38Z" transform="translate(-34 -3)"/><circle cx="47.6" cy="187.41" r="6.41"/><path d="M154.32,189l-7.23,4.34L126.2,158.45l7.23-4.33Z" transform="translate(-34 -3)"/><path d="M163.36,136.18l10.48-6.28,20.89,34.85L188,168.82l-14.13-23.58c-.41-.67-1-1.63-1.69-2.86s-1.27-2.18-1.67-2.84l10.93,33.21L174.31,177l-24.09-25.32c.4.66,1,1.6,1.72,2.81s1.33,2.16,1.73,2.84l14.13,23.57L161,185l-20.89-34.85,10.6-6.35,22.77,23.6Z" transform="translate(-34 -3)"/><path d="M215.83,131.6q-1.53,4.4-7.21,7.8l-7.26,4.34,7.51,12.54-7.23,4.33-20.89-34.85,15-9q5.17-3.11,9.87-2.25t8.08,6.5Q217.37,127.22,215.83,131.6Zm-13.09-9.22a6.88,6.88,0,0,0-4.57,1.16l-6.56,3.94,6.15,10.26,6.56-3.93a6.48,6.48,0,0,0,3.13-3.58,6,6,0,0,0-1-4.8Q204.83,122.72,202.74,122.38Z" transform="translate(-34 -3)"/><path d="M240.41,137.37l-7.23,4.34-20.89-34.85,7.24-4.34Z" transform="translate(-34 -3)"/></svg>