<svg id="Capa_1" data-name="Capa 1" xmlns="http://www.w3.org/2000/svg" viewBox="0 0 246.67 296"><title>precio-historico</title><circle cx="123.33" cy="128.27" r="4.93"/><circle cx="138.13" cy="118.4" r="4.93"/><circle cx="108.53" cy="118.4" r="4.93"/><circle cx="93.73" cy="108.53" r="4.93"/><circle cx="152.93" cy="108.53" r="4.93"/><circle cx="167.73" cy="98.67" r="4.93"/><circle cx="78.93" cy="98.67" r="4.93"/><circle cx="123.33" cy="108.53" r="4.93"/><circle cx="123.33" cy="167.73" r="4.93"/><circle cx="123.33" cy="182.53" r="4.93"/><circle cx="123.33" cy="197.33" r="4.93"/><circle cx="123.33" cy="212.13" r="4.93"/><circle cx="123.33" cy="226.93" r="4.93"/><circle cx="123.33" cy="241.73" r="4.93"/><path d="M268.4,288.13H253.6V268.4H228.93V218a39.69,39.69,0,0,0-17.7-33.08L158.89,150l52.34-34.89A39.69,39.69,0,0,0,228.93,82V31.6H253.6V11.87h14.8a4.94,4.94,0,0,0,0-9.87H31.6a4.94,4.94,0,0,0,0,9.87H46.4V31.6H71.07V82a39.69,39.69,0,0,0,17.7,33.08L141.11,150,88.77,184.89A39.69,39.69,0,0,0,71.07,218V268.4H46.4v19.73H31.6a4.94,4.94,0,0,0,0,9.87H268.4a4.94,4.94,0,0,0,0-9.87ZM56.27,21.73V11.87H243.73v9.86H56.27Zm38,85.17A29.85,29.85,0,0,1,80.93,82V31.6H219.07V82a29.85,29.85,0,0,1-13.31,24.87L150,144.07ZM80.93,218A29.85,29.85,0,0,1,94.24,193.1L150,155.93l55.76,37.17A29.85,29.85,0,0,1,219.07,218V268.4H80.93Zm-24.66,60.3H243.73v9.86H56.27Z" transform="translate(-26.67 -2)"/></svg>