<svg id="Capa_1" data-name="Capa 1" xmlns="http://www.w3.org/2000/svg" viewBox="0 0 294.75 284"><title>puntaje-desarrollo</title><path d="M279.54,125.92H221.15a5.36,5.36,0,0,0,0,10.72h48.76l15.53,144.65H14.78L33,136.64H81.86a5.36,5.36,0,0,0,0-10.72H23.56L2.63,292H297.37Z" transform="translate(-2.63 -8)"/><path d="M145.42,211.4c-.79.46-1.63.88-2.38,1.36-1.18.77-2.33,1.56-3.46,2.39a5.36,5.36,0,0,0,6.34,8.64c1-.7,1.92-1.38,2.94-2a58.48,58.48,0,0,1,5.43-3.11,5.32,5.32,0,0,0,2.47-6.8l.14-.12c9.69-10.26,42.35-48.73,55.87-112.82a110,110,0,0,0,1.83-37.06C210,26.62,188.11,8,151.32,8S92.65,26.62,88,61.85a110.05,110.05,0,0,0,1.84,37.06C103.25,162.38,135.4,200.69,145.42,211.4ZM98.65,63.25c3.93-30,21.16-44.53,52.67-44.53S200.06,33.29,204,63.25a99.46,99.46,0,0,1-1.69,33.46c-12.16,57.61-41.14,94.16-51,105.25-9.84-11.1-38.82-47.67-51-105.25A99.73,99.73,0,0,1,98.65,63.25Z" transform="translate(-2.63 -8)"/><path d="M151.32,109.38A39.36,39.36,0,1,0,112,70,39.4,39.4,0,0,0,151.32,109.38Zm0-68A28.64,28.64,0,1,1,122.68,70,28.67,28.67,0,0,1,151.32,41.39Z" transform="translate(-2.63 -8)"/><path d="M171,201.77a5.35,5.35,0,0,0,1.11,10.59,4.88,4.88,0,0,0,1.13-.12c3.14-.66,6.54-1.22,10.1-1.67A5.36,5.36,0,1,0,182,199.94C178.15,200.42,174.44,201,171,201.77Z" transform="translate(-2.63 -8)"/><path d="M198.7,203.94a5.36,5.36,0,0,0,5.35,5.13h.23l10.72-.44a5.36,5.36,0,0,0,5.11-5.6,5.49,5.49,0,0,0-5.59-5.11l-10.7.45A5.35,5.35,0,0,0,198.7,203.94Z" transform="translate(-2.63 -8)"/><path d="M122.81,228.59c-2.76,2.08-5.6,4.08-8.47,5.93a5.36,5.36,0,0,0,5.84,9c3.07-2,6.13-4.14,9.08-6.36a5.36,5.36,0,0,0-6.45-8.56Z" transform="translate(-2.63 -8)"/><path d="M242.21,193.26a19.12,19.12,0,0,1-7.21,2.82,5.36,5.36,0,0,0,1.08,10.61,5.84,5.84,0,0,0,1.09-.11A29.61,29.61,0,0,0,248.4,202l.71-.53a5.35,5.35,0,0,0-6.46-8.54Z" transform="translate(-2.63 -8)"/><path d="M50.09,235.15a5.35,5.35,0,1,0-10.34-2.79,36.14,36.14,0,0,0-1.2,7.52c0,.62,0,1.24,0,1.89,0,1,.06,2.1.16,3.15A5.35,5.35,0,0,0,44,249.73l.55,0a5.37,5.37,0,0,0,4.79-5.87c-.08-.71-.1-1.42-.11-2.09,0-.45,0-.89,0-1.33A24.71,24.71,0,0,1,50.09,235.15Z" transform="translate(-2.63 -8)"/><path d="M242.09,151.62a31.45,31.45,0,0,0-12.78,1,5.36,5.36,0,0,0,1.45,10.51,5.24,5.24,0,0,0,1.46-.2,21,21,0,0,1,8.43-.66,5.36,5.36,0,1,0,1.44-10.62Z" transform="translate(-2.63 -8)"/><path d="M252.75,178.16A5.35,5.35,0,1,0,263,181.32a22.59,22.59,0,0,0,1-5.16c0-.44.05-.89.05-1.34a21.24,21.24,0,0,0-1.37-7.45,5.35,5.35,0,1,0-10,3.72,10.73,10.73,0,0,1,.69,3.73v.62A12.43,12.43,0,0,1,252.75,178.16Z" transform="translate(-2.63 -8)"/><path d="M96.28,244.59c-3.14,1.48-6.34,2.84-9.51,4.07A5.36,5.36,0,0,0,88.71,259a5.43,5.43,0,0,0,1.93-.35c3.4-1.32,6.83-2.78,10.19-4.36a5.36,5.36,0,0,0-4.55-9.71Z" transform="translate(-2.63 -8)"/><path d="M57.28,222.29a5.41,5.41,0,0,0,2.56-.65,13.08,13.08,0,0,1,4.88-1.55,8.3,8.3,0,0,1,2.17,0,5.36,5.36,0,0,0,1.41-10.62,19.62,19.62,0,0,0-4.78,0,23.65,23.65,0,0,0-8.81,2.79,5.36,5.36,0,0,0,2.57,10.06Z" transform="translate(-2.63 -8)"/><path d="M56.16,264.3a26.76,26.76,0,0,0,3.51.66,33.38,33.38,0,0,0,4.12.25,38.62,38.62,0,0,0,5-.33,5.36,5.36,0,1,0-1.34-10.63,26.27,26.27,0,0,1-6.51.08,16.7,16.7,0,0,1-2.11-.4,5.36,5.36,0,1,0-2.7,10.37Z" transform="translate(-2.63 -8)"/></svg>