<svg id="Capa_1" data-name="Capa 1" xmlns="http://www.w3.org/2000/svg" viewBox="0 0 227.16 296"><title>seguros-online</title><path d="M47.17,2A10.58,10.58,0,0,0,36.42,12.33V287.67A10.58,10.58,0,0,0,47.17,298H252.83a10.58,10.58,0,0,0,10.75-10.33V12.33A10.58,10.58,0,0,0,252.83,2Zm0,6.88H252.83a3.59,3.59,0,0,1,3.87,3.45V287.67a3.59,3.59,0,0,1-3.87,3.45H47.17a3.59,3.59,0,0,1-3.87-3.45V12.33A3.59,3.59,0,0,1,47.17,8.88ZM101.81,43.3a3.44,3.44,0,0,0-3.44,3.44v7.1A25.18,25.18,0,0,0,85,59a19.54,19.54,0,0,0-7.09,15.28A16.33,16.33,0,0,0,86,88.58c4.49,2.75,9.72,4.11,14.52,6,7.87,2.87,18.29,6,18.4,14.09a12,12,0,0,1-4.74,9.78,19.46,19.46,0,0,1-12.37,4,21.09,21.09,0,0,1-17.64-9.89A3.47,3.47,0,0,0,79.33,111a3.64,3.64,0,0,0-.86,5.17,27.42,27.42,0,0,0,20,12.9c0,.12-.11.21-.11.33v6.88a3.45,3.45,0,0,0,6.89,0v-7.1a25.39,25.39,0,0,0,13.33-5.27,19.28,19.28,0,0,0,7.1-15.16,16.51,16.51,0,0,0-8.06-14.41c-4.49-2.76-9.72-4.12-14.53-6-7.81-2.86-18.28-6-18.39-14a12.28,12.28,0,0,1,4.73-9.9c3-2.41,7.27-3.87,12.37-3.87a21,21,0,0,1,17.64,9.79,3.46,3.46,0,0,0,4.84,1.61,3.63,3.63,0,0,0,.86-5.16,27.23,27.23,0,0,0-20-12.8c0-.12.11-.2.11-.32V46.74A3.45,3.45,0,0,0,101.81,43.3Zm55.07,27.54a3.44,3.44,0,0,0,0,6.88h62a3.44,3.44,0,0,0,0-6.88Zm0,37.86a3.44,3.44,0,0,0,0,6.88h62a3.44,3.44,0,0,0,0-6.88ZM81.16,146.56a3.44,3.44,0,0,0,0,6.88H218.84a3.44,3.44,0,1,0,0-6.88Zm0,37.86a3.44,3.44,0,0,0,0,6.88H218.84a3.44,3.44,0,0,0,0-6.88Zm78.52,31a3.49,3.49,0,0,0-2.58,2l-16.57,39.8-12,3a3.44,3.44,0,1,0,1.72,6.67L144,263.47a3.47,3.47,0,0,0,2.36-2l13.77-33.13,10.76,29.58c.92,2.44,5,2.72,6.23.43L191,233.36l11,24.74a3.56,3.56,0,0,0,4,1.93l13.77-3.44a3.44,3.44,0,0,0-1.72-6.67l-11,2.69-12.59-28.29c-1-2.31-4.87-2.51-6.13-.32l-13.55,24.42-11.19-30.77c-1-2.06-2.39-2.5-3.87-2.26Z" transform="translate(-36.42 -2)"/></svg>