<svg id="Capa_1" data-name="Capa 1" xmlns="http://www.w3.org/2000/svg" viewBox="0 0 298.05 298"><title>valoriza-cartera</title><path d="M111.9,1a83.17,83.17,0,1,0,83.17,83.17A83.23,83.23,0,0,0,111.9,1Zm0,6.93A76.24,76.24,0,1,1,35.66,84.17,76.19,76.19,0,0,1,111.9,7.93Zm0,27.72a3.47,3.47,0,0,0-3.47,3.47v7.14A25.26,25.26,0,0,0,95,51.46a19.64,19.64,0,0,0-7.15,15.38A16.44,16.44,0,0,0,96,81.24c4.52,2.77,9.79,4.14,14.62,6.07,7.92,2.89,18.41,6.08,18.52,14.18a12.14,12.14,0,0,1-4.77,9.86,19.62,19.62,0,0,1-12.45,4,21.22,21.22,0,0,1-17.76-10,3.48,3.48,0,0,0-4.87-1.62A3.64,3.64,0,0,0,88.4,109a27.61,27.61,0,0,0,20.14,13c0,.12-.11.2-.11.32v6.94a3.47,3.47,0,0,0,6.93,0v-6.94a1.47,1.47,0,0,0,0-.21,25.56,25.56,0,0,0,13.43-5.31,19.41,19.41,0,0,0,7.15-15.27A16.64,16.64,0,0,0,127.82,87c-4.52-2.77-9.79-4.14-14.62-6.06C105.33,78,94.79,74.84,94.68,66.84a12.32,12.32,0,0,1,4.77-10c3-2.43,7.31-3.9,12.45-3.9a21.14,21.14,0,0,1,17.76,9.85,3.47,3.47,0,0,0,4.87,1.63,3.66,3.66,0,0,0,.87-5.2,27.45,27.45,0,0,0-20.14-12.89c0-.11.1-.2.1-.32V39.12A3.46,3.46,0,0,0,111.9,35.65ZM233.19,105a3.48,3.48,0,1,0,0,6.93h53.92l-116.3,116.3L125.54,183v-.11l-.1-.22a3.62,3.62,0,0,0-5.53-.65L2.09,293a3.49,3.49,0,0,0,4.74,5.12l0,0L122.19,189.43l45.59,45.48a3.49,3.49,0,0,0,4.77,1.25,4,4,0,0,0,.75-.6l118.8-118.8v54a3.47,3.47,0,1,0,6.93,0V108.42a3.6,3.6,0,0,0-3.47-3.46Z" transform="translate(-0.97 -1)"/></svg>