<svg id="Capa_1" data-name="Capa 1" xmlns="http://www.w3.org/2000/svg" viewBox="0 0 297.8 158"><title>analizar</title><path d="M167.35,145.52H4.22a3.12,3.12,0,0,1-2-5.51L83.78,71.73a3.13,3.13,0,0,1,4,0L150.27,124a3.12,3.12,0,0,1-4,4.79L85.79,78.2l-73,61.08H167.35a3.12,3.12,0,1,1,0,6.24Z" transform="translate(-1.1 -71)"/><path d="M150.28,229H23.19a3.13,3.13,0,0,1-3.12-3.13V142.41a3.12,3.12,0,0,1,3.12-3.12H150.28a3.13,3.13,0,0,1,3.13,3.12v83.46A3.13,3.13,0,0,1,150.28,229Zm-124-6.25H147.16V145.54H26.31Z" transform="translate(-1.1 -71)"/><path d="M104.43,229H69a3.13,3.13,0,0,1-3.12-3.13V169.94A3.12,3.12,0,0,1,69,166.82h35.39a3.13,3.13,0,0,1,3.13,3.12v55.93A3.13,3.13,0,0,1,104.43,229Zm-32.26-6.25h29.14V173.07H72.17Z" transform="translate(-1.1 -71)"/><path d="M295.78,145.54H132.65a3.13,3.13,0,0,1-2-5.52L212.2,71.73a3.14,3.14,0,0,1,4,0L297.78,140a3.13,3.13,0,0,1-2,5.52Zm-154.54-6.25H287.18l-73-61.09Z" transform="translate(-1.1 -71)"/><path d="M278.7,229H151.61a3.13,3.13,0,0,1-3.12-3.13V142.41a3.12,3.12,0,0,1,3.12-3.12H278.7a3.13,3.13,0,0,1,3.13,3.12v83.46A3.13,3.13,0,0,1,278.7,229Zm-124-6.25H275.58V145.54H154.74Z" transform="translate(-1.1 -71)"/><path d="M232.85,229H197.46a3.13,3.13,0,0,1-3.12-3.13V169.94a3.12,3.12,0,0,1,3.12-3.12h35.39a3.13,3.13,0,0,1,3.13,3.12v55.93A3.13,3.13,0,0,1,232.85,229Zm-32.26-6.25h29.14V173.07H200.59Z" transform="translate(-1.1 -71)"/></svg>