<svg id="Capa_1" data-name="Capa 1" xmlns="http://www.w3.org/2000/svg" viewBox="0 0 296 241.01"><title>determinar</title><path d="M272.18,240.72H27.81A25.84,25.84,0,0,1,2,214.91V55.3A25.84,25.84,0,0,1,27.81,29.49H272.18A25.85,25.85,0,0,1,298,55.3V214.91A25.85,25.85,0,0,1,272.18,240.72ZM27.81,39.12A16.2,16.2,0,0,0,11.63,55.3V214.91A16.21,16.21,0,0,0,27.81,231.1H272.18a16.21,16.21,0,0,0,16.19-16.19V55.3a16.2,16.2,0,0,0-16.19-16.18Z" transform="translate(-2 -29.49)"/><path d="M291.74,213.18H8.25a4.82,4.82,0,0,1,0-9.63H291.74a4.82,4.82,0,1,1,0,9.63Z" transform="translate(-2 -29.49)"/><path d="M213,270.51H87a4.82,4.82,0,1,1,0-9.63H213a4.82,4.82,0,1,1,0,9.63Z" transform="translate(-2 -29.49)"/><path d="M53.78,174.29a4.82,4.82,0,0,1-3.68-7.92L112,93.05a4.83,4.83,0,0,1,6.69-.65l65.07,52,58.83-69.72a4.81,4.81,0,1,1,7.36,6.21L188,154.25a4.82,4.82,0,0,1-6.69.65l-65.06-52.05L57.46,172.58A4.79,4.79,0,0,1,53.78,174.29Z" transform="translate(-2 -29.49)"/></svg>