<svg id="Capa_1" data-name="Capa 1" xmlns="http://www.w3.org/2000/svg" viewBox="0 0 239 294"><title>evaluar</title><path d="M150,297A119.5,119.5,0,1,1,269.5,177.5,119.64,119.64,0,0,1,150,297Zm0-230A110.5,110.5,0,1,0,260.5,177.5,110.63,110.63,0,0,0,150,67Z" transform="translate(-30.5 -3)"/><path d="M150,262a84.5,84.5,0,1,1,84.5-84.5A84.59,84.59,0,0,1,150,262Zm0-160a75.5,75.5,0,1,0,75.5,75.5A75.59,75.59,0,0,0,150,102Z" transform="translate(-30.5 -3)"/><path d="M128.72,217.22a4.43,4.43,0,0,1-2.64-.86,4.49,4.49,0,0,1-1.64-5l8.07-24.84-21.13-15.35A4.5,4.5,0,0,1,114,163h26.12l8.07-24.84a4.5,4.5,0,0,1,8.56,0L164.85,163H191a4.5,4.5,0,0,1,2.65,8.14l-21.14,15.35,8.07,24.84a4.5,4.5,0,0,1-6.92,5L152.5,201l-21.13,15.35A4.46,4.46,0,0,1,128.72,217.22ZM127.88,172l12.57,9.13a4.49,4.49,0,0,1,1.63,5l-4.8,14.77,12.57-9.13a4.5,4.5,0,0,1,5.3,0l12.56,9.13-4.8-14.77a4.52,4.52,0,0,1,1.63-5L177.12,172H161.58a4.5,4.5,0,0,1-4.28-3.11l-4.8-14.78-4.81,14.78a4.49,4.49,0,0,1-4.27,3.11Z" transform="translate(-30.5 -3)"/><path d="M215,87.15a4.5,4.5,0,0,1-4.5-4.5V12H89.5V82.65a4.5,4.5,0,0,1-9,0V7.5A4.49,4.49,0,0,1,85,3H215a4.5,4.5,0,0,1,4.5,4.5V82.65A4.51,4.51,0,0,1,215,87.15Z" transform="translate(-30.5 -3)"/></svg>