<svg id="Capa_1" data-name="Capa 1" xmlns="http://www.w3.org/2000/svg" viewBox="0 0 292 150.88"><title>identificar</title><path d="M150,225.44c-79.21,0-142.11-69.23-144.75-72.18a4.87,4.87,0,0,1,0-6.52c2.64-3,65.54-72.18,144.75-72.18s142.12,69.23,144.76,72.18a4.91,4.91,0,0,1,0,6.52C292.12,156.21,229.21,225.44,150,225.44ZM15.64,150C29.12,163.67,84.72,215.67,150,215.67s120.89-52,134.36-65.67C270.88,136.33,215.28,84.33,150,84.33S29.11,136.32,15.64,150Z" transform="translate(-4 -74.56)"/><path d="M150,225.44A75.44,75.44,0,1,1,225.44,150,75.52,75.52,0,0,1,150,225.44Zm0-141.11A65.67,65.67,0,1,0,215.67,150,65.75,65.75,0,0,0,150,84.33Z" transform="translate(-4 -74.56)"/><path d="M150,176.59A26.59,26.59,0,1,1,176.6,150,26.62,26.62,0,0,1,150,176.59Zm0-43.42A16.83,16.83,0,1,0,166.82,150,16.85,16.85,0,0,0,150,133.17Z" transform="translate(-4 -74.56)"/></svg>