<svg id="Capa_1" data-name="Capa 1" xmlns="http://www.w3.org/2000/svg" viewBox="0 0 238.47 294"><title>recomendar</title><path d="M218.68,297c-6.8,0-66.75-.09-78.72-3.08C97.2,283.23,35.6,270.72,35,270.59a5.26,5.26,0,1,1,2.09-10.31c.62.13,62.45,12.68,105.44,23.43,8.11,2,50,2.76,76.17,2.76,1,0,10.81-.87,10.81-18.11,0-11.86-10.6-14.73-12.77-15.2H182.15a5.26,5.26,0,1,1,0-10.52h46.76c11.92,0,12.27-11,12.27-12.27,0-17.92-11.77-18.12-12.27-18.12H199.68a5.26,5.26,0,0,1,0-10.52h40.91c1.84,0,18.12-.69,18.12-18.12s-16.25-18.1-18.14-18.12H199.68a5.26,5.26,0,1,1,0-10.52H245.9c2.31-.56,12.81-4,12.81-21,0-11.86-10.6-14.74-12.77-15.2H135.39a5.26,5.26,0,1,1,0-10.52H246.44a5.1,5.1,0,0,1,.87.07c7.58,1.26,21.93,8.25,21.93,25.65,0,13.42-5.34,21.71-11.22,26.43,6.21,4.27,11.22,11.53,11.22,23.25,0,18.52-12.53,25.9-22.51,28,3,4.36,5,10.44,5,18.79,0,8-4.63,19.4-16.93,22.17A24.79,24.79,0,0,1,240,268.36C240,291,226.06,297,218.68,297Z" transform="translate(-30.76 -3)"/><path d="M41.87,159.64a5.25,5.25,0,0,1-4.23-8.38c.5-.68,50.22-68.14,57.66-92,1.51-4.84,1.12-11.9.75-18.73a110.19,110.19,0,0,1-.18-13.91C96.68,16.12,97.68,3,117.85,3c19.67,0,24.81,16,27.58,24.56l.77,2.35c3.44,9.89,6.14,26.06,6.14,36.8,0,18.34-11.58,47.48-12.07,48.71a5.26,5.26,0,0,1-9.77-3.9c.12-.29,11.31-28.5,11.31-44.81,0-9.58-2.48-24.54-5.55-33.34-.27-.79-.55-1.66-.85-2.59C132.26,21,129,13.52,117.85,13.52c-10.07,0-10.61,2.43-11.49,13.94a101.39,101.39,0,0,0,.2,12.54c.42,7.76.86,15.79-1.22,22.43-8,25.51-57.15,92.25-59.24,95.08A5.23,5.23,0,0,1,41.87,159.64Z" transform="translate(-30.76 -3)"/></svg>