<svg id="Capa_1" data-name="Capa 1" xmlns="http://www.w3.org/2000/svg" viewBox="0 0 295.85 250"><title>revalorizaºr</title><path d="M212.16,133.35a4,4,0,0,0-4,4v8.23a29.1,29.1,0,0,0-15.47,6,22.67,22.67,0,0,0-8.23,17.72,18.94,18.94,0,0,0,9.35,16.59c5.21,3.19,11.28,4.77,16.85,7,9.12,3.33,21.21,7,21.33,16.35a14,14,0,0,1-5.49,11.35,22.62,22.62,0,0,1-14.35,4.62,24.47,24.47,0,0,1-20.46-11.48,4,4,0,0,0-5.61-1.87,4.2,4.2,0,0,0-1,6,31.8,31.8,0,0,0,23.21,15c0,.13-.13.23-.13.37v8a4,4,0,1,0,8,0V232.9a29.42,29.42,0,0,0,15.46-6.11,22.39,22.39,0,0,0,8.24-17.59,19.16,19.16,0,0,0-9.36-16.72c-5.2-3.19-11.27-4.77-16.84-7-9.07-3.33-21.21-7-21.33-16.22a14.21,14.21,0,0,1,5.49-11.48c3.43-2.8,8.42-4.49,14.34-4.49a24.37,24.37,0,0,1,20.46,11.35,4,4,0,0,0,5.62,1.87,4.2,4.2,0,0,0,1-6A31.57,31.57,0,0,0,216,145.7c0-.14.12-.24.12-.37v-8A4,4,0,0,0,212.16,133.35Z" transform="translate(-2.07 -25)"/><path d="M212.16,275a85.76,85.76,0,1,1,85.77-85.76A85.86,85.86,0,0,1,212.16,275Zm0-162.39a76.63,76.63,0,1,0,76.63,76.63A76.71,76.71,0,0,0,212.16,112.61Z" transform="translate(-2.07 -25)"/><path d="M87.83,170.4H54.57c-26.13,0-52.5-14.58-52.5-47.14C2.07,86.22,30.65,73,57.39,73H179.18a4.56,4.56,0,0,1,3.41,7.6L142,126.29a4.57,4.57,0,1,1-6.83-6.07L169,82.15H57.39c-13.89,0-46.18,4-46.18,41.11,0,28.05,23.36,38,43.36,38H87.83a4.57,4.57,0,1,1,0,9.14Z" transform="translate(-2.07 -25)"/><path d="M179.18,82.15a4.56,4.56,0,0,1-3.24-1.34l-47.89-48a4.57,4.57,0,0,1,6.47-6.46l47.89,48a4.56,4.56,0,0,1-3.23,7.79Z" transform="translate(-2.07 -25)"/></svg>