<svg id="Capa_1" data-name="Capa 1" xmlns="http://www.w3.org/2000/svg" viewBox="0 0 254.27 296"><title>trasladar</title><path d="M249,298a4,4,0,0,1-3.86-4.86c.14-.59,13.94-60.14,22-92.45,1.53-6.11,2.08-37.63,2.08-57.33,0-.77-.65-8.13-13.63-8.13-8.92,0-11.09,8-11.44,9.61v26a4,4,0,1,1-7.92,0V135.67c0-9-8.29-9.24-9.24-9.24-13.48,0-13.63,8.86-13.63,9.24v22a4,4,0,0,1-7.92,0V126.87c0-1.38-.52-13.64-13.64-13.64s-13.62,12.24-13.63,13.65v30.78a4,4,0,0,1-7.93,0V61.29c-.41-1.74-3-9.65-15.83-9.65-8.92,0-11.09,8-11.44,9.62v127.2a4,4,0,0,1-7.32,2.09l-22-35.19c-1.05-1.52-7.12-9.41-16.44-3.2-8.14,5.42-5.63,12.32,3,29.21.88,1.72,1.79,3.5,2.7,5.32,9,17.94,13.57,27.33,20,44.37s36.63,60.27,36.93,60.7a4,4,0,1,1-6.49,4.55c-1.26-1.82-31.15-44.61-37.85-62.47-6.25-16.67-10.78-25.92-19.63-43.61-.9-1.8-1.8-3.54-2.67-5.25-7.8-15.2-15.17-29.56-.39-39.41,6.64-4.42,13.78-4.86,20.11-1.24a23.51,23.51,0,0,1,7.38,6.74L135,174.65V60.88a3.57,3.57,0,0,1,.06-.65c1-5.71,6.21-16.5,19.3-16.5,16.57,0,22.75,10.79,23.7,16.5a4.76,4.76,0,0,1,.06.65V109.6c3.23-2.56,7.66-4.29,13.63-4.29,13.94,0,19.5,9.43,21.06,16.94,3.28-2.22,7.85-3.74,14.13-3.74,6,0,14.61,3.48,16.69,12.74a18.66,18.66,0,0,1,11.91-3.94c17,0,21.56,10.5,21.56,16.05,0,5.12-.07,50.24-2.32,59.25-8.06,32.24-21.85,91.72-22,92.32A4,4,0,0,1,249,298Z" transform="translate(-22.86 -2)"/><path d="M73,36.31a4,4,0,0,1-4-4V6A4,4,0,1,1,77,6V32.35A4,4,0,0,1,73,36.31Z" transform="translate(-22.86 -2)"/><path d="M86.21,23.12a4,4,0,0,1-2.82-1.18l-13-13.2A4,4,0,1,1,76,3.18L89,16.37A4,4,0,0,1,89,22,3.91,3.91,0,0,1,86.21,23.12Z" transform="translate(-22.86 -2)"/><path d="M60.92,23.12A4,4,0,0,1,58,16.46L70.28,3.26a4,4,0,0,1,5.8,5.39L63.82,21.85A4,4,0,0,1,60.92,23.12Z" transform="translate(-22.86 -2)"/><path d="M73,102.3a4,4,0,0,1-4-4V72A4,4,0,1,1,77,72V98.34A4,4,0,0,1,73,102.3Z" transform="translate(-22.86 -2)"/><path d="M72.85,102.3A3.91,3.91,0,0,1,70,101.12L57,87.92a4,4,0,0,1,5.64-5.56l13,13.2a4,4,0,0,1-2.82,6.74Z" transform="translate(-22.86 -2)"/><path d="M72.85,102.3A4,4,0,0,1,70,95.64L82.21,82.45A4,4,0,1,1,88,87.84L75.75,101A4,4,0,0,1,72.85,102.3Z" transform="translate(-22.86 -2)"/><path d="M72.85,102.3A3.91,3.91,0,0,1,70,101.12L57,87.92a4,4,0,0,1,5.64-5.56l13,13.2a4,4,0,0,1-2.82,6.74Z" transform="translate(-22.86 -2)"/><path d="M72.85,102.3A4,4,0,0,1,70,95.64L82.21,82.45A4,4,0,1,1,88,87.84L75.75,101A4,4,0,0,1,72.85,102.3Z" transform="translate(-22.86 -2)"/><path d="M119.21,56.11H95a4,4,0,0,1,0-7.92h24.2a4,4,0,0,1,0,7.92Z" transform="translate(-22.86 -2)"/><path d="M106,69.31a4,4,0,0,1-2.78-6.78l13.19-13A4,4,0,0,1,122,55.14l-13.2,13A4,4,0,0,1,106,69.31Z" transform="translate(-22.86 -2)"/><path d="M119.21,56.28a3.94,3.94,0,0,1-2.7-1.06L103.31,43a4,4,0,0,1,5.39-5.8l13.2,12.27a4,4,0,0,1-2.69,6.86Z" transform="translate(-22.86 -2)"/><path d="M55.42,56.11H26.82a4,4,0,0,1,0-7.92h28.6a4,4,0,1,1,0,7.92Z" transform="translate(-22.86 -2)"/><path d="M26.82,55.94A3.91,3.91,0,0,1,24,54.76a4,4,0,0,1,0-5.6l13.2-13a4,4,0,1,1,5.56,5.64l-13.19,13A4,4,0,0,1,26.82,55.94Z" transform="translate(-22.86 -2)"/><path d="M40,68.21a3.92,3.92,0,0,1-2.69-1.06L24.13,54.88a4,4,0,1,1,5.39-5.8l13.2,12.27A4,4,0,0,1,40,68.21Z" transform="translate(-22.86 -2)"/><path d="M106,69.31a4,4,0,0,1-2.78-6.78l13.19-13A4,4,0,0,1,122,55.14l-13.2,13A4,4,0,0,1,106,69.31Z" transform="translate(-22.86 -2)"/><path d="M119.21,56.28a3.94,3.94,0,0,1-2.7-1.06L103.31,43a4,4,0,0,1,5.39-5.8l13.2,12.27a4,4,0,0,1-2.69,6.86Z" transform="translate(-22.86 -2)"/><path d="M26.82,55.94A3.91,3.91,0,0,1,24,54.76a4,4,0,0,1,0-5.6l13.2-13a4,4,0,1,1,5.56,5.64l-13.19,13A4,4,0,0,1,26.82,55.94Z" transform="translate(-22.86 -2)"/><path d="M40,68.21a3.92,3.92,0,0,1-2.69-1.06L24.13,54.88a4,4,0,1,1,5.39-5.8l13.2,12.27A4,4,0,0,1,40,68.21Z" transform="translate(-22.86 -2)"/></svg>