<svg xmlns="http://www.w3.org/2000/svg" xmlns:xlink="http://www.w3.org/1999/xlink" viewBox="0 0 412.7 545.39"><defs><style>.cls-1{fill:#8e9ab2;}.cls-2{fill:url(#Degradado_sin_nombre_11);}.cls-3{fill:url(#Degradado_sin_nombre_11-2);}.cls-4{fill:#c3cbdb;}.cls-5{fill:url(#Degradado_sin_nombre_11-3);}.cls-6{fill:url(#Degradado_sin_nombre_11-4);}.cls-7{fill:#dfe6ef;}.cls-8{fill:#8b99b2;}.cls-9{fill:#7a88a2;}.cls-10{fill:#7f8da3;}.cls-11{fill:#abb4c6;}.cls-12{fill:#236cb6;opacity:0.57;}.cls-13{fill:#365c86;}.cls-14{fill:#4f97e3;}.cls-15{fill:#093153;}</style><linearGradient id="Degradado_sin_nombre_11" x1="255.13" y1="296.66" x2="333.59" y2="500.91" gradientUnits="userSpaceOnUse"><stop offset="0" stop-color="#9aa5c3"/><stop offset="0.97" stop-color="#f2f5fa" stop-opacity="0"/></linearGradient><linearGradient id="Degradado_sin_nombre_11-2" x1="127.27" y1="309.21" x2="91.15" y2="499.76" xlink:href="#Degradado_sin_nombre_11"/><linearGradient id="Degradado_sin_nombre_11-3" x1="262.17" y1="337.32" x2="262.17" y2="76.65" xlink:href="#Degradado_sin_nombre_11"/><linearGradient id="Degradado_sin_nombre_11-4" x1="158.16" y1="337.32" x2="158.16" y2="76.65" xlink:href="#Degradado_sin_nombre_11"/></defs><title>Recurso 2</title><g id="Capa_2" data-name="Capa 2"><g id="Capa_1-2" data-name="Capa 1"><circle class="cls-1" cx="177.05" cy="83.35" r="3.93"/><rect class="cls-1" x="132.69" y="112.81" width="67.11" height="1.96" transform="translate(1.25 229.39) rotate(-69.4)"/><rect class="cls-1" x="196.49" y="223.45" width="54.59" height="1.96" transform="translate(-34.53 40.8) rotate(-9.67)"/><rect class="cls-1" x="244.72" y="159.94" width="51.21" height="1.96" transform="translate(89.01 418.02) rotate(-85.57)"/><rect class="cls-1" x="159.87" y="138.34" width="71.67" height="1.96" transform="matrix(0.99, -0.16, 0.16, 0.99, -20.21, 34)"/><rect class="cls-1" x="193.74" y="120.95" width="1.96" height="113.32" transform="translate(-53.36 266.6) rotate(-62.1)"/><polygon class="cls-2" points="412.7 331.15 205.45 413.96 206.35 545.39 412.7 462.85 412.7 331.15"/><polygon class="cls-3" points="0 331.15 205.45 413.96 206.35 541.46 0 458.92 0 331.15"/><polygon class="cls-4" points="206.35 248.61 412.7 331.45 205.45 413.96 0.15 331.45 206.35 248.61"/><polygon class="cls-5" points="314.51 324.21 209.82 282.39 210.28 1.94 314.51 43.64 314.51 324.21"/><polygon class="cls-6" points="106.05 324.21 209.82 282.39 210.28 0 106.05 41.69 106.05 324.21"/><polygon class="cls-1" points="210.28 365.91 314.51 324.06 209.82 282.39 106.12 324.06 210.28 365.91"/><polygon class="cls-4" points="225.6 105.68 261.5 120.64 261.68 149.46 225.6 135.21 225.6 105.68"/><polygon class="cls-7" points="261.5 120.64 225.58 105.79 242.03 86.41 278.19 100.74 261.5 120.64"/><polyline class="cls-4" points="294.88 106.48 278.19 100.74 242.03 86.41 258.96 91.63"/><polygon class="cls-1" points="294.88 106.48 294.88 136.22 261.67 149.46 261.5 120.64 278.19 100.91 294.88 106.48"/><polygon class="cls-7" points="245.1 124.83 256.17 129.45 256.23 138.34 245.1 133.94 245.1 124.83"/><polygon class="cls-8" points="237.75 123.36 230.17 120.47 230.17 136.87 237.75 139.76 237.75 123.36"/><polygon class="cls-9" points="231.18 120.91 230.17 120.47 230.17 136.87 231.18 136.22 231.18 120.91"/><polygon class="cls-1" points="287.6 96.53 281.21 99.22 281.61 146.56 287.96 144.01 287.6 96.53"/><polygon class="cls-4" points="274.89 96.53 281.21 99.22 281.61 146.56 275.26 144.01 274.89 96.53"/><polygon class="cls-7" points="281.21 99.22 274.9 96.55 281.26 93.99 287.62 96.55 281.21 99.22"/><polygon class="cls-4" points="281.24 97.95 277.98 96.58 281.26 95.26 284.54 96.58 281.24 97.95"/><polygon class="cls-1" points="298.79 187.33 264.18 201.75 264.02 229.53 298.79 215.8 298.79 187.33"/><polygon class="cls-1" points="264.18 201.75 298.8 187.44 282.95 168.76 248.1 182.57 264.18 201.75"/><polyline class="cls-4" points="232.02 188.1 248.1 182.57 282.95 168.76 266.64 173.8"/><polygon class="cls-4" points="232.02 188.1 232.02 216.78 264.02 229.53 264.18 201.75 248.1 182.74 232.02 188.1"/><polygon class="cls-10" points="295.38 195.13 284.7 199.57 284.65 208.14 295.38 203.91 295.38 195.13"/><polygon class="cls-10" points="279.29 201.95 268.62 206.4 268.57 214.97 279.29 210.73 279.29 201.95"/><polygon class="cls-8" points="249.64 207.87 242.32 205.09 242.32 220.89 249.64 223.68 249.64 207.87"/><polygon class="cls-9" points="243.3 205.51 242.32 205.09 242.32 220.89 243.3 220.26 243.3 205.51"/><path class="cls-11" d="M124.91,144.15v-4h2.24c3.71-3.67,11.48-6.19,20.47-6.19s16.76,2.52,20.47,6.19h2.32v5.4h0c-.57,5.86-10.54,10.53-22.76,10.53-12.58,0-22.79-5-22.79-11.06A5.47,5.47,0,0,1,124.91,144.15Z"/><ellipse class="cls-4" cx="147.62" cy="140.18" rx="22.79" ry="11.06"/><path class="cls-11" d="M117.73,136.35v-4H120c3.71-3.67,11.48-6.2,20.47-6.2s16.76,2.53,20.47,6.2h2.32v5.4h0c-.57,5.86-10.54,10.53-22.76,10.53-12.58,0-22.79-4.95-22.79-11.06A5.38,5.38,0,0,1,117.73,136.35Z"/><ellipse class="cls-4" cx="140.44" cy="132.38" rx="22.79" ry="11.06"/><path class="cls-11" d="M127.62,131.67v-4h2.24c3.71-3.67,11.48-6.2,20.47-6.2s16.76,2.53,20.47,6.2h2.32v5.39h0c-.57,5.87-10.54,10.54-22.76,10.54-12.59,0-22.79-5-22.79-11.07A5.26,5.26,0,0,1,127.62,131.67Z"/><ellipse class="cls-7" cx="150.33" cy="127.7" rx="22.79" ry="11.06"/><path class="cls-4" d="M142.68,128.77c-2.29-2.57-.82-4.39,2-5.19,6.38-1.77,9.36,4.36,12.58,3.47,1.26-.35,1.57-1.23.7-2.21a7.93,7.93,0,0,0-4.46-2.24l1.4-1.57a9.89,9.89,0,0,1,5.6,2.91c1.87,2.12.91,4.1-1.94,4.9-6.31,1.75-9-4.45-12.63-3.45-1.16.32-1.89,1.19-.67,2.57a9,9,0,0,0,5.09,2.37l-1.49,1.59A10.61,10.61,0,0,1,142.68,128.77Z"/><polygon class="cls-4" points="140.39 128.45 141.81 130.04 162.91 124.19 161.49 122.59 140.39 128.45"/><path class="cls-12" d="M257.36,355.76c-.59,1.8,5.12,5.3,12.75,7.81s14.31,3.1,14.9,1.29-5.11-5.29-12.75-7.81S258,354,257.36,355.76Z"/><path class="cls-13" d="M262.76,324.08a23,23,0,0,0-4.26,12.77A68.89,68.89,0,0,0,260,352.53a6.67,6.67,0,0,0,1.55,3.54c1,.9,2.71,1.07,3.46,0a3.57,3.57,0,0,0,.38-2.13,102.13,102.13,0,0,1,.68-13.66,4.28,4.28,0,0,1,1-2.8c.13,5.78.38,13,2.35,16.89.72,1.44,2.57,4.79,3.92,3.93,1.15-.74,0-8.46,0-9.82.18-6.14,1.75-11.36,1.71-16.37,0-2.88-.64-6.24-3.2-7.58-.56.17-1.1-.27-1.68-.37a26.7,26.7,0,0,0-7.36-.21"/><path class="cls-7" d="M264.47,302.15c-.84,2.28-.17,4.64,1.5,5.26s3.72-.73,4.57-3,.17-4.64-1.5-5.26S265.32,299.86,264.47,302.15Z"/><path class="cls-7" d="M255.09,303.19a1.76,1.76,0,0,1-1.25-1,2.52,2.52,0,0,1-.2-1.6,1.56,1.56,0,0,1,.6-1.09.7.7,0,0,1,.34-.12.87.87,0,0,1,.53.18,3,3,0,0,1,1.06,1.47,2,2,0,0,1,.18.74,1.36,1.36,0,0,1-.47,1.05,2.2,2.2,0,0,1-.81.4"/><path class="cls-7" d="M255.44,301.58a11.41,11.41,0,0,0,1.08-.87c.12-.13.27-.3.44-.23a.26.26,0,0,1,.13.29.69.69,0,0,1-.14.3,3.8,3.8,0,0,0-.55,1.08,2,2,0,0,1-.43,1,.7.7,0,0,1-.9-.29A1.07,1.07,0,0,1,255.44,301.58Z"/><path class="cls-7" d="M278.84,328.41l.57,1.19a1.41,1.41,0,0,1,.2,1.08.93.93,0,0,1-.61.52,2.57,2.57,0,0,1-.83.07,1.45,1.45,0,0,1-1.24-.5,1.36,1.36,0,0,1,.17-1.32,7,7,0,0,1,1-1.42.59.59,0,0,1,.19-.13c.26-.08.41.28.61.46"/><path class="cls-14" d="M267.19,317a10.64,10.64,0,0,1-12.77-13.34,1.75,1.75,0,0,1,.44-.84,1.33,1.33,0,0,1,1.69.08,3.5,3.5,0,0,1,.94,1.57c.56,1.52,1.08,3.21,2.44,4.09A5.51,5.51,0,0,0,264,309a18.21,18.21,0,0,1,4.12-.64A5.77,5.77,0,0,1,271.9,310a8.6,8.6,0,0,1-3.23,6.58,1.91,1.91,0,0,1-1.53.6"/><path class="cls-14" d="M272.17,310.12a54.08,54.08,0,0,1,4.87,7.41,24.14,24.14,0,0,1,2.47,9.87,3,3,0,0,1-.28,1.33,1.13,1.13,0,0,1-1.12.64,1.49,1.49,0,0,1-.82-.53c-1.63-1.8-2.25-5.95-4.14-7.47-.94-.75-2.2-1.13-2.89-2.11a3.74,3.74,0,0,1-.6-1.69c-.38-2.65.77-5.3,2.28-7.52"/><path class="cls-14" d="M261.73,315.27a10.54,10.54,0,0,1,8.39-5.46,3.54,3.54,0,0,1,1.26.12,2.66,2.66,0,0,1,1.23.92,5.09,5.09,0,0,1,.85,3.5c-.09,1.22-.43,2.41-.63,3.63a15.64,15.64,0,0,0,.92,8.29c-3.66-1.23-7.33.42-11.18.57a2,2,0,0,1-1.11-.19,2,2,0,0,1-.75-1.25A13.64,13.64,0,0,1,261.73,315.27Z"/><path class="cls-15" d="M266.41,303.42c-1-1.8-1.64-4.19-.29-5.71a3.38,3.38,0,0,1,3.27-.91,5.52,5.52,0,0,1,2.9,2,4.69,4.69,0,0,1,1.15,4.13,8.29,8.29,0,0,0-.57,1.77c-.09,1.59,1.75,2.45,3.13,3.25,2.6,1.49,4.52,4.67,3.51,7.49a6.52,6.52,0,0,1-2.65,3.11,8.26,8.26,0,0,1-8,.73,6.12,6.12,0,0,1-3.26-7c.52-1.65,1.85-3.37,1.08-4.92-.26-.51-.73-.9-1-1.41a2.31,2.31,0,0,1,.81-3"/><path class="cls-13" d="M261.91,355.81c-1.8-.43-3.39-.19-3.56.52s1.14,1.65,2.94,2.08,3.39.2,3.56-.52S263.7,356.24,261.91,355.81Z"/><path class="cls-13" d="M271.73,357.78c-1.8-.43-3.39-.2-3.57.52s1.15,1.64,2.95,2.07,3.39.2,3.56-.52S273.52,358.21,271.73,357.78Z"/><rect class="cls-1" x="205.52" y="234.66" width="1.96" height="62.66" transform="translate(-128.61 299.02) rotate(-57.8)"/><circle class="cls-1" cx="232.03" cy="281.7" r="3.93"/><polygon class="cls-4" points="128.47 210.96 168.64 227.7 168.84 259.95 128.47 244.01 128.47 210.96"/><polygon class="cls-7" points="168.64 227.7 128.45 211.09 146.85 189.4 187.32 205.43 168.64 227.7"/><polyline class="cls-4" points="205.99 211.85 187.32 205.43 146.85 189.4 165.8 195.25"/><polygon class="cls-1" points="205.99 211.85 205.99 245.14 168.84 259.95 168.64 227.7 187.32 205.63 205.99 211.85"/><polygon class="cls-7" points="132.43 220.01 144.82 225.17 144.88 235.12 132.43 230.2 132.43 220.01"/><polygon class="cls-7" points="151.1 227.93 163.49 233.09 163.55 243.04 151.1 238.13 151.1 227.93"/><polygon class="cls-10" points="185.53 234.8 194.02 231.57 194.02 249.92 185.53 253.15 185.53 234.8"/><polygon class="cls-9" points="192.89 232.06 194.02 231.57 194.02 249.92 192.89 249.19 192.89 232.06"/></g></g></svg>