<svg xmlns="http://www.w3.org/2000/svg" viewBox="0 0 301.39 290.33"><defs><style>.cls-1{fill:#9bcfc2;}.cls-2{fill:#fff;}.cls-3{fill:#60a1e7;}.cls-4{fill:#465d76;}</style></defs><title>Recurso 5</title><g id="Capa_2" data-name="Capa 2"><g id="Capa_1-2" data-name="Capa 1"><polygon class="cls-1" points="203.19 124.27 203.16 117.9 286.96 117.53 286.96 49.48 293.33 49.48 293.33 123.88 203.19 124.27"/><rect class="cls-2" x="170.56" y="36.17" width="6.37" height="55.86"/><polygon class="cls-3" points="123.71 108.52 117.33 108.52 117.33 93.76 54.36 93.76 54.36 17.24 60.73 17.24 60.73 87.39 123.71 87.39 123.71 108.52"/><polygon class="cls-1" points="107.77 172.44 6.75 172.44 6.75 143.39 13.12 143.39 13.12 166.07 107.77 166.07 107.77 172.44"/><polygon class="cls-3" points="253.41 255.1 247.04 255.1 247.04 168.69 209.36 168.69 209.36 162.32 253.41 162.32 253.41 255.1"/><polygon class="cls-2" points="181.81 254.53 55.67 254.53 55.67 248.16 175.44 248.16 175.44 208.24 181.81 208.24 181.81 254.53"/><path class="cls-2" d="M48.92,262.78A11.06,11.06,0,1,1,60,251.72,11.07,11.07,0,0,1,48.92,262.78Zm0-15.74a4.69,4.69,0,1,0,4.69,4.68A4.69,4.69,0,0,0,48.92,247Z"/><path class="cls-1" d="M9.18,148.07a9.19,9.19,0,1,1,9.19-9.18A9.19,9.19,0,0,1,9.18,148.07Zm0-12A2.81,2.81,0,1,0,12,138.89,2.81,2.81,0,0,0,9.18,136.08Z"/><path class="cls-3" d="M57.92,22.12A11.06,11.06,0,1,1,69,11.06,11.07,11.07,0,0,1,57.92,22.12Zm0-15.75a4.69,4.69,0,1,0,4.68,4.69A4.69,4.69,0,0,0,57.92,6.37Z"/><polygon class="cls-4" points="146.57 154.63 140.2 154.63 140.2 139.87 77.22 139.87 77.22 63.35 83.59 63.35 83.59 133.5 146.57 133.5 146.57 154.63"/><polygon class="cls-4" points="292.4 213.86 286.02 213.86 286.02 191.18 191.37 191.18 191.37 184.81 292.4 184.81 292.4 213.86"/><path class="cls-4" d="M290,227.54a9.18,9.18,0,1,1,9.18-9.18A9.19,9.19,0,0,1,290,227.54Zm0-12a2.81,2.81,0,1,0,2.81,2.81A2.81,2.81,0,0,0,290,215.55Z"/><path class="cls-4" d="M80.78,68.23A11.06,11.06,0,1,1,91.84,57.17,11.07,11.07,0,0,1,80.78,68.23Zm0-15.75a4.69,4.69,0,1,0,4.69,4.69A4.69,4.69,0,0,0,80.78,52.48Z"/><path class="cls-1" d="M290.33,54.36A11.06,11.06,0,1,1,301.39,43.3,11.07,11.07,0,0,1,290.33,54.36Zm0-15.75A4.69,4.69,0,1,0,295,43.3,4.69,4.69,0,0,0,290.33,38.61Z"/><circle class="cls-3" cx="249.85" cy="261.09" r="7.87"/><polygon class="cls-4" points="166.08 146.01 166.05 139.64 249.85 139.28 249.85 71.22 256.22 71.22 256.22 145.62 166.08 146.01"/><polygon class="cls-4" points="89.59 276.46 83.22 276.46 83.22 183.69 127.27 183.69 127.27 190.06 89.59 190.06 89.59 276.46"/><path class="cls-4" d="M253.22,76.1A11.06,11.06,0,1,1,264.28,65,11.07,11.07,0,0,1,253.22,76.1Zm0-15.75A4.69,4.69,0,1,0,257.91,65,4.69,4.69,0,0,0,253.22,60.35Z"/><circle class="cls-4" cx="86.78" cy="282.46" r="7.87"/><circle class="cls-2" cx="173.56" cy="30.74" r="6.75"/><path class="cls-2" d="M180.83,150.25c2.33,4.4,7.13,7.93,12.85,9.44a24,24,0,0,0,6.17.8,25.07,25.07,0,0,0,12.41-3.36,11.54,11.54,0,0,1,.45,8.46c-1.31,4-5.32,8.46-11,8.59-5.4.12-6.65-1.08-10.37-4.65l-1.19-1.14c-5.22-4.94-14.28-5.5-20.2-1.25a1.94,1.94,0,1,0,2.27,3.15c3.92-2.82,11-3.13,15.26.92l1.17,1.11c3.82,3.67,6,5.75,12.4,5.75h.75c.36,0,.71,0,1.06-.08,3,5.33,2.65,12.54-.92,16.65-3.3,3.82-6.85,5.92-10.81,6.41a17.57,17.57,0,0,0-.34-7.33c-1.52-5.86-5.81-10.86-10.19-11.89a1.94,1.94,0,0,0-.89,3.77c2.54.6,6.07,4.25,7.32,9.09A12.85,12.85,0,0,1,183,207.89a13.91,13.91,0,0,1-14.86,2.58,12.78,12.78,0,0,1-7.65-8.43V177c5.57,2.37,6.88,6.35,8.5,11.25,1.5,4.53,3.19,9.65,8.8,13.48a1.86,1.86,0,0,0,1.09.35,1.94,1.94,0,0,0,1.1-3.54c-4.53-3.1-5.88-7.19-7.3-11.51-1.75-5.28-3.72-11.25-12.19-14.18V142.29c3.07.47,6.48-.69,10.07-1.92,8.35-2.86,17.82-6.1,28.32,7.24a2,2,0,0,0,1.53.74,2,2,0,0,0,1.19-.41,1.94,1.94,0,0,0,.33-2.73c-12.21-15.5-24-11.47-32.63-8.51-3.57,1.22-6.67,2.28-8.81,1.61V98.22a.41.41,0,0,0,0-.08c2.35-7.57,8.53-9.9,13.61-8.87,4.12.84,8.64,4.23,8.53,11.06a23.37,23.37,0,0,0-10.29,5.86A1.94,1.94,0,0,0,175,109c4.4-4.09,8.95-5.82,13.93-5.29a16.93,16.93,0,0,1,14.4,22.65l-1.53.08c-2.84.15-5.09.27-7.9-1.66a11.16,11.16,0,0,1-4.8-7.94,1.94,1.94,0,0,0-3.88.22A15,15,0,0,0,191.67,128c3.89,2.67,7.29,2.49,10.3,2.33,3.6-.2,6.71-.36,11.33,3.82a11.2,11.2,0,0,1,3.64,9.46,12.65,12.65,0,0,1-5.53,9.51,20.93,20.93,0,0,1-16.74,2.81c-4.62-1.22-8.61-4.1-10.41-7.5a1.94,1.94,0,0,0-3.43,1.81Z"/><path class="cls-2" d="M136.31,150.25c-2.33,4.4-7.13,7.93-12.86,9.44a24,24,0,0,1-6.16.8,25,25,0,0,1-12.41-3.36,11.54,11.54,0,0,0-.45,8.46c1.31,4,5.32,8.46,11,8.59,5.4.12,6.65-1.08,10.37-4.65.37-.36.76-.74,1.19-1.14,5.21-4.94,14.27-5.5,20.2-1.25a1.94,1.94,0,1,1-2.27,3.15c-3.93-2.82-11-3.13-15.27.92-.41.39-.79.76-1.17,1.11-3.81,3.67-6,5.75-12.39,5.75h-.75c-.37,0-.71,0-1.07-.08-3,5.33-2.64,12.54.93,16.65,3.3,3.82,6.85,5.92,10.81,6.41a17.4,17.4,0,0,1,.34-7.33c1.52-5.86,5.8-10.86,10.18-11.89a1.94,1.94,0,1,1,.89,3.77c-2.54.6-6.06,4.25-7.32,9.09a12.88,12.88,0,0,0,4.07,13.21,13.91,13.91,0,0,0,14.86,2.58,12.75,12.75,0,0,0,7.64-8.43V177c-5.56,2.37-6.87,6.35-8.49,11.25-1.5,4.53-3.19,9.65-8.8,13.48a1.89,1.89,0,0,1-1.1.35,2,2,0,0,1-1.6-.85,1.93,1.93,0,0,1,.51-2.69c4.52-3.1,5.87-7.19,7.3-11.51,1.75-5.28,3.72-11.25,12.18-14.18V142.29c-3.06.47-6.48-.69-10.06-1.92-8.35-2.86-17.82-6.1-28.32,7.24a1.94,1.94,0,1,1-3-2.4c12.21-15.5,24-11.47,32.62-8.51,3.58,1.22,6.67,2.28,8.81,1.61V98.22l0-.08c-2.34-7.57-8.52-9.9-13.6-8.87-4.12.84-8.64,4.23-8.54,11.06a23.34,23.34,0,0,1,10.3,5.86,1.94,1.94,0,1,1-2.64,2.84c-4.4-4.09-9-5.82-13.93-5.29a16.93,16.93,0,0,0-14.4,22.65l1.53.08c2.84.15,5.09.27,7.9-1.66a11.16,11.16,0,0,0,4.8-7.94,1.94,1.94,0,0,1,3.87.22A15,15,0,0,1,125.47,128c-3.9,2.67-7.3,2.49-10.3,2.33-3.6-.2-6.71-.36-11.33,3.82a11.24,11.24,0,0,0-3.65,9.46,12.71,12.71,0,0,0,5.53,9.51,21,21,0,0,0,16.75,2.81c4.61-1.22,8.61-4.1,10.41-7.5a1.94,1.94,0,0,1,3.43,1.81Z"/></g></g></svg>