<svg id="Capa_1" data-name="Capa 1" xmlns="http://www.w3.org/2000/svg" viewBox="0 0 299.6 251.46"><title>analizar_seguro</title><path d="M298.94,266.65,155.14,27c-2.17-3.62-8.12-3.62-10.28,0L1.06,266.65a6,6,0,0,0,5.14,9.08H293.81a6,6,0,0,0,5.13-9.08Zm-282.16-2.9L150,41.71l133.22,222Z" transform="translate(-0.2 -24.27)"/><path d="M144,114v59.92a6,6,0,0,0,12,0V114a6,6,0,1,0-12,0Z" transform="translate(-0.2 -24.27)"/><path d="M150,203.83a6,6,0,0,0-6,6v12a6,6,0,1,0,12,0v-12A6,6,0,0,0,150,203.83Z" transform="translate(-0.2 -24.27)"/></svg>