<svg id="Capa_1" data-name="Capa 1" xmlns="http://www.w3.org/2000/svg" viewBox="0 0 294.29 262"><title>comparar</title><path d="M223.8,281h-143a4.15,4.15,0,0,1-3.63-6.17l69.19-124.54a4.15,4.15,0,0,1,3.57-2.14,4,4,0,0,1,3.63,2l73.8,124.54A4.15,4.15,0,0,1,223.8,281ZM87.87,272.69H216.52l-66.4-112Z" transform="translate(-2.85 -19)"/><path d="M293,211.81a4.16,4.16,0,0,1-1.75-.39L5.25,77.65a4.15,4.15,0,0,1,3.52-7.52l286,133.77a4.15,4.15,0,0,1-1.76,7.91Z" transform="translate(-2.85 -19)"/><path d="M246.87,170.3A50.28,50.28,0,1,1,297.15,120,50.34,50.34,0,0,1,246.87,170.3Zm0-92.26a42,42,0,1,0,42,42A42,42,0,0,0,246.87,78Z" transform="translate(-2.85 -19)"/><path d="M34.68,73.43A27.22,27.22,0,1,1,61.9,46.21,27.25,27.25,0,0,1,34.68,73.43Zm0-46.13A18.92,18.92,0,1,0,53.6,46.21,18.94,18.94,0,0,0,34.68,27.3Z" transform="translate(-2.85 -19)"/></svg>