<svg id="Capa_1" data-name="Capa 1" xmlns="http://www.w3.org/2000/svg" viewBox="0 0 298.89 298"><title>estimar</title><path d="M142.77,256.28H5.36a4.82,4.82,0,0,1-4.81-4.81V5.81A4.81,4.81,0,0,1,5.36,1H251a4.81,4.81,0,0,1,4.81,4.81V143.22a4.81,4.81,0,0,1-9.62,0V10.61h-236V246.66h132.6a4.81,4.81,0,1,1,0,9.62Z" transform="translate(-0.55 -1)"/><path d="M214.53,299a84.92,84.92,0,1,1,84.92-84.92A85,85,0,0,1,214.53,299Zm0-160.22a75.3,75.3,0,1,0,75.3,75.3A75.39,75.39,0,0,0,214.53,138.78Z" transform="translate(-0.55 -1)"/><path d="M69.45,112.08a4.81,4.81,0,0,1-4.81-4.81V32.51a4.81,4.81,0,1,1,9.61,0v74.76A4.8,4.8,0,0,1,69.45,112.08Z" transform="translate(-0.55 -1)"/><path d="M106.83,74.7H32.06a4.81,4.81,0,0,1,0-9.61h74.77a4.81,4.81,0,0,1,0,9.61Z" transform="translate(-0.55 -1)"/><path d="M95.88,213.29a4.79,4.79,0,0,1-3.4-1.41L39.61,159a4.81,4.81,0,0,1,6.8-6.8l52.87,52.87a4.81,4.81,0,0,1-3.4,8.21Z" transform="translate(-0.55 -1)"/><path d="M43,213.29a4.81,4.81,0,0,1-3.4-8.21l52.87-52.87a4.81,4.81,0,0,1,6.8,6.8L46.41,211.88A4.79,4.79,0,0,1,43,213.29Z" transform="translate(-0.55 -1)"/><path d="M224.32,74.7H144.21a4.81,4.81,0,0,1,0-9.61h80.11a4.81,4.81,0,1,1,0,9.61Z" transform="translate(-0.55 -1)"/><path d="M254.58,202.87h-80.1a4.81,4.81,0,1,1,0-9.62h80.1a4.81,4.81,0,0,1,0,9.62Z" transform="translate(-0.55 -1)"/><path d="M254.58,240.25h-80.1a4.81,4.81,0,1,1,0-9.61h80.1a4.81,4.81,0,1,1,0,9.61Z" transform="translate(-0.55 -1)"/></svg>