<svg id="Capa_1" data-name="Capa 1" xmlns="http://www.w3.org/2000/svg" viewBox="0 0 293.96 294"><defs><style>.cls-1{fill:#090909;}</style></defs><title>generar</title><path d="M7.62,296.61A4.6,4.6,0,0,1,3,292V53.57a4.62,4.62,0,0,1,2.57-4.14L99.48,3.5a4.61,4.61,0,0,1,6.18,2,4.67,4.67,0,0,1,.5,2.14v66.6a4.6,4.6,0,0,1-9.19,0V15L12.21,56.37v228.3L97,243.33V55.51a4.6,4.6,0,0,1,9.19,0V246.15a4.61,4.61,0,0,1-2.57,4.14L9.64,296.22A4.7,4.7,0,0,1,7.62,296.61Z" transform="translate(-3.02 -3)"/><path d="M198.43,297a4.6,4.6,0,0,1-4.59-4.59V247.3a4.6,4.6,0,0,1,9.19,0v37.76l84.76-41.34V15.38L203,56.71V76.53a4.6,4.6,0,1,1-9.19,0V53.89a4.6,4.6,0,0,1,2.57-4.13l94-45.93A4.6,4.6,0,0,1,297,8V246.48a4.6,4.6,0,0,1-2.58,4.13l-93.88,45.93A4.56,4.56,0,0,1,198.43,297Z" transform="translate(-3.02 -3)"/><path d="M198.43,296.61a4.55,4.55,0,0,1-2-.44L99.59,250.24a4.6,4.6,0,1,1,3.93-8.31l96.89,45.93a4.59,4.59,0,0,1-2,8.75Z" transform="translate(-3.02 -3)"/><path d="M198.43,58.16a4.55,4.55,0,0,1-2-.44L99.59,11.79a4.6,4.6,0,0,1,3.93-8.31l96.89,45.93a4.59,4.59,0,0,1-2,8.75Z" transform="translate(-3.02 -3)"/><path class="cls-1" d="M198.55,233.73a4.58,4.58,0,0,1-3.79-2C192.9,229,149.17,164.86,149.17,139a49.38,49.38,0,0,1,98.75,0c0,25.86-43.63,90-45.58,92.71A4.61,4.61,0,0,1,198.55,233.73Zm0-134.9A40.24,40.24,0,0,0,158.36,139c0,17.39,26.23,60.72,40.19,81.87,14-21.17,40.19-64.51,40.19-81.87A40.25,40.25,0,0,0,198.55,98.83Z" transform="translate(-3.02 -3)"/><path class="cls-1" d="M198.55,166.28A27.26,27.26,0,1,1,225.78,139,27.25,27.25,0,0,1,198.55,166.28Zm0-45.33a18.08,18.08,0,1,0,18,18.09v0a18.08,18.08,0,0,0-18-18.07Z" transform="translate(-3.02 -3)"/></svg>