<svg id="Capa_1" data-name="Capa 1" xmlns="http://www.w3.org/2000/svg" viewBox="0 0 299.51 288"><title>recomendar_seguro</title><path d="M150,66.7a5.58,5.58,0,0,0-5.57,5.57V83.75c-8.22.87-15.76,3.61-21.57,8.35a31.61,31.61,0,0,0-11.48,24.71,26.4,26.4,0,0,0,13.05,23.13c7.25,4.45,15.72,6.65,23.48,9.75,12.72,4.64,29.58,9.77,29.75,22.79A19.51,19.51,0,0,1,170,188.31c-4.79,3.91-11.75,6.43-20,6.43a34.09,34.09,0,0,1-28.53-16,5.59,5.59,0,0,0-7.83-2.61,5.87,5.87,0,0,0-1.39,8.35,44.34,44.34,0,0,0,32.36,20.88c0,.19-.18.32-.18.52V217a5.57,5.57,0,1,0,11.14,0V205.53A41,41,0,0,0,177.14,197a31.2,31.2,0,0,0,11.48-24.53,26.7,26.7,0,0,0-13.05-23.31c-7.25-4.45-15.72-6.65-23.48-9.74-12.64-4.64-29.58-9.76-29.75-22.62a19.84,19.84,0,0,1,7.65-16c4.8-3.9,11.75-6.26,20-6.26a34,34,0,0,1,28.53,15.83,5.59,5.59,0,0,0,7.83,2.61,5.87,5.87,0,0,0,1.39-8.35,44.09,44.09,0,0,0-32.36-20.7c0-.19.18-.33.18-.52V72.27A5.58,5.58,0,0,0,150,66.7Z" transform="translate(-0.25 -6)"/><path d="M10.92,160.39a5,5,0,0,1-5-4.82c-.07-1.8-.11-3.59-.11-5.38C5.81,70.68,70.5,6,150,6A143.62,143.62,0,0,1,287.51,106.72a5,5,0,0,1-6.48,6.22L242.94,99.23a5,5,0,0,1,3.4-9.43l28.09,10.12A133.58,133.58,0,0,0,150,16C76,16,15.83,76.21,15.83,150.19c0,1.67,0,3.33.1,5a5,5,0,0,1-4.82,5.2Z" transform="translate(-0.25 -6)"/><path d="M282.73,113.24a4.9,4.9,0,0,1-1.59-.26,5,5,0,0,1-3.16-6.34l12-36a5,5,0,0,1,9.51,3.17l-12,36A5,5,0,0,1,282.73,113.24Z" transform="translate(-0.25 -6)"/><path d="M150,294A143.6,143.6,0,0,1,12.5,193.28,5,5,0,0,1,19,187.06l38.09,13.71a5,5,0,0,1-3.4,9.43L25.57,200.08A133.57,133.57,0,0,0,150,284c74,0,134.16-60.18,134.16-134.16,0-1.66,0-3.32-.09-5a5,5,0,1,1,10-.4c.07,1.79.11,3.59.11,5.39C294.19,229.32,229.5,294,150,294Z" transform="translate(-0.25 -6)"/><path d="M5.26,232.76a4.9,4.9,0,0,1-1.59-.26,5,5,0,0,1-3.16-6.34l12-36A5,5,0,0,1,22,193.36l-12,36A5,5,0,0,1,5.26,232.76Z" transform="translate(-0.25 -6)"/></svg>