<svg xmlns="http://www.w3.org/2000/svg" viewBox="0 0 286.11 273.78"><title>Recurso 8</title><g id="Capa_2" data-name="Capa 2"><g id="Capa_1-2" data-name="Capa 1"><path d="M281,273.78a5.11,5.11,0,0,1-5.11-4.92,132.93,132.93,0,0,0-265.67,0A5.11,5.11,0,0,1,0,268.48a143.15,143.15,0,0,1,286.11,0,5.12,5.12,0,0,1-4.92,5.3Z"/><path d="M143.07,138.6a69.3,69.3,0,1,1,69.3-69.3A69.37,69.37,0,0,1,143.07,138.6Zm0-128.37A59.08,59.08,0,1,0,202.14,69.3,59.14,59.14,0,0,0,143.07,10.23Z"/><path d="M281,273.78H5.11a5.11,5.11,0,0,1,0-10.22H281a5.11,5.11,0,1,1,0,10.22Z"/></g></g></svg>