<svg xmlns="http://www.w3.org/2000/svg" viewBox="0 0 297.59 291.58"><title>Recurso 4</title><g id="Capa_2" data-name="Capa 2"><g id="Capa_1-2" data-name="Capa 1"><path d="M151.61,291.58c-69.12,0-129.28-49.1-143-116.74a5.07,5.07,0,0,1,9.94-2c12.8,62.93,68.78,108.61,133.1,108.61a135.27,135.27,0,0,0,129.54-94.88c.06-.19.13-.37.21-.56s6.08-14.05,6.08-40c0-74.9-60.93-135.84-135.83-135.84a135.23,135.23,0,0,0-126,84.94L54.08,84.84a5.08,5.08,0,0,1,3.44,9.55L19,108.27A5.07,5.07,0,0,1,12.4,102,145.39,145.39,0,0,1,151.61,0c80.5,0,146,65.49,146,146,0,26.51-5.85,41.51-6.84,43.87A145.4,145.4,0,0,1,151.61,291.58Z"/><path d="M17.24,108.57a5.07,5.07,0,0,1-4.81-3.46L.26,68.68a5.07,5.07,0,0,1,9.62-3.22l12.17,36.43a5.08,5.08,0,0,1-3.21,6.42A5,5,0,0,1,17.24,108.57Z"/><path d="M139.08,145.31a5.07,5.07,0,0,1-4.73-6.9l27.53-71.3a5.07,5.07,0,1,1,9.47,3.65l-27.54,71.31A5.06,5.06,0,0,1,139.08,145.31Z"/><path d="M197,170.88a5,5,0,0,1-2.05-.44L137,144.88a5.07,5.07,0,0,1,4.1-9.28l58,25.56a5.08,5.08,0,0,1-2.05,9.72Z"/></g></g></svg>