<svg xmlns="http://www.w3.org/2000/svg" viewBox="0 0 314.59 255.99"><title>Recurso 7</title><g id="Capa_2" data-name="Capa 2"><g id="Capa_1-2" data-name="Capa 1"><path d="M287,224.36H27.42A27.45,27.45,0,0,1,0,196.94V27.42A27.45,27.45,0,0,1,27.42,0H287a27.44,27.44,0,0,1,27.41,27.42V196.94A27.44,27.44,0,0,1,287,224.36ZM27.42,10.23A17.21,17.21,0,0,0,10.23,27.42V196.94a17.22,17.22,0,0,0,17.19,17.2H287a17.22,17.22,0,0,0,17.19-17.2V27.42A17.21,17.21,0,0,0,287,10.23Z"/><path d="M309.47,194.68H8.36a5.11,5.11,0,0,1,0-10.22H309.47a5.11,5.11,0,1,1,0,10.22Z"/><path d="M226.55,256H92.71a5.11,5.11,0,0,1,0-10.22H226.55a5.11,5.11,0,1,1,0,10.22Z"/><path d="M56.21,153.79a5.11,5.11,0,0,1-3.9-8.41L118,67.51a5.13,5.13,0,0,1,7.11-.69l69.11,55.29,62.49-74.06a5.11,5.11,0,0,1,7.81,6.59l-65.7,77.87a5.11,5.11,0,0,1-7.1.69L122.61,77.92,60.12,152A5.08,5.08,0,0,1,56.21,153.79Z"/></g></g></svg>