<svg xmlns="http://www.w3.org/2000/svg" viewBox="0 0 267.11 277.22"><title>Recurso 2</title><g id="Capa_2" data-name="Capa 2"><g id="Capa_1-2" data-name="Capa 1"><path d="M135.11,173.85A85.18,85.18,0,0,1,50,88.76V5.07A5.07,5.07,0,0,1,55.09,0H211.93A5.07,5.07,0,0,1,217,5.07V92A82,82,0,0,1,135.11,173.85ZM60.17,10.14V88.76a75,75,0,0,0,74.94,75A71.83,71.83,0,0,0,206.85,92V10.14Z"/><path d="M149.74,195.27H117.28a15.78,15.78,0,1,1,0-31.56h32.46a15.78,15.78,0,0,1,0,31.56Zm-32.46-21.42a5.64,5.64,0,1,0,0,11.27h32.46a5.64,5.64,0,0,0,0-11.27Z"/><path d="M212.21,277.22H56.08a5.51,5.51,0,0,1-5.51-5.51v-.65a38.61,38.61,0,0,1,38.57-38.58H179.8a38.62,38.62,0,0,1,38.58,38.58A6.17,6.17,0,0,1,212.21,277.22ZM61,267.08H208a28.48,28.48,0,0,0-28.16-24.45H89.14A28.47,28.47,0,0,0,61,267.08Z"/><path d="M193.8,242H74.14a5.07,5.07,0,0,1-5.07-5.07v-7.66c-.83-3.92.39-11,10.19-15.48,2.7-1.25,6-2.62,9.52-4.07,7.36-3,17.43-7.19,20.11-9.93,2.92-3,4.18-7.84,4.39-9.3a5.06,5.06,0,0,1,5-4.35h31.34a5.06,5.06,0,0,1,5,4.35s.91,5.74,4.39,9.3c2.68,2.74,12.75,6.9,20.11,9.93,3.49,1.45,6.82,2.82,9.53,4.07,9.8,4.51,11,11.56,10.18,15.48v7.66A5.07,5.07,0,0,1,193.8,242ZM79.22,231.87h109.5v-3.24c0-.81-.1-1,.22-1.58,0-.77-.95-2.41-4.49-4-2.61-1.19-5.8-2.51-9.16-3.9-11.33-4.68-19.65-8.29-23.49-12.21a27,27,0,0,1-6.13-10.61h-23.4a27.1,27.1,0,0,1-6.13,10.6c-3.84,3.93-12.15,7.54-23.49,12.22-3.35,1.39-6.55,2.71-9.15,3.9-3.82,1.76-4.61,3.52-4.49,4.21.43.75.21.53.21,1.41Z"/><path d="M208.09,121.86a5.12,5.12,0,0,1-2.81-.85,5.06,5.06,0,0,1-2.25-4.52l.05-.95a5.1,5.1,0,0,1,5.36-4.77l.27,0c37.42-19.46,53.1-52.81,46.95-67-4.67-10.74-26.85-9.1-38.14-7L217,46.39a5.18,5.18,0,0,1-5.34,4.8,5.08,5.08,0,0,1-4.78-5.35l.73-13.51a5.07,5.07,0,0,1,3.88-4.66C216,26.6,255.41,17.83,265,39.78c9.31,21.4-12.08,60.83-54.64,81.57A5.16,5.16,0,0,1,208.09,121.86Z"/><path d="M59,121.86a5.08,5.08,0,0,1-2.22-.51c-42.57-20.74-64-60.17-54.65-81.57,9.56-22,49-13.18,53.48-12.11a5.08,5.08,0,0,1,3.88,4.66l.74,13.51a5.07,5.07,0,1,1-10.13.55l-.52-9.61c-11.31-2-33.49-3.65-38.15,7C5.3,58,21,91.33,58.4,110.79a5.49,5.49,0,0,1,.58,0A5.05,5.05,0,0,1,64,115.57l0,1a5,5,0,0,1-2.26,4.5A5.15,5.15,0,0,1,59,121.86Z"/></g></g></svg>