<svg xmlns="http://www.w3.org/2000/svg" viewBox="0 0 240.05 273.69"><title>Recurso 5</title><g id="Capa_2" data-name="Capa 2"><g id="Capa_1-2" data-name="Capa 1"><path d="M117.12,273.69a5.06,5.06,0,0,1-3.85-1.77l-30.89-36H27.23A27.23,27.23,0,0,1,0,208.76V27.17A27.23,27.23,0,0,1,27.23,0h185.6a27.23,27.23,0,0,1,27.22,27.17V208.76a27.23,27.23,0,0,1-27.22,27.17h-61l-30.84,36a5,5,0,0,1-3.85,1.77ZM27.23,10.14a17.07,17.07,0,0,0-17.08,17V208.76a17.06,17.06,0,0,0,17.08,17H84.71a5.08,5.08,0,0,1,3.85,1.77l28.56,33.28,28.5-33.27a5.07,5.07,0,0,1,3.86-1.78h63.35a17.06,17.06,0,0,0,17.07-17V27.17a17.07,17.07,0,0,0-17.07-17Z"/><path d="M120,130.57A5.08,5.08,0,0,1,115,125.5v-62a5.08,5.08,0,0,1,10.15,0v62A5.07,5.07,0,0,1,120,130.57Z"/><path d="M120,170A5.08,5.08,0,0,1,115,165V148a5.08,5.08,0,0,1,10.15,0V165A5.07,5.07,0,0,1,120,170Z"/></g></g></svg>