<svg xmlns="http://www.w3.org/2000/svg" viewBox="0 0 39.49 39.49"><defs><style>.cls-1{fill:none;stroke:#000;stroke-linecap:round;stroke-linejoin:round;stroke-width:1.8px;}</style></defs><title>Recurso 2</title><g id="Capa_2" data-name="Capa 2"><g id="Capa_1-2" data-name="Capa 1"><path class="cls-1" d="M38.59,17.87v3.75a3.93,3.93,0,0,1-3.92,3.93H25.55v9.11a3.93,3.93,0,0,1-3.93,3.93H17.87a3.93,3.93,0,0,1-3.93-3.93V25.55H4.83A3.93,3.93,0,0,1,.9,21.62V17.87a3.93,3.93,0,0,1,3.93-3.93h9.11V4.82A3.93,3.93,0,0,1,17.87.9h3.75a3.93,3.93,0,0,1,3.93,3.92v9.12h9.12A3.93,3.93,0,0,1,38.59,17.87Z"/></g></g></svg>