<svg xmlns="http://www.w3.org/2000/svg" viewBox="0 0 48.81 116.32"><defs><style>.cls-1{fill:#dce6ef;}.cls-2{opacity:0.39;isolation:isolate;}.cls-3{fill:#8e9ab2;}.cls-4{fill:#365c86;}.cls-5{fill:#dfe6ef;}.cls-6{fill:#1c3851;}.cls-7{fill:#093153;}.cls-8{fill:#4f97e3;}</style></defs><title>Para ti</title><g id="Capa_2" data-name="Capa 2"><g id="Capa_1-2" data-name="Capa 1"><g id="Grupo_3461" data-name="Grupo 3461"><g id="Grupo_3439" data-name="Grupo 3439"><path id="Trazado_6778" data-name="Trazado 6778" class="cls-1" d="M40.25,15.44A2,2,0,0,0,41.4,16a2.13,2.13,0,0,0,1.16-.24A1,1,0,0,0,43,15c0-.21,0-.15,0-.28a.45.45,0,0,0-.3-.27,3.52,3.52,0,0,0-1.43-.29,1.86,1.86,0,0,0-.62.08.84.84,0,0,0-.52.58,1.24,1.24,0,0,0,.08.63"/><path id="Trazado_6779" data-name="Trazado 6779" class="cls-1" d="M41.22,14.81a7.85,7.85,0,0,1,.16-.92c.08-.21.08-.27,0-.36s-.18-.07-.28,0-.08,0-.17.19a4.38,4.38,0,0,1-.52.62c-.17.15-.49.29-.48.55a.62.62,0,0,0,.59.48A.72.72,0,0,0,41.22,14.81Z"/></g><g id="Grupo_3134" data-name="Grupo 3134"><path id="Trazado_6645" data-name="Trazado 6645" class="cls-2" d="M20.3,103.21C9,106.93.56,112.11,1.43,114.77s10.74,1.81,22-1.91S43.22,104,42.35,101.3,31.6,99.49,20.3,103.21Z"/><path id="Trazado_6646" data-name="Trazado 6646" class="cls-3" d="M34.39,54.22a39,39,0,0,0-10.9.31c-.86.15-1.67.8-2.49.55-3.78,2-4.69,7-4.73,11.22-.07,7.41,2.26,15.13,2.52,24.21.06,2-1.7,13.44,0,14.53,2,1.28,4.75-3.68,5.81-5.81,2.91-5.81,3.28-16.44,3.48-25,1.15,1.1,1.2,2.56,1.42,4.15a150.16,150.16,0,0,1,1,20.22,5.29,5.29,0,0,0,.57,3.15c1.1,1.59,3.71,1.35,5.1,0s1.9-3.34,2.31-5.24a102.69,102.69,0,0,0,2.17-23.2c-.35-6.73-2.24-13.52-6.31-18.89"/><path id="Trazado_6655" data-name="Trazado 6655" class="cls-3" d="M31.43,101.38c-.58.92.81,2.86,3.12,4.33s3.76.92,4.35,0,.07-1.86-2.23-3.33S32,100.46,31.43,101.38Z"/><path id="Trazado_6656" data-name="Trazado 6656" class="cls-3" d="M17.9,102.86c-.73.8.3,3,2.31,4.8l.07.07a3.38,3.38,0,0,0,4.78-.07c.74-.81-.17-1.06-2.18-2.91S18.63,102.06,17.9,102.86Z"/></g><g id="Grupo_3076" data-name="Grupo 3076"><g id="Grupo_3075" data-name="Grupo 3075"><path id="Trazado_6369" data-name="Trazado 6369" class="cls-4" d="M37.57,64.31A5.7,5.7,0,0,1,35.07,66a21.44,21.44,0,0,1-15.35.23,5.64,5.64,0,0,1-3.1-2.25c-1.14-1.8-.81-3.85-.62-5.92.33-3.48-.06-6.8.13-10.37a22.87,22.87,0,0,1,2.27-9.82c1.67-3.28,4.9-4.67,8.35-5.12,2.13-1.55,4.54-2.12,6.91-.75a9.81,9.81,0,0,1,4.55,6.11,19.53,19.53,0,0,1,.21,7.84,36.5,36.5,0,0,0-.71,6.68c.14,2.16.86,3.94,1.12,6S39,62.68,37.57,64.31Z"/><path id="Trazado_6370" data-name="Trazado 6370" class="cls-4" d="M32,39.66v.72a49.34,49.34,0,0,0-2.94-8.16c2.4-.8,5.18-1.83,7.54-2.45,1.88-.49,3.84-.38,5.16-1.67,1.68-1.66,1.12-3.5,1.27-5.6.07-1,.47-2.14,1.69-2.05a3.34,3.34,0,0,1,2.66,2.29c1.72,4.59.88,9-2.84,12.25a12.26,12.26,0,0,1-3.81,2,61.44,61.44,0,0,1-8.85,2.9"/><path id="Trazado_6371" data-name="Trazado 6371" class="cls-4" d="M20.48,46.09a11,11,0,0,0,1.84-7.79,2.26,2.26,0,0,0-1-1.74,2.82,2.82,0,0,0-2-.17c-3.47.4-5.85.46-8.44-2.43-2.4-2.67-3.23-6.8-5.3-9.78a4.84,4.84,0,0,0-2.27-2c-1-.35-1.58.19-2,1,.43,3,.62,6.67.78,9.46a13.33,13.33,0,0,0,.77,4.81,9.56,9.56,0,0,0,3.42,4.2,18,18,0,0,0,14.53,3.82"/><path id="Trazado_6372" data-name="Trazado 6372" class="cls-5" d="M48.79,18.85a1.63,1.63,0,0,1-.57,1.53c-.7.73-.93,1.55-2,1.81a.52.52,0,0,1-.58,0c-.35-.18-.51,0-1.17-.56s-2.56-3.12-2.1-4.35A3.33,3.33,0,0,1,44,18.8,10.9,10.9,0,0,1,44.47,15c.1-.33.44-.67.79-.5a13.69,13.69,0,0,1,.13,3.26,3.62,3.62,0,0,1,1.48-2.43,8.43,8.43,0,0,1-.35,2.91A3.61,3.61,0,0,1,48.46,17a5,5,0,0,1-1.35,2.46A7.19,7.19,0,0,1,48.79,18.85Z"/><path id="Trazado_6373" data-name="Trazado 6373" class="cls-5" d="M5.23,18.54c-.08.68-.28,2.19-.38,3-.14,1.19-.24,2.42-1.16,3.18-.51.42-1,.23-1.6.18a26.8,26.8,0,0,1-1.73-4,6.11,6.11,0,0,1,0-4.11,2.79,2.79,0,0,1,2.94-1.88c.52.08-.6,1.91-.76,2.34-.09.26-.22,1.36.37,1.44,1.05.15.84-1.91,1.89-1.62C5.33,17.19,5.3,17.86,5.23,18.54Z"/></g></g><path id="Trazado_6340" data-name="Trazado 6340" class="cls-6" d="M33.9,40.62c-1.89,1.57-3.27.4-4-1.43a17.11,17.11,0,0,0-1.26-2.58,15.57,15.57,0,0,0-1.11-1.55c-.8-1-2.14-1.63-2.78-2.68.74,1,.92,2.64,1.33,3.87a32.14,32.14,0,0,1,1.55,5.5c.24,1.57-.9,5.24-2.94,3.31-1-.93-1.48-2.94-2-4.21a24.13,24.13,0,0,0-2.13-4.4c-.89-1.36-2.54-3.81-2.26-5.57.34-2.25,3.23-3.77,5-3.95a8.85,8.85,0,0,1,5.22,1.56c2,1.18,3.08,3.79,4.35,5.69s2.15,4.07,1.58,6.23a1.84,1.84,0,0,1-.41,0,.36.36,0,0,1,0-.44"/><g id="Grupo_3440" data-name="Grupo 3440"><path id="Trazado_6341" data-name="Trazado 6341" class="cls-1" d="M19.54,23.71c2.89-.56,5.64.18,8.51-.35-.13.13-.29.19-.39.35,1.82,0,3.61,3.47,4.11,4.56,1.22,2.65,1,3.9,1.8,6.68.32,1.13,1.89,4.59,1.92,5.75s-1.23.35-1.6.84a27.48,27.48,0,0,1-3.5-4c-1.3-1.79-2.36-4-3.77-6.35-.48-.81-.28-.12.06.22-2.2,1.57-1.38,4.31-.89,6.67.3,1.44.31,6.74-.5,8.84a2.2,2.2,0,0,1-1.69.73C23,46,22.52,43.47,22.11,41.87a27.81,27.81,0,0,0-2.78-7.26c-1.66-2.6-2.45-3.11-2.7-6.13C16.44,26.19,17.09,24.19,19.54,23.71Z"/><path id="Trazado_6343" data-name="Trazado 6343" class="cls-7" d="M23.37,47.25c-.21.8,1.6,1.2,2.17,1.27s2.27.6,2.51-.22-1.38-1.44-2-1.52S23.57,46.45,23.37,47.25Z"/></g><path id="Trazado_6344" data-name="Trazado 6344" class="cls-7" d="M33.7,41.81c.06.45,1.18.67,2.48.49s2.33-.7,2.26-1.15-1.17-.67-2.48-.48S33.64,41.36,33.7,41.81Z"/><g id="Grupo_3441" data-name="Grupo 3441"><path id="Trazado_6780" data-name="Trazado 6780" class="cls-1" d="M6.72,14.31a2,2,0,0,1-1.18.46,2.14,2.14,0,0,1-1.13-.31A.94.94,0,0,1,4,13.72c0-.22,0-.15,0-.28a.54.54,0,0,1,.32-.25A3.36,3.36,0,0,1,5.78,13a1.67,1.67,0,0,1,.62.12.87.87,0,0,1,.49.61,1.33,1.33,0,0,1-.13.62"/><path id="Trazado_6781" data-name="Trazado 6781" class="cls-1" d="M5.81,13.62c0-.3,0-.72-.1-.93s-.08-.27,0-.36.18-.05.27,0,.08.05.16.2a4.43,4.43,0,0,0,.49.65c.16.16.47.32.44.58a.6.6,0,0,1-.62.44A.71.71,0,0,1,5.81,13.62Z"/><path id="Trazado_6782" data-name="Trazado 6782" class="cls-3" d="M20.33,17a10.39,10.39,0,0,1-7.39,1.48c-2.54-.37-4.39-2-6.23-3.62a.67.67,0,0,1-.32-.57,1.13,1.13,0,0,1,.88-.95,3.53,3.53,0,0,1,1.55,0,11.68,11.68,0,0,0,3.88.75,5.87,5.87,0,0,0,2.89-1.44,15.44,15.44,0,0,1,2.72-1.53,4.09,4.09,0,0,1,3-.1,6.47,6.47,0,0,1-.1,5.21,1.52,1.52,0,0,1-.8.87"/></g><path id="Trazado_6783" data-name="Trazado 6783" class="cls-3" d="M25.49,10.77c2.87-2.15,10.05,3.59,12.2,3.59,1,0,1.71-.24,2.16.26a3.86,3.86,0,0,1,.72,1.18s-7.18,1.43-9.34.72a50.58,50.58,0,0,1-5-2.16Z"/><path id="Trazado_6342" data-name="Trazado 6342" class="cls-3" d="M14.72,23.7A21.58,21.58,0,0,1,18.5,11.8c.92-1.3,1.85-1.4,3.4-1.75,3.2-.73,5.22.54,5.8,1.36a11.47,11.47,0,0,1,1.68,3.26c.38,1.59,0,2.9,0,4.12-1.74,7.06,6.56,12.29,6.16,13.52-.46,1.43-13.77,3.36-14.83,3C16.15,34.47,14.72,26.32,14.72,23.7Z"/><path id="Trazado_6784" data-name="Trazado 6784" class="cls-1" d="M18.11,6.24A5.22,5.22,0,0,1,23.57,2c3.49,0,2.88,4,3.12,5.87.37,3-2.33,4.58-4.86,4.14A4.89,4.89,0,0,1,18.11,6.24Z"/><path id="Trazado_6785" data-name="Trazado 6785" class="cls-8" d="M19.05,10.34s-.74-1.87.38-3,6.73-2.25,6-4.86S20.89-.28,19.05.24C16.47,1,15,4.36,15.32,6.6c.18,1.17,1.5,3.36,3.36,3.74"/><path id="Trazado_6786" data-name="Trazado 6786" class="cls-8" d="M24.28,3a3.11,3.11,0,0,1,1.81,2.27A12,12,0,0,1,26.55,8s2.27-1.37.91-4.55-2.73-1.82-2.73-1.82Z"/><g id="Grupo_3074" data-name="Grupo 3074"><path id="Trazado_6374" data-name="Trazado 6374" class="cls-5" d="M25.44,19.14c-3.2.62-5.12,4.57-4.31,8.83s4.08,7.21,7.27,6.6,5.13-4.57,4.31-8.83S28.64,18.53,25.44,19.14Z"/><path id="Trazado_6375" data-name="Trazado 6375" class="cls-8" d="M22.41,31.32a.26.26,0,0,0,.13.19,10.2,10.2,0,0,0,.27-5.94,24.9,24.9,0,0,0,8.3-.5,4.57,4.57,0,0,0,2.59-1.29,3.42,3.42,0,0,0,.64-2.42,2.86,2.86,0,0,0-1.92-2.49,22.79,22.79,0,0,0-5.82-1.28,7.2,7.2,0,0,0-2,.05,8.2,8.2,0,0,0-3.42,1.84,5,5,0,0,0-1.22,1.22,1.93,1.93,0,0,0-.1,1.72,4.45,4.45,0,0,0-1.07,5.06,9.09,9.09,0,0,0,3.67,4"/><path id="Trazado_6376" data-name="Trazado 6376" class="cls-5" d="M21.2,29.63c-.38.29-.33,1,.11,1.54s1.1.78,1.47.48.33-1-.11-1.54S21.58,29.34,21.2,29.63Z"/></g><rect id="Rectángulo_2629" data-name="Rectángulo 2629" class="cls-5" x="25.49" y="33.75" width="2.87" height="2.15"/><path id="Trazado_6787" data-name="Trazado 6787" class="cls-5" d="M25.49,35.9A16.57,16.57,0,0,1,23,32.15c-.38-1.27,3.93-1.27,3.93-1.27Z"/></g></g></g></svg>