<svg xmlns="http://www.w3.org/2000/svg" viewBox="0 0 338.63 314.67"><title>Recurso 8</title><g id="Capa_2" data-name="Capa 2"><g id="Capa_1-2" data-name="Capa 1"><path d="M303.67,314.67a14.31,14.31,0,0,1-9.28-3.41L186.7,220.12A120.18,120.18,0,0,1,32.25,202,119.16,119.16,0,0,1,.31,111.48C4.47,52.11,52.38,4.31,111.76.29a119.16,119.16,0,0,1,90.36,32.05,120.13,120.13,0,0,1,24.93,142.51L333.54,265a14.4,14.4,0,0,1,1.69,20.27l-20.56,24.31a14.28,14.28,0,0,1-9.78,5C304.48,314.65,304.07,314.67,303.67,314.67ZM187,208.48a5.17,5.17,0,0,1,3.34,1.21l110.71,93.7a4,4,0,0,0,3,.95,4.07,4.07,0,0,0,2.76-1.43l20.57-24.31a4.09,4.09,0,0,0-.48-5.74L217.2,180a5.15,5.15,0,0,1-1.17-6.46,109.8,109.8,0,0,0-103.57-163C58.19,14.25,14.4,57.94,10.6,112.2A109,109,0,0,0,39.8,195a110.17,110.17,0,0,0,80.32,34.95A109.08,109.08,0,0,0,184,209.44,5.1,5.1,0,0,1,187,208.48Zm-67-3.09a85.09,85.09,0,0,1-8.57-.43h0a85.48,85.48,0,1,1,8.57.43Zm-7.55-10.69a75,75,0,1,0-66.95-66.94,74.94,74.94,0,0,0,66.95,66.94Z"/><path d="M120.12,205.39a85.27,85.27,0,1,1,85.27-85.27A85.36,85.36,0,0,1,120.12,205.39Zm0-160.23a75,75,0,1,0,74.95,75A75,75,0,0,0,120.12,45.16Z"/><path d="M120.12,205.39a85.27,85.27,0,1,1,85.27-85.27A85.36,85.36,0,0,1,120.12,205.39Zm0-160.23a75,75,0,1,0,74.95,75A75,75,0,0,0,120.12,45.16Z"/><path d="M95.8,151a5.16,5.16,0,0,1-3.65-8.8L143,91.39a5.16,5.16,0,1,1,7.3,7.3l-50.81,50.8A5.12,5.12,0,0,1,95.8,151Z"/><path d="M146.6,151a5.14,5.14,0,0,1-3.65-1.51l-50.8-50.8a5.16,5.16,0,1,1,7.29-7.3l50.81,50.81a5.16,5.16,0,0,1-3.65,8.8Z"/></g></g></svg>