<svg xmlns="http://www.w3.org/2000/svg" xmlns:xlink="http://www.w3.org/1999/xlink" viewBox="0 0 894.57 340.67"><defs><style>.cls-1{fill:url(#Degradado_sin_nombre_16);}.cls-2{fill:url(#Degradado_sin_nombre_16-2);}.cls-3{fill:url(#Degradado_sin_nombre_16-3);}.cls-4{fill:url(#Degradado_sin_nombre_8);}.cls-5{fill:url(#Degradado_sin_nombre_8-2);}.cls-6{fill:url(#Degradado_sin_nombre_16-4);}.cls-7{fill:url(#Degradado_sin_nombre_8-3);}.cls-8{fill:url(#Degradado_sin_nombre_16-5);}.cls-9{fill:url(#Degradado_sin_nombre_16-6);}.cls-10{fill:url(#Degradado_sin_nombre_16-7);}.cls-11{fill:url(#Degradado_sin_nombre_16-8);}.cls-12{fill:url(#Degradado_sin_nombre_16-9);}.cls-13{fill:url(#Degradado_sin_nombre_8-4);}.cls-14{fill:url(#Degradado_sin_nombre_16-10);}.cls-15{fill:url(#Degradado_sin_nombre_2);}.cls-16{fill:#dce6ef;}.cls-17{fill:#9cabbb;}.cls-18{fill:#c0cbdc;}.cls-19{fill:#8599b3;}.cls-20{fill:url(#Degradado_sin_nombre_2-2);}.cls-21{fill:#7588a4;}.cls-22{fill:url(#Degradado_sin_nombre_2-3);}.cls-23{fill:#899ab3;}.cls-24{fill:url(#Degradado_sin_nombre_2-4);}.cls-25{fill:#a8b4c7;}.cls-26{fill:url(#Degradado_sin_nombre_2-5);}.cls-27{fill:#eaeef7;}.cls-28{fill:url(#Degradado_sin_nombre_2-6);}.cls-29{fill:url(#Degradado_sin_nombre_2-7);}.cls-30{fill:url(#Degradado_sin_nombre_2-8);}.cls-31,.cls-39{fill:#006cb9;}.cls-31{opacity:0.57;isolation:isolate;}.cls-32{fill:#002d53;}.cls-33{fill:#0c5c88;}.cls-34{fill:#0097e5;}.cls-35,.cls-42,.cls-45{fill:none;stroke-miterlimit:10;}.cls-35,.cls-42{stroke:#002d53;}.cls-36{fill:#dce6f6;}.cls-37{fill:#f5ebe4;}.cls-38{fill:#008bcd;}.cls-40{fill:#70c0e8;}.cls-41{fill:#f7ebe6;}.cls-42,.cls-45{stroke-width:0.25px;}.cls-43{fill:#004a78;}.cls-44{fill:#29526e;}.cls-45{stroke:#006cb9;}</style><linearGradient id="Degradado_sin_nombre_16" x1="3892.74" y1="4710.74" x2="3892.59" y2="4710.28" gradientTransform="matrix(270.4, 0, 0, -156.13, -1052217.39, 735955.65)" gradientUnits="userSpaceOnUse"><stop offset="0" stop-color="#e5e9ed"/><stop offset="1" stop-color="#e5e9ed" stop-opacity="0"/></linearGradient><linearGradient id="Degradado_sin_nombre_16-2" x1="3893.06" y1="4711.39" x2="3892.97" y2="4711.12" gradientTransform="matrix(270.4, 0, 0, -156.13, -1052539.39, 736004.65)" xlink:href="#Degradado_sin_nombre_16"/><linearGradient id="Degradado_sin_nombre_16-3" x1="3893.04" y1="4712.15" x2="3893.03" y2="4712.1" gradientTransform="matrix(270.4, 0, 0, -156.13, -1051837.39, 736054.65)" xlink:href="#Degradado_sin_nombre_16"/><linearGradient id="Degradado_sin_nombre_8" x1="3885.79" y1="4721.75" x2="3885.58" y2="4721.12" gradientTransform="matrix(187.49, 0, 0, -108.26, -728465.46, 511584.91)" gradientUnits="userSpaceOnUse"><stop offset="0" stop-color="#c5d1de"/><stop offset="1" stop-color="#e5e9ed" stop-opacity="0"/></linearGradient><linearGradient id="Degradado_sin_nombre_8-2" x1="3885.23" y1="4721.75" x2="3885.02" y2="4721.12" gradientTransform="matrix(187.49, 0, 0, -108.26, -727760.46, 511628.91)" xlink:href="#Degradado_sin_nombre_8"/><linearGradient id="Degradado_sin_nombre_16-4" x1="3886.51" y1="4716.6" x2="3886.3" y2="4715.98" gradientTransform="matrix(201.77, 0, 0, -116.52, -783989.55, 550245.92)" xlink:href="#Degradado_sin_nombre_16"/><linearGradient id="Degradado_sin_nombre_8-3" x1="3867.21" y1="4753.17" x2="3866.21" y2="4753.17" gradientTransform="matrix(105.73, 0, 0, -61.06, -408534.05, 290519.32)" xlink:href="#Degradado_sin_nombre_8"/><linearGradient id="Degradado_sin_nombre_16-5" x1="3867.63" y1="4753.16" x2="3866.63" y2="4753.16" gradientTransform="matrix(105.73, 0, 0, -61.06, -408687.57, 290507.77)" xlink:href="#Degradado_sin_nombre_16"/><linearGradient id="Degradado_sin_nombre_16-6" x1="3867.63" y1="4753.16" x2="3866.63" y2="4753.16" gradientTransform="matrix(105.73, 0, 0, -61.06, -409071.57, 290469.77)" xlink:href="#Degradado_sin_nombre_16"/><linearGradient id="Degradado_sin_nombre_16-7" x1="3872.18" y1="4750.72" x2="3873.06" y2="4749.85" gradientTransform="matrix(105.73, 0, 0, -61.06, -408905.3, 290476.46)" xlink:href="#Degradado_sin_nombre_16"/><linearGradient id="Degradado_sin_nombre_16-8" x1="3871.18" y1="4750.72" x2="3872.07" y2="4749.85" gradientTransform="matrix(105.73, 0, 0, -61.06, -408203.3, 290526.46)" xlink:href="#Degradado_sin_nombre_16"/><linearGradient id="Degradado_sin_nombre_16-9" x1="3890.86" y1="4713.11" x2="3890.84" y2="4713.06" gradientTransform="matrix(270.4, 0, 0, -156.13, -1051837.39, 736054.65)" xlink:href="#Degradado_sin_nombre_16"/><linearGradient id="Degradado_sin_nombre_8-4" x1="3882.12" y1="4723.72" x2="3882.01" y2="4723.37" gradientTransform="matrix(187.49, 0, 0, -108.26, -727760.46, 511628.91)" xlink:href="#Degradado_sin_nombre_8"/><linearGradient id="Degradado_sin_nombre_16-10" x1="3865.59" y1="4753.18" x2="3866.48" y2="4752.31" gradientTransform="matrix(105.73, 0, 0, -61.06, -408203.3, 290526.46)" xlink:href="#Degradado_sin_nombre_16"/><linearGradient id="Degradado_sin_nombre_2" x1="3879.95" y1="4757.28" x2="3879.95" y2="4756.45" gradientTransform="matrix(144.42, 0, 0, -57.87, -559909.13, 275481.49)" gradientUnits="userSpaceOnUse"><stop offset="0" stop-color="#96a6c5"/><stop offset="1" stop-color="#f0f4f9"/></linearGradient><linearGradient id="Degradado_sin_nombre_2-2" x1="3884.47" y1="4745.97" x2="3883.86" y2="4746.32" gradientTransform="matrix(170, 0, 0, -68.11, -660037.17, 323446.82)" xlink:href="#Degradado_sin_nombre_2"/><linearGradient id="Degradado_sin_nombre_2-3" x1="3884.18" y1="4746.26" x2="3884.14" y2="4745.79" gradientTransform="matrix(170, 0, 0, -68.11, -659722.46, 323455.8)" xlink:href="#Degradado_sin_nombre_2"/><linearGradient id="Degradado_sin_nombre_2-4" x1="3837.08" y1="4813.34" x2="3836.41" y2="4812.24" gradientTransform="matrix(56.65, 0, 0, -32.56, -217180.88, 156950.08)" xlink:href="#Degradado_sin_nombre_2"/><linearGradient id="Degradado_sin_nombre_2-5" x1="3890.57" y1="4717.81" x2="3890.57" y2="4716.98" gradientTransform="matrix(232.42, 0, 0, -128.87, -903882.29, 608199.44)" xlink:href="#Degradado_sin_nombre_2"/><linearGradient id="Degradado_sin_nombre_2-6" x1="3848.41" y1="4816.65" x2="3849.41" y2="4816.65" gradientTransform="matrix(65, 0, 0, -31.56, -249459.4, 152242.62)" xlink:href="#Degradado_sin_nombre_2"/><linearGradient id="Degradado_sin_nombre_2-7" x1="3849.69" y1="4816.65" x2="3850.69" y2="4816.65" gradientTransform="matrix(65, 0, 0, -31.56, -249500.99, 152217.58)" xlink:href="#Degradado_sin_nombre_2"/><linearGradient id="Degradado_sin_nombre_2-8" x1="3847.44" y1="4816.65" x2="3848.44" y2="4816.65" gradientTransform="matrix(65, 0, 0, -31.56, -249427.92, 152288.34)" xlink:href="#Degradado_sin_nombre_2"/></defs><title>Recurso 3</title><g id="Capa_2" data-name="Capa 2"><g id="Capa_1-2" data-name="Capa 1"><g id="Grupo_1250" data-name="Grupo 1250"><path id="Trazado_2638-2" data-name="Trazado 2638-2" class="cls-1" d="M597.82,227.47a7.5,7.5,0,0,1-6.84,0c-1.87-1.08-1.88-2.87,0-4a7.56,7.56,0,0,1,6.84,0C599.73,224.61,599.69,226.39,597.82,227.47Zm-13.74,7.93a7.48,7.48,0,0,1-6.83,0c-1.87-1.09-1.89-2.87,0-4a7.5,7.5,0,0,1,6.84,0c1.89,1.09,1.88,2.86,0,4Zm-13.7,7.91a7.5,7.5,0,0,1-6.84,0c-1.87-1.08-1.88-2.86,0-4a7.57,7.57,0,0,1,6.83,0C572.27,240.46,572.26,242.23,570.38,243.31Zm-13.73,7.93a7.52,7.52,0,0,1-6.85,0c-1.86-1.08-1.88-2.87,0-4a7.52,7.52,0,0,1,6.85,0c1.89,1.1,1.87,2.87,0,4Zm-13.72,7.92a7.54,7.54,0,0,1-6.83,0c-1.87-1.09-1.89-2.87,0-4a7.56,7.56,0,0,1,6.81,0c1.89,1.1,1.88,2.87,0,4Zm-13.73,7.92a7.5,7.5,0,0,1-6.84,0c-1.87-1.08-1.88-2.87,0-4a7.58,7.58,0,0,1,6.85,0c1.89,1.1,1.88,2.87,0,4ZM515.47,275a7.56,7.56,0,0,1-6.84,0c-1.87-1.09-1.86-2.89,0-4a7.58,7.58,0,0,1,6.85,0c1.88,1.1,1.87,2.87,0,4Zm-13.71,7.91a7.5,7.5,0,0,1-6.84,0c-1.86-1.08-1.88-2.87,0-4a7.56,7.56,0,0,1,6.84,0c1.89,1.1,1.89,2.87,0,4ZM488,290.86a7.56,7.56,0,0,1-6.84,0c-1.87-1.09-1.86-2.88,0-4a7.56,7.56,0,0,1,6.84,0c1.9,1.1,1.88,2.87,0,4Zm-13.71,7.91a7.5,7.5,0,0,1-6.84,0c-1.87-1.09-1.88-2.87,0-4a7.65,7.65,0,0,1,6.85,0c1.88,1.11,1.85,2.89,0,4Zm-13.73,7.93a7.58,7.58,0,0,1-6.85,0c-1.86-1.09-1.88-2.87,0-4a7.56,7.56,0,0,1,6.84,0C462.5,303.83,462.49,305.6,460.59,306.7Zm-13.72,7.91a7.48,7.48,0,0,1-6.83,0c-1.87-1.08-1.88-2.86,0-4a7.62,7.62,0,0,1,6.84,0c1.89,1.1,1.86,2.88,0,4Zm-13.72,7.93a7.52,7.52,0,0,1-6.85,0c-1.87-1.08-1.87-2.86,0-4a7.58,7.58,0,0,1,6.85,0c1.89,1.1,1.88,2.87,0,4Zm-13.71,7.92a7.58,7.58,0,0,1-6.85,0c-1.86-1.09-1.88-2.87,0-4a7.55,7.55,0,0,1,6.82,0c1.88,1.1,1.87,2.87,0,3.95Zm-13.74,7.92a7.5,7.5,0,0,1-6.84,0c-1.87-1.08-1.88-2.86,0-4a7.52,7.52,0,0,1,6.85,0c1.88,1.1,1.88,2.87,0,4Z"/><path id="Trazado_2649-2" data-name="Trazado 2649-2" class="cls-2" d="M275.82,276.47a7.5,7.5,0,0,1-6.84,0c-1.87-1.08-1.88-2.87,0-4a7.56,7.56,0,0,1,6.84,0C277.73,273.61,277.69,275.39,275.82,276.47Zm-13.74,7.93a7.48,7.48,0,0,1-6.83,0c-1.87-1.09-1.89-2.87,0-4a7.5,7.5,0,0,1,6.84,0c1.89,1.09,1.88,2.86,0,4Zm-13.7,7.91a7.5,7.5,0,0,1-6.84,0c-1.87-1.08-1.88-2.86,0-4a7.57,7.57,0,0,1,6.83,0C250.27,289.46,250.26,291.23,248.38,292.31Zm-13.73,7.93a7.52,7.52,0,0,1-6.85,0c-1.86-1.08-1.88-2.87,0-4a7.52,7.52,0,0,1,6.85,0c1.89,1.1,1.87,2.87,0,4Zm-13.72,7.92a7.54,7.54,0,0,1-6.83,0c-1.87-1.09-1.89-2.87,0-4a7.56,7.56,0,0,1,6.81,0c1.89,1.1,1.88,2.87,0,4Zm-13.73,7.92a7.5,7.5,0,0,1-6.84,0c-1.87-1.08-1.88-2.87,0-4a7.58,7.58,0,0,1,6.85,0c1.89,1.1,1.88,2.87,0,4ZM193.47,324a7.56,7.56,0,0,1-6.84,0c-1.87-1.09-1.86-2.89,0-4a7.58,7.58,0,0,1,6.85,0c1.88,1.1,1.87,2.87,0,4Zm-13.71,7.91a7.5,7.5,0,0,1-6.84,0c-1.86-1.08-1.88-2.87,0-4a7.56,7.56,0,0,1,6.84,0c1.89,1.1,1.89,2.87,0,4ZM166,339.86a7.56,7.56,0,0,1-6.84,0c-1.87-1.09-1.86-2.88,0-4a7.56,7.56,0,0,1,6.84,0c1.9,1.1,1.88,2.87,0,4Z"/><path id="Trazado_2652-2" data-name="Trazado 2652-2" class="cls-3" d="M872.82,326.47a7.5,7.5,0,0,1-6.84,0c-1.87-1.08-1.88-2.87,0-4a7.56,7.56,0,0,1,6.84,0C874.73,323.61,874.69,325.39,872.82,326.47Zm-13.74,7.93a7.48,7.48,0,0,1-6.83,0c-1.87-1.09-1.89-2.87,0-4a7.5,7.5,0,0,1,6.84,0c1.89,1.09,1.88,2.86,0,4Z"/><path id="Trazado_2639-2" data-name="Trazado 2639-2" class="cls-4" d="M293.14,140.88a7.5,7.5,0,0,1-6.84,0c-1.88-1.08-1.89-2.86,0-4a7.52,7.52,0,0,1,6.85,0C295.05,138,295,139.79,293.14,140.88Zm-13.75,7.93a7.54,7.54,0,0,1-6.83,0c-1.88-1.09-1.86-2.88,0-4a7.58,7.58,0,0,1,6.85,0C281.31,145.94,281.3,147.71,279.39,148.81Zm-13.7,7.92a7.5,7.5,0,0,1-6.84,0c-1.87-1.09-1.88-2.87,0-4a7.56,7.56,0,0,1,6.84,0c1.89,1.09,1.86,2.87,0,4ZM252,164.66a7.56,7.56,0,0,1-6.84,0c-1.86-1.09-1.88-2.87,0-4a7.56,7.56,0,0,1,6.84,0c1.89,1.1,1.88,2.87,0,4Zm-13.7,7.91a7.5,7.5,0,0,1-6.84,0c-1.87-1.08-1.88-2.87,0-4a7.57,7.57,0,0,1,6.83,0c1.89,1.1,1.88,2.87,0,4Zm-13.73,7.93a7.58,7.58,0,0,1-6.85,0c-1.87-1.09-1.88-2.87,0-4a7.58,7.58,0,0,1,6.85,0c1.89,1.1,1.88,2.87,0,4Zm-13.72,7.91a7.5,7.5,0,0,1-6.84,0c-1.86-1.09-1.88-2.86,0-4a7.56,7.56,0,0,1,6.81,0c1.89,1.1,1.89,2.87,0,3.95Zm-13.73,7.93a7.53,7.53,0,0,1-6.84,0c-1.87-1.09-1.88-2.88,0-4a7.58,7.58,0,0,1,6.85,0c1.89,1.1,1.88,2.86,0,4Zm-13.73,7.93a7.56,7.56,0,0,1-6.84,0c-1.87-1.08-1.86-2.88,0-4a7.56,7.56,0,0,1,6.84,0c1.89,1.11,1.88,2.88,0,4Zm-13.71,7.92a7.56,7.56,0,0,1-6.84,0c-1.86-1.09-1.88-2.87,0-4a7.56,7.56,0,0,1,6.84,0c1.9,1.1,1.89,2.87,0,4Zm-13.73,7.92a7.56,7.56,0,0,1-6.84,0c-1.87-1.08-1.86-2.88,0-4a7.5,7.5,0,0,1,6.84,0c1.9,1.1,1.88,2.87,0,4ZM142.19,228a7.5,7.5,0,0,1-6.84,0c-1.87-1.09-1.88-2.87,0-4a7.65,7.65,0,0,1,6.85,0c1.88,1.1,1.85,2.88,0,4ZM128.46,236a7.55,7.55,0,0,1-6.85,0c-1.86-1.09-1.88-2.87,0-4a7.52,7.52,0,0,1,6.85,0c1.89,1.09,1.88,2.86,0,4Zm-13.72,7.91c-1.9,1.1-6.84,0-6.84,0s-1.88-2.86,0-4a7.63,7.63,0,0,1,6.84,0c1.89,1.1,1.86,2.88,0,4Z"/><path id="Trazado_2650-2" data-name="Trazado 2650-2" class="cls-5" d="M893.14,184.88a7.5,7.5,0,0,1-6.84,0c-1.88-1.08-1.89-2.86,0-4a7.52,7.52,0,0,1,6.85,0C895.05,182,895,183.79,893.14,184.88Zm-13.75,7.93a7.54,7.54,0,0,1-6.83,0c-1.88-1.09-1.86-2.88,0-4a7.58,7.58,0,0,1,6.85,0C881.31,189.94,881.3,191.71,879.39,192.81Zm-13.7,7.92a7.5,7.5,0,0,1-6.84,0c-1.87-1.09-1.88-2.87,0-4a7.56,7.56,0,0,1,6.84,0c1.89,1.09,1.86,2.87,0,4ZM852,208.66a7.56,7.56,0,0,1-6.84,0c-1.86-1.09-1.88-2.87,0-4a7.56,7.56,0,0,1,6.84,0c1.89,1.1,1.88,2.87,0,4Zm-13.7,7.91a7.5,7.5,0,0,1-6.84,0c-1.87-1.08-1.88-2.87,0-4a7.57,7.57,0,0,1,6.83,0c1.89,1.1,1.88,2.87,0,4Zm-13.73,7.93a7.58,7.58,0,0,1-6.85,0c-1.87-1.09-1.88-2.87,0-4a7.58,7.58,0,0,1,6.85,0c1.89,1.1,1.88,2.87,0,4Zm-13.72,7.91a7.5,7.5,0,0,1-6.84,0c-1.86-1.09-1.88-2.86,0-4a7.56,7.56,0,0,1,6.81,0c1.89,1.1,1.89,2.87,0,3.95Zm-13.73,7.93a7.53,7.53,0,0,1-6.84,0c-1.87-1.09-1.88-2.88,0-4a7.58,7.58,0,0,1,6.85,0c1.89,1.1,1.88,2.86,0,4Zm-13.73,7.93a7.56,7.56,0,0,1-6.84,0c-1.87-1.08-1.86-2.88,0-4a7.56,7.56,0,0,1,6.84,0c1.89,1.11,1.88,2.88,0,4Zm-13.71,7.92a7.56,7.56,0,0,1-6.84,0c-1.86-1.09-1.88-2.87,0-4a7.56,7.56,0,0,1,6.84,0c1.9,1.1,1.89,2.87,0,4Zm-13.73,7.92a7.56,7.56,0,0,1-6.84,0c-1.87-1.08-1.86-2.88,0-4a7.5,7.5,0,0,1,6.84,0c1.9,1.1,1.88,2.87,0,4ZM742.19,272a7.5,7.5,0,0,1-6.84,0c-1.87-1.09-1.88-2.87,0-4a7.65,7.65,0,0,1,6.85,0c1.88,1.1,1.85,2.88,0,4ZM728.46,280a7.55,7.55,0,0,1-6.85,0c-1.86-1.09-1.88-2.87,0-4a7.52,7.52,0,0,1,6.85,0c1.89,1.09,1.88,2.86,0,4Zm-13.72,7.91c-1.9,1.1-6.84,0-6.84,0s-1.88-2.86,0-4a7.62,7.62,0,0,1,6.84,0c1.89,1.1,1.86,2.88,0,4Z"/><path id="Trazado_2640-2" data-name="Trazado 2640-2" class="cls-6" d="M584.42,123.73a7.5,7.5,0,0,1-6.84,0c-1.87-1.08-1.85-2.88,0-4a7.56,7.56,0,0,1,6.84,0C586.33,120.87,586.32,122.64,584.42,123.73Zm-13.7,7.92a7.52,7.52,0,0,1-6.85,0c-1.87-1.09-1.88-2.87,0-4a7.65,7.65,0,0,1,6.85,0c1.89,1.1,1.85,2.88,0,4ZM557,139.58a7.5,7.5,0,0,1-6.84,0c-1.87-1.08-1.88-2.87,0-4a7.56,7.56,0,0,1,6.84,0C558.89,136.72,558.88,138.48,557,139.58Zm-13.71,7.91a7.5,7.5,0,0,1-6.84,0c-1.87-1.09-1.88-2.87,0-4a7.55,7.55,0,0,1,6.82,0c1.89,1.1,1.88,2.87,0,4Zm-13.74,7.93a7.48,7.48,0,0,1-6.83,0c-1.87-1.08-1.89-2.87,0-4a7.5,7.5,0,0,1,6.84,0c1.89,1.09,1.88,2.86,0,4Zm-13.73,7.93a7.53,7.53,0,0,1-6.81,0c-1.87-1.09-1.88-2.87,0-4a7.52,7.52,0,0,1,6.85,0c1.89,1.09,1.88,2.86,0,4Zm-13.7,7.91a7.52,7.52,0,0,1-6.85,0c-1.86-1.08-1.88-2.86,0-4a7.52,7.52,0,0,1,6.85,0c1.89,1.1,1.88,2.87,0,4Zm-13.74,7.93a7.56,7.56,0,0,1-6.84,0c-1.87-1.08-1.86-2.88,0-4a7.56,7.56,0,0,1,6.84,0c1.89,1.1,1.89,2.87,0,4Zm-13.71,7.92a7.5,7.5,0,0,1-6.84,0c-1.87-1.09-1.88-2.87,0-4a7.58,7.58,0,0,1,6.85,0c1.89,1.1,1.87,2.87,0,4ZM460.92,195a7.56,7.56,0,0,1-6.84,0c-1.87-1.09-1.86-2.88,0-4a7.52,7.52,0,0,1,6.85,0c1.88,1.09,1.87,2.86,0,4ZM447.21,203a7.5,7.5,0,0,1-6.84,0c-1.87-1.08-1.88-2.86,0-4a7.63,7.63,0,0,1,6.84,0c1.9,1.1,1.86,2.88,0,4Zm-13.74,7.93a7.5,7.5,0,0,1-6.84,0c-1.86-1.08-1.87-2.87,0-4a7.56,7.56,0,0,1,6.84,0c1.89,1.11,1.88,2.87,0,4Zm-13.7,7.91a7.5,7.5,0,0,1-6.84,0c-1.87-1.08-1.88-2.86,0-4a7.57,7.57,0,0,1,6.83,0c1.89,1.1,1.88,2.87,0,3.95ZM406,226.72a7.52,7.52,0,0,1-6.85,0c-1.86-1.08-1.88-2.87,0-4a7.58,7.58,0,0,1,6.85,0c1.89,1.1,1.88,2.86,0,4Zm-13.74,7.93a7.47,7.47,0,0,1-6.81,0c-1.87-1.08-1.88-2.86,0-3.95a7.56,7.56,0,0,1,6.84,0c1.9,1.1,1.89,2.86,0,4Z"/><path id="Trazado_2644-2" data-name="Trazado 2644-2" class="cls-7" d="M562.81,259.24a7.54,7.54,0,0,0,6.83,0c1.88-1.09,1.86-2.88,0-4a7.52,7.52,0,0,0-6.85,0C560.89,256.37,560.9,258.14,562.81,259.24Zm13.68,3.95a7.65,7.65,0,0,1,6.85,0c1.9,1.1,1.88,2.88,0,4a7.58,7.58,0,0,1-6.85,0c-1.87-1.09-1.91-2.87,0-4Zm13.74,7.93a7.56,7.56,0,0,1,6.84,0c1.9,1.1,1.88,2.88,0,4a7.5,7.5,0,0,1-6.84,0c-1.91-1.1-1.91-2.86,0-4ZM604,279a7.58,7.58,0,0,1,6.82,0c1.9,1.1,1.89,2.88,0,4a7.5,7.5,0,0,1-6.84,0c-1.88-1.09-1.89-2.86,0-3.95Zm13.7,7.92a7.58,7.58,0,0,1,6.85,0c1.9,1.1,1.89,2.88,0,4a7.5,7.5,0,0,1-6.84,0c-1.9-1.1-1.91-2.86,0-4Zm13.74,7.93a7.56,7.56,0,0,1,6.84,0c1.88,1.08,1.87,2.86,0,3.95a7.52,7.52,0,0,1-6.82,0c-1.9-1.1-1.91-2.86,0-4Zm13.71,7.91a7.56,7.56,0,0,1,6.84,0c1.91,1.1,1.89,2.89,0,4a7.48,7.48,0,0,1-6.83,0c-1.91-1.1-1.92-2.87,0-4Zm13.73,7.93a7.58,7.58,0,0,1,6.85,0c1.87,1.09,1.89,2.88,0,4a7.54,7.54,0,0,1-6.83,0c-1.91-1.1-1.92-2.87,0-4Z"/><path id="Trazado_2645-2" data-name="Trazado 2645-2" class="cls-8" d="M385.43,235.1a7.56,7.56,0,0,0,6.84,0c1.87-1.09,1.86-2.89,0-4a7.56,7.56,0,0,0-6.84,0C383.52,232.23,383.53,234,385.43,235.1Zm13.68,4a7.65,7.65,0,0,1,6.85,0c1.9,1.1,1.89,2.88,0,4a7.5,7.5,0,0,1-6.84,0c-1.87-1.08-1.91-2.87,0-4ZM412.85,247a7.58,7.58,0,0,1,6.85,0c1.9,1.1,1.88,2.88,0,4a7.5,7.5,0,0,1-6.84,0c-1.9-1.1-1.9-2.87,0-4Zm13.73,7.92a7.58,7.58,0,0,1,6.82,0c1.91,1.1,1.89,2.88,0,4a7.58,7.58,0,0,1-6.85,0c-1.87-1.09-1.88-2.86,0-4Zm13.71,7.92a7.56,7.56,0,0,1,6.84,0c1.9,1.1,1.89,2.88,0,4a7.5,7.5,0,0,1-6.84,0c-1.9-1.1-1.91-2.86,0-4ZM454,270.75a7.58,7.58,0,0,1,6.85,0c1.87,1.08,1.86,2.86,0,3.95a7.5,7.5,0,0,1-6.81,0c-1.9-1.1-1.91-2.86,0-4Zm13.71,7.91a7.58,7.58,0,0,1,6.85,0c1.9,1.1,1.89,2.89,0,4a7.5,7.5,0,0,1-6.84,0c-1.9-1.1-1.91-2.87,0-4Zm13.74,7.93a7.56,7.56,0,0,1,6.84,0c1.88,1.09,1.89,2.88,0,4a7.56,7.56,0,0,1-6.84,0c-1.9-1.1-1.91-2.87,0-4Z"/><path id="Trazado_2655-2" data-name="Trazado 2655-2" class="cls-9" d="M1.43,197.1a7.56,7.56,0,0,0,6.84,0c1.87-1.09,1.86-2.89,0-4a7.56,7.56,0,0,0-6.84,0C-.48,194.23-.47,196,1.43,197.1Zm13.68,4a7.65,7.65,0,0,1,6.85,0c1.9,1.1,1.89,2.88,0,4a7.5,7.5,0,0,1-6.84,0c-1.87-1.08-1.91-2.87,0-4ZM28.85,209a7.58,7.58,0,0,1,6.85,0c1.9,1.1,1.88,2.88,0,4a7.5,7.5,0,0,1-6.84,0c-1.9-1.1-1.9-2.87,0-4Zm13.73,7.92a7.58,7.58,0,0,1,6.82,0c1.91,1.1,1.89,2.88,0,4a7.58,7.58,0,0,1-6.85,0c-1.87-1.09-1.88-2.86,0-4Zm13.71,7.92a7.56,7.56,0,0,1,6.84,0c1.9,1.1,1.89,2.88,0,4a7.5,7.5,0,0,1-6.84,0c-1.9-1.1-1.91-2.86,0-4ZM70,232.75a7.58,7.58,0,0,1,6.85,0c1.87,1.08,1.86,2.86,0,3.95a7.5,7.5,0,0,1-6.81,0c-1.9-1.1-1.91-2.86,0-4Zm13.71,7.91a7.58,7.58,0,0,1,6.85,0c1.9,1.1,1.89,2.89,0,4a7.5,7.5,0,0,1-6.84,0c-1.9-1.1-1.91-2.87,0-4Zm13.74,7.93a7.56,7.56,0,0,1,6.84,0c1.88,1.09,1.89,2.88,0,4a7.56,7.56,0,0,1-6.84,0c-1.9-1.1-1.91-2.87,0-4Z"/><path id="Trazado_2647-2" data-name="Trazado 2647-2" class="cls-10" d="M188.69,212.37a7.56,7.56,0,0,0,6.84,0c1.88-1.08,1.86-2.88,0-4a7.58,7.58,0,0,0-6.85,0C186.78,209.5,186.78,211.27,188.69,212.37Zm13.69,3.95a7.63,7.63,0,0,1,6.84,0c1.9,1.1,1.89,2.88,0,4a7.58,7.58,0,0,1-6.85,0c-1.88-1.09-1.92-2.87,0-4Zm13.73,7.93a7.58,7.58,0,0,1,6.85,0c1.9,1.1,1.88,2.88,0,4a7.48,7.48,0,0,1-6.83,0c-1.91-1.1-1.92-2.87,0-4Zm13.73,7.93a7.57,7.57,0,0,1,6.83,0c1.9,1.1,1.89,2.88,0,4a7.52,7.52,0,0,1-6.85,0c-1.87-1.09-1.89-2.86,0-3.95Zm13.71,7.91a7.58,7.58,0,0,1,6.85,0c1.9,1.1,1.88,2.88,0,4a7.5,7.5,0,0,1-6.84,0c-1.9-1.1-1.91-2.87,0-4ZM257.29,248a7.56,7.56,0,0,1,6.84,0c1.88,1.08,1.87,2.87,0,3.95a7.5,7.5,0,0,1-6.81,0c-1.9-1.1-1.91-2.87,0-4Zm13.7,7.92a7.58,7.58,0,0,1,6.85,0c1.9,1.1,1.89,2.88,0,4a7.56,7.56,0,0,1-6.84,0c-1.9-1.11-1.91-2.88,0-4Zm13.74,7.93a7.58,7.58,0,0,1,6.85,0c1.87,1.08,1.89,2.88,0,4a7.56,7.56,0,0,1-6.84,0c-1.9-1.11-1.91-2.88,0-4Z"/><path id="Trazado_2651-2" data-name="Trazado 2651-2" class="cls-11" d="M785.69,262.37a7.56,7.56,0,0,0,6.84,0c1.88-1.08,1.86-2.88,0-4a7.58,7.58,0,0,0-6.85,0C783.78,259.5,783.78,261.27,785.69,262.37Zm13.69,3.95a7.62,7.62,0,0,1,6.84,0c1.9,1.1,1.89,2.88,0,4a7.58,7.58,0,0,1-6.85,0c-1.88-1.09-1.92-2.87,0-4Zm13.73,7.93a7.58,7.58,0,0,1,6.85,0c1.9,1.1,1.88,2.88,0,4a7.48,7.48,0,0,1-6.83,0c-1.91-1.1-1.92-2.87,0-4Zm13.73,7.93a7.57,7.57,0,0,1,6.83,0c1.9,1.1,1.89,2.88,0,4a7.52,7.52,0,0,1-6.85,0c-1.87-1.09-1.89-2.86,0-3.95Zm13.71,7.91a7.58,7.58,0,0,1,6.85,0c1.9,1.1,1.88,2.88,0,4a7.5,7.5,0,0,1-6.84,0c-1.9-1.1-1.91-2.87,0-4ZM854.29,298a7.56,7.56,0,0,1,6.84,0c1.88,1.08,1.87,2.87,0,4a7.5,7.5,0,0,1-6.81,0c-1.9-1.1-1.91-2.87,0-4Zm13.7,7.92a7.58,7.58,0,0,1,6.85,0c1.9,1.1,1.89,2.88,0,4a7.56,7.56,0,0,1-6.84,0c-1.9-1.11-1.91-2.88,0-4Zm13.74,7.93a7.58,7.58,0,0,1,6.85,0c1.87,1.08,1.89,2.88,0,4a7.56,7.56,0,0,1-6.84,0c-1.9-1.11-1.91-2.88,0-4Z"/><path id="Trazado_2652-2-2" data-name="Trazado 2652-2" class="cls-12" d="M281.82,176.47a7.5,7.5,0,0,1-6.84,0c-1.87-1.08-1.88-2.87,0-4a7.56,7.56,0,0,1,6.84,0C283.73,173.61,283.69,175.39,281.82,176.47Zm-13.74,7.93a7.48,7.48,0,0,1-6.83,0c-1.87-1.09-1.89-2.87,0-4a7.5,7.5,0,0,1,6.84,0c1.89,1.09,1.88,2.86,0,4Z"/><path id="Trazado_2650-2-2" data-name="Trazado 2650-2" class="cls-13" d="M219.8,82.41a7.5,7.5,0,0,1-6.84,0c-1.86-1.09-1.88-2.86,0-4a7.56,7.56,0,0,1,6.81,0c1.89,1.1,1.89,2.87,0,4Zm-13.73,7.93a7.53,7.53,0,0,1-6.84,0c-1.87-1.09-1.88-2.88,0-4a7.58,7.58,0,0,1,6.85,0c1.89,1.1,1.88,2.86,0,4Zm-13.73,7.93a7.56,7.56,0,0,1-6.84,0c-1.87-1.08-1.86-2.88,0-4a7.56,7.56,0,0,1,6.84,0c1.89,1.11,1.88,2.88,0,4Zm-13.71,7.92a7.56,7.56,0,0,1-6.84,0c-1.86-1.09-1.88-2.87,0-4a7.56,7.56,0,0,1,6.84,0c1.9,1.1,1.89,2.87,0,4Zm-13.73,7.92a7.56,7.56,0,0,1-6.84,0c-1.87-1.08-1.86-2.88,0-4a7.5,7.5,0,0,1,6.84,0c1.9,1.1,1.88,2.87,0,4ZM151.19,122a7.5,7.5,0,0,1-6.84,0c-1.87-1.09-1.88-2.87,0-4a7.65,7.65,0,0,1,6.85,0c1.88,1.1,1.85,2.88,0,4ZM137.46,130a7.55,7.55,0,0,1-6.85,0c-1.86-1.09-1.88-2.87,0-4a7.52,7.52,0,0,1,6.85,0c1.89,1.09,1.88,2.86,0,4Zm-13.72,7.91c-1.9,1.1-6.84,0-6.84,0s-1.88-2.86,0-4a7.63,7.63,0,0,1,6.84,0c1.89,1.1,1.86,2.88,0,4Z"/><path id="Trazado_2651-2-2" data-name="Trazado 2651-2" class="cls-14" d="M194.69,112.37a7.56,7.56,0,0,0,6.84,0c1.88-1.08,1.86-2.88,0-4a7.58,7.58,0,0,0-6.85,0C192.78,109.5,192.78,111.27,194.69,112.37Zm13.69,3.95a7.63,7.63,0,0,1,6.84,0c1.9,1.1,1.89,2.88,0,4a7.58,7.58,0,0,1-6.85,0c-1.88-1.09-1.92-2.87,0-4Zm13.73,7.93a7.58,7.58,0,0,1,6.85,0c1.9,1.1,1.88,2.88,0,4a7.48,7.48,0,0,1-6.83,0c-1.91-1.1-1.92-2.87,0-4Zm13.73,7.93a7.57,7.57,0,0,1,6.83,0c1.9,1.1,1.89,2.88,0,4a7.52,7.52,0,0,1-6.85,0c-1.87-1.09-1.89-2.86,0-3.95Zm13.71,7.91a7.58,7.58,0,0,1,6.85,0c1.9,1.1,1.88,2.88,0,4a7.5,7.5,0,0,1-6.84,0c-1.9-1.1-1.91-2.87,0-4ZM263.29,148a7.56,7.56,0,0,1,6.84,0c1.88,1.08,1.87,2.87,0,3.95a7.5,7.5,0,0,1-6.81,0c-1.9-1.1-1.91-2.87,0-4Zm13.7,7.92a7.58,7.58,0,0,1,6.85,0c1.9,1.1,1.89,2.88,0,4a7.56,7.56,0,0,1-6.84,0c-1.9-1.11-1.91-2.88,0-4Zm13.74,7.93a7.58,7.58,0,0,1,6.85,0c1.87,1.08,1.89,2.88,0,4a7.56,7.56,0,0,1-6.84,0c-1.9-1.11-1.91-2.88,0-4Z"/></g><g id="Grupo_3117" data-name="Grupo 3117"><g id="Grupo_3082" data-name="Grupo 3082"><path id="Trazado_6392" data-name="Trazado 6392" class="cls-15" d="M434.34,160.8,509.21,192,440,218.67,364.79,189Z"/><path id="Trazado_6393" data-name="Trazado 6393" class="cls-16" d="M508.7,43,439.28,76.22l.62,142.39,68.8-32.26Z"/><path id="Trazado_6394" data-name="Trazado 6394" class="cls-17" d="M371.1,42.18l68.41,34.15.39,142.28-68.8-32.26Z"/><path id="Trazado_6395" data-name="Trazado 6395" class="cls-16" d="M439.51,76.32,371.16,42.48,440.06,10,509,42.48Z"/><g id="Grupo_3080" data-name="Grupo 3080"><path id="Trazado_6396" data-name="Trazado 6396" class="cls-16" d="M490.5,24.41l-50.85,25.1.28,12.07L490.5,37.87Z"/><path id="Trazado_6397" data-name="Trazado 6397" class="cls-17" d="M389.37,24.41l50.28,25.1.28,12.07L389.37,37.87Z"/><path id="Trazado_6398" data-name="Trazado 6398" class="cls-18" d="M439.65,49.51,389.41,24.64,440.05.77l50.64,23.87Z"/></g><g id="Grupo_3081" data-name="Grupo 3081"><path id="Trazado_6399" data-name="Trazado 6399" class="cls-16" d="M471.23,14.92l-32.1,15.85.18,10.8,31.92-15Z"/><path id="Trazado_6400" data-name="Trazado 6400" class="cls-17" d="M407.4,14.92l31.73,15.85.18,10-31.91-15Z"/><path id="Trazado_6401" data-name="Trazado 6401" class="cls-18" d="M439.13,30.77l-31.7-15.7L439.39,0l32,15.07Z"/></g><path id="Trazado_6402" data-name="Trazado 6402" class="cls-19" d="M376.4,62.19,381,64l.39,121.5-5,.07Z"/><path id="Trazado_6403" data-name="Trazado 6403" class="cls-19" d="M388.22,67.58l4.6,1.82.39,121.5-5,.07Z"/><path id="Trazado_6404" data-name="Trazado 6404" class="cls-19" d="M400.7,74.51l4.6,1.82.39,121.5-5,.06Z"/><path id="Trazado_6405" data-name="Trazado 6405" class="cls-19" d="M413.17,79.12l4.6,1.82.39,121.5-5,.07Z"/><path id="Trazado_6406" data-name="Trazado 6406" class="cls-19" d="M426.3,83.75l4.6,1.82.39,121.5-5,.06Z"/><path id="Trazado_6407" data-name="Trazado 6407" class="cls-18" d="M501.81,61.42l-4.6,1.82-.39,121.5,5,.07Z"/><path id="Trazado_6408" data-name="Trazado 6408" class="cls-18" d="M490,66.81l-4.6,1.82L485,190.13l5,.07Z"/><path id="Trazado_6409" data-name="Trazado 6409" class="cls-18" d="M477.52,73.74l-4.6,1.82-.39,121.5,5,.06Z"/><path id="Trazado_6410" data-name="Trazado 6410" class="cls-18" d="M465,78.36l-4.6,1.82-.39,121.5,5,.06Z"/><path id="Trazado_6411" data-name="Trazado 6411" class="cls-18" d="M451.91,83l-4.6,1.82-.39,121.5,5,.06Z"/></g><g id="Grupo_3083" data-name="Grupo 3083"><path id="Trazado_6412" data-name="Trazado 6412" class="cls-20" d="M273.19,153.08l95.07,39.37-74.54,28.74-95.46-37.77Z"/><path id="Trazado_6413" data-name="Trazado 6413" class="cls-18" d="M214.88,126.46l78.28,32.62.37,62.84-78.65-31.06Z"/><path id="Trazado_6414" data-name="Trazado 6414" class="cls-16" d="M293.16,159.08l-78.32-32.36,35.85-42.27,78.85,31.24Z"/><path id="Trazado_6415" data-name="Trazado 6415" class="cls-18" d="M365.92,128.21l-36.38-12.52L250.69,84.45l36.92,11.39"/><path id="Trazado_6417" data-name="Trazado 6417" class="cls-18" d="M365.92,128.21v64.86l-72.39,28.85-.37-62.84,36.38-43Z"/><path id="Trazado_6418" data-name="Trazado 6418" class="cls-16" d="M222.6,144.1l24.14,10.06.11,19.38L222.6,164Z"/><path id="Trazado_6419" data-name="Trazado 6419" class="cls-16" d="M259,159.54l24.14,10.05.11,19.38L259,179.39Z"/><path id="Trazado_6420" data-name="Trazado 6420" class="cls-19" d="M326.07,172.92l16.53-6.3v35.76l-16.53,6.3Z"/><path id="Trazado_6421" data-name="Trazado 6421" class="cls-21" d="M340.4,167.59l2.2-1v35.76L340.4,201Z"/></g><g id="Grupo_3085" data-name="Grupo 3085"><path id="Trazado_6422" data-name="Trazado 6422" class="cls-22" d="M576.21,143.32l95.07,39.38-74.54,28.74-95.46-37.77Z"/><path id="Trazado_6423" data-name="Trazado 6423" class="cls-18" d="M517.13,113.11l78.28,32.61.38,62.85-78.66-31.06Z"/><path id="Trazado_6424" data-name="Trazado 6424" class="cls-16" d="M595.41,145.72,517.1,113.36,553,71.1l78.84,31.24Z"/><path id="Trazado_6425" data-name="Trazado 6425" class="cls-18" d="M668.18,114.85,631.8,102.34,553,71.1l36.92,11.39"/><path id="Trazado_6427" data-name="Trazado 6427" class="cls-23" d="M668.18,114.85v64.86l-72.39,28.86-.38-62.85,36.39-43Z"/><path id="Trazado_6428" data-name="Trazado 6428" class="cls-16" d="M559.65,154.88l24.14,10.06.12,19.38-24.26-9.58Z"/><path id="Trazado_6429" data-name="Trazado 6429" class="cls-19" d="M543.63,151.66l-16.54-6.3v35.75l16.54,6.3Z"/><path id="Trazado_6430" data-name="Trazado 6430" class="cls-21" d="M529.29,146.32l-2.2-1v35.75l2.2-1.41Z"/><g id="Grupo_3084" data-name="Grupo 3084"><path id="Trazado_6431" data-name="Trazado 6431" class="cls-23" d="M652.31,93.16,638.38,99l.87,103.22,13.85-5.54Z"/><path id="Trazado_6432" data-name="Trazado 6432" class="cls-18" d="M624.61,93.16,638.38,99l.87,103.22L625.4,196.7Z"/><path id="Trazado_6433" data-name="Trazado 6433" class="cls-16" d="M638.38,99l-13.76-5.81,13.87-5.58,13.87,5.58Z"/><path id="Trazado_6434" data-name="Trazado 6434" class="cls-18" d="M638.44,96.26l-7.1-3,7.15-2.87,7.16,2.87Z"/></g></g><g id="Grupo_3086" data-name="Grupo 3086"><path id="Trazado_6435" data-name="Trazado 6435" class="cls-24" d="M183.09,250.67c-2.33-.78-33.33.77-41.85-1.55s-11.63-14.73-13.17-14.73,28.67-33.32,55-4.65C186.62,233.59,183.09,250.67,183.09,250.67Z"/><path id="Trazado_6436" data-name="Trazado 6436" class="cls-18" d="M158.71,223.48l-29.53,11.1,15-17.76,14.74-2.94Z"/><path id="Trazado_6437" data-name="Trazado 6437" class="cls-16" d="M321,240.41l-85.48,35.37s-44.08-23.72-47-26.66-28.14-29.35-37-30.82S135.31,236,127.94,234.51s-32.42-11.79-32.42-11.79L181,187.35l20.64,8.84,29.48-13.26a29.19,29.19,0,0,1,13.26,4.42c8.85,5.9,10.32,16.21,17.69,25.06C268.87,220.57,321,240.41,321,240.41Z"/><path id="Trazado_6438" data-name="Trazado 6438" class="cls-16" d="M201.64,196.19l21.63-9.73,7.91-3.53a29.15,29.15,0,0,1,13.2,4.42c8.85,5.9,10.32,16.21,17.69,25.06,6.8,8.16,59,28,59,28L234.23,277s-34.1-13.18-54.24-24c-8.07-15.41-23.25-38.74-31.77-34.1l53.31-22.74Z"/><path id="Trazado_6439" data-name="Trazado 6439" class="cls-25" d="M116.19,224.71l70-31.39-3.61-1.74-70,31.39Z"/><path id="Trazado_6440" data-name="Trazado 6440" class="cls-25" d="M166.18,221.22l70-31.38-2.83-1.74-70,31.38Z"/><path id="Trazado_6441" data-name="Trazado 6441" class="cls-25" d="M192.52,219.67l50.64-22.86-2.06-2.51-50.64,22.85Z"/><path id="Trazado_6442" data-name="Trazado 6442" class="cls-25" d="M198,229l50.63-22.86-1.28-2.52-50.64,22.86Z"/></g><g id="Grupo_3087" data-name="Grupo 3087"><path id="Trazado_6443" data-name="Trazado 6443" class="cls-26" d="M387.34,198.8,488.21,242,357,327.67,255.79,286Z"/><path id="Trazado_6444" data-name="Trazado 6444" class="cls-16" d="M362.23,310.07l-95.58-41.25,118.1-76.37,95.58,41.24Z"/><path id="Trazado_6445" data-name="Trazado 6445" class="cls-25" d="M362.23,310.07l.49,8.16,118.1-76.37-.49-8.17Z"/><path id="Trazado_6446" data-name="Trazado 6446" class="cls-25" d="M362.23,310.07l-95.58-41.25.06,8.72,95.59,41.24Z"/><path id="Trazado_6447" data-name="Trazado 6447" class="cls-25" d="M439.09,246.93l-73.63-33,19.28-13.24,73.63,33Z"/><path id="Trazado_6448" data-name="Trazado 6448" class="cls-18" d="M426.87,255.9l-37-16.7,9.5-6.72,37,16.7Z"/><path id="Trazado_6449" data-name="Trazado 6449" class="cls-27" d="M345.49,235.62l-9.13-4.72,8.23-6.29,9.13,4.72Z"/><path id="Trazado_6450" data-name="Trazado 6450" class="cls-23" d="M345.49,235.62l0,1.57,8.23-6.29,0-1.57Z"/><path id="Trazado_6451" data-name="Trazado 6451" class="cls-18" d="M345.49,235.62l-9.13-4.72v1.38L345.5,237Z"/><path id="Trazado_6452" data-name="Trazado 6452" class="cls-27" d="M359,242.27l-9.13-4.72,8.24-6.28L367.2,236Z"/><path id="Trazado_6453" data-name="Trazado 6453" class="cls-23" d="M359,242.27l0,1.57,8.23-6.29,0-1.57Z"/><path id="Trazado_6454" data-name="Trazado 6454" class="cls-18" d="M359,242.27l-9.13-4.72,0,1.38,9.13,4.72Z"/><path id="Trazado_6455" data-name="Trazado 6455" class="cls-27" d="M375.61,249l-9.13-4.72,8.23-6.28,9.13,4.71Z"/><path id="Trazado_6456" data-name="Trazado 6456" class="cls-23" d="M375.61,249l0,1.57,8.23-6.29,0-1.57Z"/><path id="Trazado_6457" data-name="Trazado 6457" class="cls-18" d="M375.61,249l-9.13-4.72v1.38l9.13,4.72Z"/><path id="Trazado_6458" data-name="Trazado 6458" class="cls-27" d="M393,256.56l-9.13-4.71,8.23-6.29,9.13,4.71Z"/><path id="Trazado_6459" data-name="Trazado 6459" class="cls-23" d="M393,256.56l0,1.58,8.24-6.29,0-1.58Z"/><path id="Trazado_6460" data-name="Trazado 6460" class="cls-18" d="M393,256.56l-9.13-4.71v1.38l9.14,4.71Z"/><path id="Trazado_6461" data-name="Trazado 6461" class="cls-27" d="M409.47,263.44l-9.13-4.71,8.23-6.29,9.13,4.71Z"/><path id="Trazado_6462" data-name="Trazado 6462" class="cls-23" d="M409.47,263.44l0,1.57,8.24-6.28,0-1.58Z"/><path id="Trazado_6463" data-name="Trazado 6463" class="cls-18" d="M409.47,263.44l-9.13-4.71,0,1.37,9.13,4.72Z"/><path id="Trazado_6464" data-name="Trazado 6464" class="cls-27" d="M329.67,245.88l-9.13-4.71,8.23-6.29,9.13,4.71Z"/><path id="Trazado_6465" data-name="Trazado 6465" class="cls-23" d="M329.67,245.88l0,1.58,8.23-6.29,0-1.58Z"/><path id="Trazado_6466" data-name="Trazado 6466" class="cls-18" d="M329.67,245.88l-9.13-4.71v1.38l9.13,4.71Z"/><path id="Trazado_6467" data-name="Trazado 6467" class="cls-27" d="M343.14,252.53,334,247.82l8.24-6.29,9.13,4.72Z"/><path id="Trazado_6468" data-name="Trazado 6468" class="cls-23" d="M343.14,252.53l0,1.58,8.23-6.29,0-1.57Z"/><path id="Trazado_6469" data-name="Trazado 6469" class="cls-18" d="M343.14,252.53,334,247.82l0,1.38,9.13,4.71Z"/><path id="Trazado_6470" data-name="Trazado 6470" class="cls-27" d="M359.79,259.28l-9.13-4.71,8.23-6.29L368,253Z"/><path id="Trazado_6471" data-name="Trazado 6471" class="cls-23" d="M359.79,259.28l0,1.58,8.23-6.29,0-1.57Z"/><path id="Trazado_6472" data-name="Trazado 6472" class="cls-18" d="M359.79,259.28l-9.13-4.71V256l9.13,4.71Z"/><path id="Trazado_6473" data-name="Trazado 6473" class="cls-27" d="M377.2,266.82l-9.13-4.71,8.23-6.29,9.13,4.72Z"/><path id="Trazado_6474" data-name="Trazado 6474" class="cls-23" d="M377.2,266.82l0,1.58,8.24-6.29,0-1.57Z"/><path id="Trazado_6475" data-name="Trazado 6475" class="cls-18" d="M377.2,266.82l-9.13-4.71,0,1.38,9.13,4.71Z"/><path id="Trazado_6476" data-name="Trazado 6476" class="cls-27" d="M393.65,273.71,384.52,269l8.23-6.29,9.14,4.72Z"/><path id="Trazado_6477" data-name="Trazado 6477" class="cls-23" d="M393.65,273.71l0,1.57,8.23-6.29,0-1.57Z"/><path id="Trazado_6478" data-name="Trazado 6478" class="cls-18" d="M393.65,273.71,384.52,269l0,1.38,9.13,4.71Z"/><path id="Trazado_6479" data-name="Trazado 6479" class="cls-27" d="M315.6,255.29l-9.13-4.72,8.23-6.28,9.13,4.71Z"/><path id="Trazado_6480" data-name="Trazado 6480" class="cls-23" d="M315.6,255.29l0,1.57,8.23-6.29,0-1.57Z"/><path id="Trazado_6481" data-name="Trazado 6481" class="cls-18" d="M315.6,255.29l-9.13-4.72V252l9.13,4.72Z"/><path id="Trazado_6482" data-name="Trazado 6482" class="cls-27" d="M313.39,272.18,304.53,267,327,251.66l8.85,5.21Z"/><path id="Trazado_6483" data-name="Trazado 6483" class="cls-23" d="M313.39,272.18l-.06,1.58,22.44-15.31.05-1.58Z"/><path id="Trazado_6484" data-name="Trazado 6484" class="cls-27" d="M346.53,268.69,337.4,264l8.23-6.28,9.13,4.71Z"/><path id="Trazado_6485" data-name="Trazado 6485" class="cls-23" d="M346.53,268.69l0,1.57L354.8,264l0-1.57Z"/><path id="Trazado_6486" data-name="Trazado 6486" class="cls-18" d="M346.53,268.69,337.4,264v1.38l9.14,4.72Z"/><path id="Trazado_6487" data-name="Trazado 6487" class="cls-27" d="M363.13,276.23,354,271.52l8.23-6.29,9.13,4.71Z"/><path id="Trazado_6488" data-name="Trazado 6488" class="cls-23" d="M363.13,276.23l0,1.58,8.24-6.29,0-1.58Z"/><path id="Trazado_6489" data-name="Trazado 6489" class="cls-18" d="M363.13,276.23,354,271.52v1.38l9.14,4.71Z"/><path id="Trazado_6490" data-name="Trazado 6490" class="cls-27" d="M379.58,283.11l-9.13-4.71,8.23-6.29,9.13,4.71Z"/><path id="Trazado_6491" data-name="Trazado 6491" class="cls-23" d="M379.58,283.11l0,1.57,8.23-6.28,0-1.58Z"/><path id="Trazado_6492" data-name="Trazado 6492" class="cls-18" d="M379.58,283.11l-9.13-4.71v1.38l9.13,4.71Z"/><path id="Trazado_6493" data-name="Trazado 6493" class="cls-27" d="M298.21,266.35l-9.13-4.72,8.23-6.29,9.13,4.72Z"/><path id="Trazado_6494" data-name="Trazado 6494" class="cls-23" d="M298.21,266.35l0,1.57,8.23-6.29,0-1.57Z"/><path id="Trazado_6495" data-name="Trazado 6495" class="cls-18" d="M298.21,266.35l-9.13-4.72V263l9.13,4.71Z"/><path id="Trazado_6496" data-name="Trazado 6496" class="cls-18" d="M313.39,272.18,304.53,267l-.06,1.38,8.86,5.21Z"/><path id="Trazado_6497" data-name="Trazado 6497" class="cls-27" d="M328.33,278.93l-9.13-4.71,8.23-6.29,9.13,4.71Z"/><path id="Trazado_6498" data-name="Trazado 6498" class="cls-23" d="M328.33,278.93l0,1.57,8.23-6.28,0-1.58Z"/><path id="Trazado_6499" data-name="Trazado 6499" class="cls-18" d="M328.33,278.93l-9.13-4.71v1.38l9.13,4.71Z"/><path id="Trazado_6500" data-name="Trazado 6500" class="cls-27" d="M346.56,286.48l-9.14-4.72,8.24-6.29,9.13,4.72Z"/><path id="Trazado_6501" data-name="Trazado 6501" class="cls-23" d="M346.56,286.48l0,1.57,8.23-6.29,0-1.57Z"/><path id="Trazado_6502" data-name="Trazado 6502" class="cls-18" d="M346.56,286.48l-9.14-4.72,0,1.38,9.13,4.72Z"/><path id="Trazado_6503" data-name="Trazado 6503" class="cls-27" d="M362.19,293.35l-9.13-4.71,8.23-6.29,9.13,4.72Z"/><path id="Trazado_6504" data-name="Trazado 6504" class="cls-23" d="M362.19,293.35l0,1.58,8.24-6.29,0-1.57Z"/><path id="Trazado_6505" data-name="Trazado 6505" class="cls-18" d="M362.19,293.35l-9.13-4.71V290l9.14,4.71Z"/></g><g id="Grupo_3106" data-name="Grupo 3106"><ellipse id="Elipse_441" data-name="Elipse 441" class="cls-28" cx="525.13" cy="248.37" rx="32.5" ry="15.78"/><ellipse id="Elipse_442" data-name="Elipse 442" class="cls-29" cx="483.53" cy="223.33" rx="32.5" ry="15.78"/><g id="Grupo_3088" data-name="Grupo 3088"><path id="Trazado_6506" data-name="Trazado 6506" class="cls-25" d="M542.29,194.34v-5.66h-3.2c-5.29-5.23-16.37-8.83-29.19-8.83s-23.9,3.59-29.19,8.83H477.4v7.7h0c.81,8.36,15,15,32.46,15,18,0,32.5-7.06,32.5-15.77A8,8,0,0,0,542.29,194.34Z"/><ellipse id="Elipse_443" data-name="Elipse 443" class="cls-16" cx="509.91" cy="188.68" rx="32.5" ry="15.78"/></g><g id="Grupo_3089" data-name="Grupo 3089"><path id="Trazado_6507" data-name="Trazado 6507" class="cls-25" d="M542.29,187.67V182h-3.2c-5.29-5.23-16.37-8.83-29.19-8.83s-23.9,3.6-29.19,8.83H477.4v7.7h0c.81,8.36,15,15,32.46,15,18,0,32.5-7.07,32.5-15.78A7.81,7.81,0,0,0,542.29,187.67Z"/><ellipse id="Elipse_444" data-name="Elipse 444" class="cls-18" cx="509.91" cy="182" rx="32.5" ry="15.78"/></g><g id="Grupo_3090" data-name="Grupo 3090"><path id="Trazado_6508" data-name="Trazado 6508" class="cls-25" d="M517.36,221.06v-5.67h-3.2c-5.29-5.23-16.37-8.83-29.19-8.83s-23.9,3.6-29.19,8.83h-3.31v7.71h0c.81,8.36,15,15,32.46,15,17.95,0,32.5-7.07,32.5-15.78A7.81,7.81,0,0,0,517.36,221.06Z"/><ellipse id="Elipse_445" data-name="Elipse 445" class="cls-16" cx="484.97" cy="215.4" rx="32.5" ry="15.78"/></g><g id="Grupo_3091" data-name="Grupo 3091"><path id="Trazado_6509" data-name="Trazado 6509" class="cls-25" d="M517.36,214.38v-5.66h-3.2c-5.29-5.24-16.37-8.84-29.19-8.84s-23.9,3.6-29.19,8.84h-3.31v7.7h0c.81,8.36,15,15,32.46,15,17.95,0,32.5-7.07,32.5-15.78A7.81,7.81,0,0,0,517.36,214.38Z"/><ellipse id="Elipse_446" data-name="Elipse 446" class="cls-16" cx="484.97" cy="208.72" rx="32.5" ry="15.78"/></g><g id="Grupo_3092" data-name="Grupo 3092"><path id="Trazado_6510" data-name="Trazado 6510" class="cls-25" d="M517.36,207.7V202h-3.2c-5.29-5.23-16.37-8.84-29.19-8.84s-23.9,3.6-29.19,8.84h-3.31v7.7h0c.81,8.36,15,15,32.46,15,17.95,0,32.5-7.06,32.5-15.78A7.81,7.81,0,0,0,517.36,207.7Z"/><ellipse id="Elipse_447" data-name="Elipse 447" class="cls-16" cx="484.97" cy="202.04" rx="32.5" ry="15.78"/></g><g id="Grupo_3093" data-name="Grupo 3093"><path id="Trazado_6511" data-name="Trazado 6511" class="cls-25" d="M557.88,243.32v-5.66h-3.2c-5.29-5.24-16.37-8.84-29.19-8.84s-23.9,3.6-29.19,8.84H493v7.7h0c.81,8.36,15,15,32.46,15,18,0,32.5-7.07,32.5-15.78A7.81,7.81,0,0,0,557.88,243.32Z"/><ellipse id="Elipse_448" data-name="Elipse 448" class="cls-18" cx="525.49" cy="237.66" rx="32.5" ry="15.78"/></g><g id="Grupo_3094" data-name="Grupo 3094"><path id="Trazado_6512" data-name="Trazado 6512" class="cls-25" d="M568.12,232.19v-5.67h-3.2c-5.29-5.23-16.37-8.83-29.19-8.83s-23.9,3.6-29.19,8.83h-3.31v7.7h0c.82,8.37,15,15,32.47,15,17.95,0,32.5-7.07,32.5-15.78A7.81,7.81,0,0,0,568.12,232.19Z"/><ellipse id="Elipse_449" data-name="Elipse 449" class="cls-18" cx="535.73" cy="226.53" rx="32.5" ry="15.78"/></g><g id="Grupo_3096" data-name="Grupo 3096"><g id="Grupo_3095" data-name="Grupo 3095"><path id="Trazado_6513" data-name="Trazado 6513" class="cls-25" d="M515.08,187.14l-2.14-2.28c2.62-.42,5.57-1.47,7.26-3.38s.7-3.21-1-3.66c-5.14-1.43-9,7.41-18,4.92-4.07-1.13-5.44-4-2.76-7a14,14,0,0,1,8-4.15l2,2.24a11.29,11.29,0,0,0-6.37,3.19c-1.23,1.4-.79,2.65,1,3.15,4.59,1.27,8.84-7.47,17.94-4.95,4.07,1.14,6.15,3.73,2.89,7.4A15.12,15.12,0,0,1,515.08,187.14Z"/></g><path id="Trazado_6514" data-name="Trazado 6514" class="cls-25" d="M527.2,182.18l-2,2.28-30.09-8.35,2-2.28Z"/></g><g id="Grupo_3097" data-name="Grupo 3097"><path id="Trazado_6515" data-name="Trazado 6515" class="cls-25" d="M517.36,201v-5.66h-3.2c-5.29-5.23-16.37-8.84-29.19-8.84s-23.9,3.6-29.19,8.84h-3.31v7.7h0c.81,8.36,15,15,32.46,15,17.95,0,32.5-7.06,32.5-15.77A8,8,0,0,0,517.36,201Z"/><ellipse id="Elipse_450" data-name="Elipse 450" class="cls-16" cx="484.97" cy="195.36" rx="32.5" ry="15.78"/></g><g id="Grupo_3099" data-name="Grupo 3099"><g id="Grupo_3098" data-name="Grupo 3098"><path id="Trazado_6516" data-name="Trazado 6516" class="cls-18" d="M470.74,197.34c-3.26-3.67-1.18-6.27,2.9-7.4,9.1-2.53,13.34,6.21,17.93,4.94,1.8-.5,2.25-1.75,1-3.14a11.24,11.24,0,0,0-6.36-3.2l2-2.24a14.07,14.07,0,0,1,8,4.15c2.68,3,1.31,5.85-2.77,7-9,2.5-12.87-6.35-18-4.92-1.65.46-2.7,1.7-.95,3.66s4.64,3,7.25,3.38l-2.13,2.28A15.19,15.19,0,0,1,470.74,197.34Z"/></g><path id="Trazado_6517" data-name="Trazado 6517" class="cls-18" d="M467.47,196.87l2,2.28,30.1-8.35-2-2.28Z"/></g><g id="Grupo_3100" data-name="Grupo 3100"><path id="Trazado_6518" data-name="Trazado 6518" class="cls-25" d="M568.12,225.51v-5.66h-3.2c-5.29-5.24-16.37-8.84-29.19-8.84s-23.9,3.6-29.19,8.84h-3.31v7.7h0c.82,8.36,15,15,32.47,15,17.95,0,32.5-7.06,32.5-15.78A7.81,7.81,0,0,0,568.12,225.51Z"/><ellipse id="Elipse_451" data-name="Elipse 451" class="cls-16" cx="535.73" cy="219.85" rx="32.5" ry="15.78"/></g><g id="Grupo_3101" data-name="Grupo 3101"><ellipse id="Elipse_452" data-name="Elipse 452" class="cls-30" cx="556.61" cy="294.09" rx="32.5" ry="15.78"/><path id="Trazado_6519" data-name="Trazado 6519" class="cls-25" d="M589,292.79v-5.67h-3.2c-5.3-5.23-16.38-8.83-29.19-8.83s-23.9,3.6-29.19,8.83H524.1v7.7h0c.82,8.37,15,15,32.47,15,17.95,0,32.5-7.07,32.5-15.78A9.08,9.08,0,0,0,589,292.79Z"/><ellipse id="Elipse_453" data-name="Elipse 453" class="cls-16" cx="556.61" cy="287.13" rx="32.5" ry="15.78"/></g><g id="Grupo_3103" data-name="Grupo 3103"><g id="Grupo_3102" data-name="Grupo 3102"><path id="Trazado_6520" data-name="Trazado 6520" class="cls-18" d="M537.79,225.88l-2.14-2.28c2.62-.43,5.57-1.48,7.26-3.38s.7-3.21-.95-3.67c-5.14-1.42-9,7.42-18,4.92-4.07-1.13-5.44-4-2.76-7a14,14,0,0,1,8-4.15l2,2.24a11.18,11.18,0,0,0-6.37,3.2c-1.23,1.39-.79,2.64,1,3.14,4.59,1.27,8.84-7.47,17.94-4.94,4.07,1.13,6.15,3.72,2.89,7.4A15.22,15.22,0,0,1,537.79,225.88Z"/></g><path id="Trazado_6521" data-name="Trazado 6521" class="cls-18" d="M549.91,220.92l-2,2.28-30.09-8.35,2-2.28Z"/></g><g id="Grupo_3105" data-name="Grupo 3105"><g id="Grupo_3104" data-name="Grupo 3104"><path id="Trazado_6522" data-name="Trazado 6522" class="cls-18" d="M544.25,289.82c-3.26-3.67-1.17-6.27,2.9-7.4,9.1-2.53,13.35,6.21,17.93,4.94,1.8-.5,2.25-1.75,1-3.14a11.15,11.15,0,0,0-6.36-3.2l2-2.24a14.07,14.07,0,0,1,8,4.15c2.68,3,1.31,5.85-2.76,7-9,2.49-12.87-6.35-18-4.93-1.65.46-2.7,1.7-.95,3.67s4.64,3,7.25,3.38l-2.13,2.28A15.27,15.27,0,0,1,544.25,289.82Z"/></g><path id="Trazado_6523" data-name="Trazado 6523" class="cls-18" d="M541,289.36l2,2.28,30.1-8.36-2-2.28Z"/></g></g><g id="Grupo_3109" data-name="Grupo 3109"><g id="Grupo_3108" data-name="Grupo 3108"><path id="Trazado_6524" data-name="Trazado 6524" class="cls-31" d="M207.4,201.08c-.16,1.91,1.2,3.56,2.25,5.16a19.15,19.15,0,0,1,3.12,10.44c0,1.56-.17,3.21.56,4.59a7.75,7.75,0,0,0,3.26,2.74,1.45,1.45,0,0,0,1.1.28,1.08,1.08,0,0,0,.51-1.36,10.2,10.2,0,0,0-.77-1.42c-1-1.92.3-4.14,1-6.16a12.42,12.42,0,0,0,.11-8,14.11,14.11,0,0,1,4,7.18,25.75,25.75,0,0,0,.83,3.78,3.94,3.94,0,0,0,2.63,2.62c.79.17,1.88-.48,1.51-1.19a1.7,1.7,0,0,0-.5-.5,4.55,4.55,0,0,1-1.34-4.07c.16-1.48.71-2.89,1-4.35a12.18,12.18,0,0,0-9.59-14.3c-.44-.08-.87-.14-1.31-.18a6.31,6.31,0,0,0-3.35.48,8.65,8.65,0,0,0-2.13,1.72l-2.64,2.64"/><path id="Trazado_6525" data-name="Trazado 6525" class="cls-32" d="M231.72,210.4a19.9,19.9,0,0,0-.45-4.07,13.22,13.22,0,0,0-4.62-6.74,36,36,0,0,0-6.74-4.3c-4.13.38-8.38,1.2-12.49,1.69-.63,1.8-1.24,3.85-.33,5.52a6.9,6.9,0,0,0,1.79,1.9l3.77,3.08c1.72,1.42,3.51,2.92,4.34,5s.57,4.51,1.22,6.7a4.09,4.09,0,0,0,1.3,2.12,2,2,0,0,0,2.36.17,3,3,0,0,0,1-2.14c.88-5.95-1.24-12.19-4.58-17.18,2.85,1.37,6.11,2.44,7.18,5.42a13.69,13.69,0,0,1,.56,3c.14,1.14.32,2.29.54,3.42s.85,2.72,2.09,2.71c.72,0,1.81-.19,2.19-.8C231.84,214.32,231.8,212.29,231.72,210.4Z"/><path id="Trazado_6526" data-name="Trazado 6526" class="cls-33" d="M222,195c-.21-1.36-.69-2.68-.79-4a21,21,0,0,1,.46-4.54,13.08,13.08,0,0,0-.14-5.25,6.59,6.59,0,0,0-3.06-4.13,4.13,4.13,0,0,0-4.73.51,6.41,6.41,0,0,0-5.63,3.46,13.81,13.81,0,0,0-1.44,6.74c0,2.32.2,4.65,0,7-.14,1.36-.42,2.86.34,4a4.37,4.37,0,0,0,2.09,1.49,13.43,13.43,0,0,0,10.41-.18,4.9,4.9,0,0,0,1.69-1.12A4.72,4.72,0,0,0,222,195Z"/><path id="Trazado_6527" data-name="Trazado 6527" class="cls-33" d="M217.19,182.36a24.15,24.15,0,0,0,6.08-2.08,11.91,11.91,0,0,0,2.7-1.78c2.62-2.42,3.23-6.36,2.79-9.89-.11-.89-.49-2-1.38-2.06s-1.45.93-1.66,1.79c-.43,1.78-.44,3.78-1.61,5.19a7.69,7.69,0,0,1-3.71,2l-5.13,1.67a29.38,29.38,0,0,1,2,5.47v-.49"/><path id="Trazado_6528" data-name="Trazado 6528" class="cls-33" d="M209.8,186.2a18.68,18.68,0,0,1-9.36-.38,5.87,5.87,0,0,1-2.73-1.81,7.72,7.72,0,0,1-1.12-2.68l-1.44-5.25a1.29,1.29,0,0,1,1.27-.84,3,3,0,0,1,1.59.68c1.6,1.24,2.53,3.28,4.32,4.22s4.28.43,6.41-.08a1.91,1.91,0,0,1,1.37,0,1.65,1.65,0,0,1,.67,1.18,6.87,6.87,0,0,1-1.18,5.36"/><path id="Trazado_6529" data-name="Trazado 6529" class="cls-16" d="M229.25,165.94a3.57,3.57,0,0,0,1.18-1.58A2.06,2.06,0,0,0,229,165a5.16,5.16,0,0,0,.47-1.93c-.53.06-1,1-1.19,1.5a7.49,7.49,0,0,0,.18-2.21c-.16-.18-.45,0-.57.26a9.67,9.67,0,0,0-.76,2.63c-.13-.38-.52-1.12-.91-1.23-.39.38.47,3.23.74,3.63l.68.42a1,1,0,0,0,.39,0c.74-.15,1.18-.93,1.77-1.4.35-.28.69-.5.64-1.09A4,4,0,0,0,229.25,165.94Z"/><path id="Trazado_6530" data-name="Trazado 6530" class="cls-16" d="M197.06,172.12c-.61-.07-.5,1.32-1.12,1.27-.35,0-.41-.52-.36-.87.07-.59.6-1.53.26-1.63a2.1,2.1,0,0,0-1.81,1.52,3.53,3.53,0,0,0,.36,2.49,9.33,9.33,0,0,0,1.43,2,1.53,1.53,0,0,0,1-.33,2.62,2.62,0,0,0,.54-1.87l.05-1.78C197.44,172.58,197.37,172.16,197.06,172.12Z"/><g id="Grupo_3107" data-name="Grupo 3107"><path id="Trazado_6531" data-name="Trazado 6531" class="cls-16" d="M217.79,173c.55,2.87-.74,5.53-2.9,5.94s-4.34-1.57-4.9-4.44.75-5.53,2.9-5.94S217.24,170.09,217.79,173Z"/><path id="Trazado_6532" data-name="Trazado 6532" class="cls-34" d="M210.87,176.85a6.14,6.14,0,0,1-2.47-2.72,3,3,0,0,1,.72-3.4,1.28,1.28,0,0,1,.07-1.16,3.2,3.2,0,0,1,.82-.82,5.55,5.55,0,0,1,2.31-1.25,5.08,5.08,0,0,1,1.35,0,15,15,0,0,1,3.92.86,1.93,1.93,0,0,1,1.3,1.68,2.26,2.26,0,0,1-.43,1.63,3,3,0,0,1-1.74.87,16.94,16.94,0,0,1-5.59.34,6.91,6.91,0,0,1-.19,4,.16.16,0,0,1-.09-.12"/><path id="Trazado_6533" data-name="Trazado 6533" class="cls-16" d="M211,175.9c.3.38.33.84.07,1s-.7.06-1-.32-.33-.84-.07-1S210.74,175.52,211,175.9Z"/></g><path id="Trazado_6534" data-name="Trazado 6534" class="cls-32" d="M222,221.7c1.34.72,2.19,1.75,1.9,2.3s-1.62.4-3-.31-2.19-1.75-1.9-2.3S220.65,221,222,221.7Z"/><path id="Trazado_6535" data-name="Trazado 6535" class="cls-32" d="M230.67,216.77c1.34.71,2.19,1.74,1.9,2.29s-1.62.41-3-.31-2.19-1.75-1.9-2.3S229.33,216.05,230.67,216.77Z"/></g><line id="Línea_422" data-name="Línea 422" class="cls-35" x1="210.1" y1="158.64" x2="211.1" y2="163.91"/><line id="Línea_423" data-name="Línea 423" class="cls-35" x1="205.74" y1="161.68" x2="209.96" y2="164.99"/><line id="Línea_424" data-name="Línea 424" class="cls-35" x1="215.4" y1="159.36" x2="212.72" y2="164"/></g><g id="Grupo_3110" data-name="Grupo 3110"><path id="Trazado_6536" data-name="Trazado 6536" class="cls-16" d="M804.53,76.55l-69.4,29.21.39,121.07,69-27.6Z"/><path id="Trazado_6537" data-name="Trazado 6537" class="cls-17" d="M666.52,75.89l68.61,29.21.39,121.73-69-27.61Z"/><path id="Trazado_6538" data-name="Trazado 6538" class="cls-16" d="M735.13,105.1,666.58,76.15l69.11-27.78L804.8,76.15Z"/><path id="Trazado_6539" data-name="Trazado 6539" class="cls-19" d="M671.78,90.38l15.33,6.52.09,18-15.42-6.17Z"/><path id="Trazado_6540" data-name="Trazado 6540" class="cls-19" d="M692.86,98.94l15.33,6.52.08,18-15.41-6.17Z"/><path id="Trazado_6541" data-name="Trazado 6541" class="cls-19" d="M713.93,108.82l15.33,6.52.09,18-15.42-6.17Z"/><path id="Trazado_6542" data-name="Trazado 6542" class="cls-19" d="M671.78,116.06l15.33,6.53.09,18-15.42-6.16Z"/><path id="Trazado_6543" data-name="Trazado 6543" class="cls-19" d="M692.86,124.62l15.33,6.53.08,18L692.86,143Z"/><path id="Trazado_6544" data-name="Trazado 6544" class="cls-19" d="M713.93,134.5,729.26,141l.09,18-15.42-6.17Z"/><path id="Trazado_6545" data-name="Trazado 6545" class="cls-19" d="M671.78,141.08l15.33,6.53.09,18-15.42-6.17Z"/><path id="Trazado_6546" data-name="Trazado 6546" class="cls-19" d="M692.86,149.64l15.33,6.53.08,18L692.86,168Z"/><path id="Trazado_6547" data-name="Trazado 6547" class="cls-19" d="M713.93,159.52l15.33,6.53.09,18-15.42-6.17Z"/><path id="Trazado_6548" data-name="Trazado 6548" class="cls-18" d="M799.15,91l-15.33,6.53-.09,18,15.42-6.17Z"/><path id="Trazado_6549" data-name="Trazado 6549" class="cls-18" d="M778.08,99.6l-15.33,6.52-.09,18,15.42-6.17Z"/><path id="Trazado_6550" data-name="Trazado 6550" class="cls-18" d="M757,109.47,741.68,116l-.09,18L757,127.81Z"/><path id="Trazado_6551" data-name="Trazado 6551" class="cls-18" d="M799.15,116.72l-15.33,6.52-.09,18,15.42-6.16Z"/><path id="Trazado_6552" data-name="Trazado 6552" class="cls-18" d="M778.08,125.28l-15.33,6.53-.09,18,15.42-6.17Z"/><path id="Trazado_6553" data-name="Trazado 6553" class="cls-18" d="M757,135.16l-15.33,6.52-.09,18L757,153.49Z"/><path id="Trazado_6554" data-name="Trazado 6554" class="cls-18" d="M799.15,141.74l-15.33,6.53-.09,18,15.42-6.17Z"/><path id="Trazado_6555" data-name="Trazado 6555" class="cls-18" d="M778.08,150.3l-15.33,6.53-.09,18,15.42-6.17Z"/><path id="Trazado_6556" data-name="Trazado 6556" class="cls-18" d="M757,160.18l-15.33,6.53-.09,18L757,178.52Z"/></g><g id="Grupo_3112" data-name="Grupo 3112"><path id="Trazado_6557" data-name="Trazado 6557" class="cls-18" d="M660.2,171.37,724,194.75l12.75,10.63L673,179.87Z"/><path id="Trazado_6558" data-name="Trazado 6558" class="cls-17" d="M660.2,171.37l-63.78,23.38v63.79L660.2,233Z"/><path id="Trazado_6559" data-name="Trazado 6559" class="cls-16" d="M660.2,171.37,724,194.75v63.79L660.2,233Z"/><path id="Trazado_6560" data-name="Trazado 6560" class="cls-16" d="M724,196.88,660.2,220.27v63.78L724,258.54Z"/><path id="Trazado_6561" data-name="Trazado 6561" class="cls-17" d="M596.42,196.88l63.78,23.39v63.78l-63.78-25.51Z"/><path id="Trazado_6562" data-name="Trazado 6562" class="cls-16" d="M596.42,196.88l63.78,23.39-8.5,27.64-63.78-25.52Z"/><path id="Trazado_6563" data-name="Trazado 6563" class="cls-18" d="M724,196.88,660.2,220.27l8.5,27.64,63.79-25.52Z"/><path id="Trazado_6564" data-name="Trazado 6564" class="cls-36" d="M664,139.5l-29.63,50.71,59.27,14.49Z"/><path id="Trazado_6565" data-name="Trazado 6565" class="cls-16" d="M664.3,141.81l29.64,50.7L634.67,207Z"/><path id="Trazado_6566" data-name="Trazado 6566" class="cls-18" d="M664,139.5l-7.9-2.63L626.77,205l7.9,2Z"/><g id="Grupo_3111" data-name="Grupo 3111"><path id="Trazado_6567" data-name="Trazado 6567" class="cls-18" d="M664.88,189.88a2.41,2.41,0,1,1,2.29-2.28A2.41,2.41,0,0,1,664.88,189.88Zm-1.32-8L663,163.29h3.72l-.54,18.63Z"/></g></g><g id="Grupo_3113" data-name="Grupo 3113"><path id="Trazado_6568" data-name="Trazado 6568" class="cls-37" d="M459.25,279.92c-.12.72-.23,1.45-.35,2.18a2.93,2.93,0,0,0,0,1.18.19.19,0,0,0,.1.13.19.19,0,0,0,.2-.08,2.77,2.77,0,0,0,.48-.74l.45,1.7a.53.53,0,0,0,.14.29.19.19,0,0,0,.28,0h0a.29.29,0,0,0,0-.16,9.88,9.88,0,0,0-.22-1.43c.32.51.68,1.71,1,1.68.38-.28,0-1.23-.18-1.8a8.17,8.17,0,0,0,.62.7.26.26,0,0,0,.22.09c.12,0,.12-.2.1-.32a5.62,5.62,0,0,0-.42-1c.22.24.84.75,1.05.65s-.19-.46-.29-.6a17.86,17.86,0,0,0-1.94-2.55,2.87,2.87,0,0,0-1.27-.07"/><path id="Trazado_6569" data-name="Trazado 6569" class="cls-38" d="M449.18,264.12c.07-.51.84-.48,1.31-.26a16.16,16.16,0,0,1,6.16,5.35,47.3,47.3,0,0,1,4.05,7.17,6.25,6.25,0,0,1,.71,2.05,2.1,2.1,0,0,1-.73,1.95,2.21,2.21,0,0,1-2.49-.19,8.54,8.54,0,0,1-1.76-2,16.67,16.67,0,0,0-4.34-4c-1.23-.78-2.66-1.51-3.18-2.86a4.76,4.76,0,0,1-.27-1.39,15.85,15.85,0,0,1,.77-6.23"/><path id="Trazado_6570" data-name="Trazado 6570" class="cls-31" d="M449.18,299.76c-7.21,4.61-12.06,9.9-10.84,11.82s8.07-.26,15.28-4.87,12.06-9.9,10.84-11.82S456.39,295.15,449.18,299.76Z"/><path id="Trazado_6571" data-name="Trazado 6571" class="cls-37" d="M435.93,278.55l-2.19-.29a2.76,2.76,0,0,0-1.18,0,.18.18,0,0,0-.13.1c0,.07,0,.14.08.2a3.24,3.24,0,0,0,.76.45l-1.69.5a.54.54,0,0,0-.29.15.2.2,0,0,0,0,.28h0a.32.32,0,0,0,.16,0,10,10,0,0,0,1.43-.26c-.5.33-1.69.72-1.65,1.05.28.37,1.22,0,1.79-.23a8.3,8.3,0,0,0-.69.64c0,.07-.11.15-.08.23s.2.11.32.08a5.24,5.24,0,0,0,1-.44c-.23.22-.72.86-.61,1.06s.44-.2.59-.3a17.81,17.81,0,0,0,2.49-2,2.83,2.83,0,0,0,0-1.26"/><path id="Trazado_6572" data-name="Trazado 6572" class="cls-39" d="M444.29,278.91c-5.64,7.42-6.74,17.57-4.7,26.67.25,1.12.68,2.39,1.77,2.76a2.46,2.46,0,0,0,2.79-1.44,8.06,8.06,0,0,0,.53-3.37A41.67,41.67,0,0,1,448,288.37a21.17,21.17,0,0,0,9.27,7.13c2.84,1.22,6.14,2,9,.76a3.38,3.38,0,0,0,1.82-1.59,1.75,1.75,0,0,0-.56-2.18,3.2,3.2,0,0,0-1.43-.27,10.6,10.6,0,0,1-6.27-3.06c-1.75-1.6-3.17-3.53-4.76-5.29a36.16,36.16,0,0,0-3.67-3.55c-1.91-1.6-4.66-1.5-7.15-1.47"/><path id="Trazado_6573" data-name="Trazado 6573" class="cls-38" d="M445.88,263.77c-2.28.25-4,2.22-5,4.27s-1.63,4.32-3,6.18c-1,1.34-2.32,2.45-2.92,4a1.62,1.62,0,0,0,.08,1.66c.47.52,1.31.39,2,.16a14.79,14.79,0,0,0,9.74-13.59,3.55,3.55,0,0,0-.27-1.57,1.4,1.4,0,0,0-1.26-.84l.2-.58"/><path id="Trazado_6574" data-name="Trazado 6574" class="cls-38" d="M446.76,263.32a7.32,7.32,0,0,1,7.31,5.36c.5,2,.11,4.14.45,6.18a16.28,16.28,0,0,1,.45,2.78,5.42,5.42,0,0,1-1.86,3.84,7.31,7.31,0,0,1-12.26-5.74,31,31,0,0,1,.85-4.27,28.59,28.59,0,0,1,1-5.32c.68-1.68,2.35-3.18,4.13-2.86a.57.57,0,0,0,.48-.05c.13-.11,0-.39-.15-.28"/><path id="Trazado_6575" data-name="Trazado 6575" class="cls-40" d="M444.81,253.31a6,6,0,0,1,5.55-.39c.84.42,1.61,1.12,2.55,1.08,1.19,0,2-1.21,2.92-1.93a5.08,5.08,0,0,1,6.11.36,7.34,7.34,0,0,1,2.39,5.92,8,8,0,0,1-2.36,5.47,6.14,6.14,0,0,1-5.63,1.57,16.66,16.66,0,0,1-4.07-2.19,5.34,5.34,0,0,0-4.4-.85,1.39,1.39,0,0,1-1,.15,1.14,1.14,0,0,1-.5-.56c-.88-1.6-2.15-2.22-3-3.82A4.23,4.23,0,0,1,444.81,253.31Z"/><path id="Trazado_6576" data-name="Trazado 6576" class="cls-41" d="M443.29,259c0,2.6,1.53,4.7,3.41,4.7s3.4-2.1,3.4-4.7-1.52-4.7-3.4-4.7S443.29,256.35,443.29,259Z"/><path id="Trazado_6577" data-name="Trazado 6577" class="cls-40" d="M446.67,253.77a1.16,1.16,0,0,0,.16,1.62,1.14,1.14,0,0,0,.23.15c.23.09.5.11.67.29s.06.82.15,1.24a1.3,1.3,0,0,0,.87.79,6.06,6.06,0,0,1,1.14.43,3.1,3.1,0,0,1,1.05,2.37c0,.13.28-.18.4-.25a.61.61,0,0,0,.23-.31,3.78,3.78,0,0,0,.12-2.71,4.61,4.61,0,0,0-1.62-2.2,10.21,10.21,0,0,0-3.4-1.43"/><path id="Trazado_6578" data-name="Trazado 6578" class="cls-40" d="M446.44,253.75a3.36,3.36,0,0,0-2.67,1.44,3.44,3.44,0,0,0-.4,3c.16-.23.14-.59.37-.75s.36-.07.51-.16c.41-.25.05-1,.36-1.33a1.08,1.08,0,0,1,.5-.25,2,2,0,0,0,1.31-1.93"/><path id="Trazado_6579" data-name="Trazado 6579" class="cls-39" d="M438.22,311.45c.33.51,1.86.1,3.42-.93s2.55-2.25,2.22-2.76-1.87-.09-3.42.93S437.88,311,438.22,311.45Z"/><path id="Trazado_6580" data-name="Trazado 6580" class="cls-39" d="M468.67,299.3c.6-.08.9-1.64.67-3.49s-.91-3.28-1.51-3.2-.9,1.63-.67,3.48S468.07,299.37,468.67,299.3Z"/><ellipse id="Elipse_454" data-name="Elipse 454" class="cls-41" cx="450.2" cy="259.81" rx="0.88" ry="0.6" transform="matrix(0.74, -0.67, 0.67, 0.74, -58.36, 367.26)"/><path id="Trazado_6581" data-name="Trazado 6581" class="cls-42" d="M454.84,276.4c-1.75-2.14-4.74-3.64-5.22-6.68"/></g><g id="Grupo_3114" data-name="Grupo 3114"><path id="Trazado_6582" data-name="Trazado 6582" class="cls-31" d="M530.08,220.76a2.05,2.05,0,0,0-1.87,2.22,1.11,1.11,0,0,0,0,.19,4,4,0,0,0,2.07,2.65,8,8,0,0,0,2.84,1.05c1.41.24,3.18.29,3.78,1.59.17.36.21.77.37,1.14.47,1.1,1.82,1.49,3,1.73.67.14,1.49.23,1.9-.32a3.63,3.63,0,0,0,.35-1c.64-1.92,3.43-1.79,5.06-3,1.44-1.06,1.8-3,2.14-4.76a3.54,3.54,0,0,1,.86-2,5,5,0,0,1,2.57-.81,6.41,6.41,0,0,0,3.2-1.68,1.5,1.5,0,0,0,.47-.69,1.43,1.43,0,0,0-.83-1.42c-2.48-1.49-5.57.36-8.46.47-1.69.06-3.35-.49-5-.38a12.7,12.7,0,0,0-4.09,1.21l-8.49,3.58"/><path id="Trazado_6583" data-name="Trazado 6583" class="cls-31" d="M517,221.55a3.49,3.49,0,0,0,2.93,2.82c2,.15,3.43-1.75,5.25-2.54a4.9,4.9,0,0,1,3.25-.22,7.7,7.7,0,0,0,2.28.56,4.39,4.39,0,0,0-2.59-4.78,8,8,0,0,0-5.77,0,4.49,4.49,0,0,0-2,1.14c-.91,1-.95,2.6-1.9,3.58"/><path id="Trazado_6584" data-name="Trazado 6584" class="cls-16" d="M554.08,216.76a1.33,1.33,0,0,0,1.14,1.49h.14a2.52,2.52,0,0,0,1.13-.4l2.77-1.53a.67.67,0,0,0-.82-.48.54.54,0,0,0-.2.1.82.82,0,0,0,.37-.45c.07-.22-.16-.44-.38-.46a1.12,1.12,0,0,0-.64.22c.14-.1-.09-.56-.25-.64a.72.72,0,0,0-.5,0,3,3,0,0,0-2.32,1.53c-.09.21-.16.47-.38.55"/><path id="Trazado_6585" data-name="Trazado 6585" class="cls-16" d="M539.62,228.72a1.74,1.74,0,0,0-.69,1.29,9.69,9.69,0,0,0-.12,1.87.45.45,0,0,0,.07.28c.13.16.42.07.53-.11a1.55,1.55,0,0,0,.14-.6.58.58,0,0,1,.34-.49,11.48,11.48,0,0,0,1.23,2.15c.06.09.18.2.28.13a.24.24,0,0,0,.07-.2v-.95a2.35,2.35,0,0,0,1.24,1,2.64,2.64,0,0,0-.43-1.59,1.91,1.91,0,0,0,1.37,1A2.68,2.68,0,0,0,543,231a2.5,2.5,0,0,0,1.29.5,1.85,1.85,0,0,0-.94-1.39c-.52-.4-1.06-.78-1.61-1.14a1.94,1.94,0,0,0-1.86-.41"/><path id="Trazado_6586" data-name="Trazado 6586" class="cls-43" d="M535,215.64c-3-3-5-6.4-8.43-9a10.53,10.53,0,0,0-3.31-1.94,3.09,3.09,0,0,0-2.14,0c-.94.43-1.67,2.45-1.94,3.4-1.12,3.91-2.69,8.69-1.6,12.6a1.88,1.88,0,0,0,.92,1.36c.93.36,1.78-.65,2.18-1.53a38.14,38.14,0,0,0,2.31-6,30.29,30.29,0,0,0,8.47,9.65,4.34,4.34,0,0,0,3.4,1.14,4.05,4.05,0,0,0,1.27-.62,10.73,10.73,0,0,0,3.89-3.94,2,2,0,0,0,.25-1.54,2.36,2.36,0,0,0-.58-.82,25,25,0,0,0-3.59-3.07,1.28,1.28,0,0,0-.79-.31c-.29,0-.56.32-.43.56"/><path id="Trazado_6587" data-name="Trazado 6587" class="cls-43" d="M541.18,209.91l-6.25-8c-.62-.8-1.39-1.67-2.4-1.68s-1.88,1-2.48,1.92q-2.64,4.06-4.87,8.37a7.26,7.26,0,0,0,1.63,2.39.75.75,0,0,0,.43.22.78.78,0,0,0,.48-.23l4.52-3.6a48.94,48.94,0,0,0,3.23,5.62,1.1,1.1,0,0,0,.4.4c.44.21.91-.23,1.2-.62l3.77-5"/><path id="Trazado_6588" data-name="Trazado 6588" class="cls-34" d="M545,197.37c-3.27,2-7.13,4.42-8.53,8s-.35,7.76.36,11.62a59.08,59.08,0,0,1,.86,7.61,9.09,9.09,0,0,0,.48,3.1,2.79,2.79,0,0,0,2.34,1.84c1.83,0,2.77-2.22,2.83-4s-.16-3.94,1.15-5.22a19.35,19.35,0,0,1,1.93-1.32,7.34,7.34,0,0,0,2.19-3.57A33.72,33.72,0,0,0,550.47,205a10.29,10.29,0,0,0-1-5.24,4.36,4.36,0,0,0-4.46-2.34"/><path id="Trazado_6589" data-name="Trazado 6589" class="cls-34" d="M543.87,199a3.13,3.13,0,0,1,3.5-1.17,5.38,5.38,0,0,1,3,2.5,19.32,19.32,0,0,1,1.52,3.64,55.31,55.31,0,0,0,3.5,7.87,6.85,6.85,0,0,1,1.2,3.66c-.11,1.3-1.45,2.56-2.65,2.05a2.94,2.94,0,0,1-.94-.74,31.39,31.39,0,0,1-9.06-18"/><path id="Trazado_6590" data-name="Trazado 6590" class="cls-34" d="M541.12,202.21a4.07,4.07,0,0,0-2.76,2.32,19.35,19.35,0,0,1-1.82,3.27c-1,1.18-2.52,1.85-3.42,3.11a6.49,6.49,0,0,0-1,2.92,8.6,8.6,0,0,0,1.38,6.25,5.21,5.21,0,0,0,5.8,1.92,7.13,7.13,0,0,0,3.48-3.83,17.38,17.38,0,0,0,1.87-8.64,12,12,0,0,0-3.55-8"/><ellipse id="Elipse_455" data-name="Elipse 455" class="cls-43" cx="516.84" cy="221.52" rx="1.29" ry="3.82" transform="translate(175.39 668.29) rotate(-75.81)"/><path id="Trazado_6591" data-name="Trazado 6591" class="cls-16" d="M547.22,196.27c-.73,2.8-3.16,4.6-5.42,4s-3.5-3.34-2.77-6.14,3.15-4.6,5.42-4S548,193.47,547.22,196.27Z"/><path id="Trazado_6592" data-name="Trazado 6592" class="cls-43" d="M548.12,192.79a5.18,5.18,0,0,0-2.74-3.81,4.67,4.67,0,0,0-3.1-.31,3.09,3.09,0,0,0-2.3,2,4,4,0,0,0-.2,1.77,4.27,4.27,0,0,0,1.66,2.93,2.15,2.15,0,0,0,.15,2.75,5.36,5.36,0,0,0,2.56,1.51,2.65,2.65,0,0,0,1.08.19,2.34,2.34,0,0,0,.92-.38,6.41,6.41,0,0,0,2.72-3.73C549.15,194.67,549.05,193.35,548.12,192.79Z"/><path id="Trazado_6593" data-name="Trazado 6593" class="cls-16" d="M541.81,196.64c-.47.54-1.12.73-1.46.44s-.26-1,.2-1.51,1.12-.74,1.46-.44S542.27,196.1,541.81,196.64Z"/><path id="Trazado_6594" data-name="Trazado 6594" class="cls-42" d="M543.59,222a61.18,61.18,0,0,0,.48-15.41"/><path id="Trazado_6595" data-name="Trazado 6595" class="cls-42" d="M537.55,222.24a123.23,123.23,0,0,1,0-15"/><path id="Trazado_6596" data-name="Trazado 6596" class="cls-42" d="M549.34,212.61c-.06-3-.11-6-.17-9"/></g><g id="Grupo_3116" data-name="Grupo 3116"><path id="Trazado_6597" data-name="Trazado 6597" class="cls-31" d="M694.28,100.72c2.3,1.9,4,.49,4.87-1.74a22.65,22.65,0,0,1,1.53-3.13A17.88,17.88,0,0,1,702,94c1-1.19,2.6-2,3.37-3.25-.9,1.22-1.11,3.2-1.62,4.7a39.69,39.69,0,0,0-1.88,6.68c-.28,1.91,1.1,6.36,3.58,4,1.21-1.14,1.79-3.57,2.4-5.11a28.94,28.94,0,0,1,2.59-5.34c1.07-1.66,4.74-3.83,4.41-6-.42-2.73-5.59-5.38-7.78-5.59s-4.41.76-6.34,1.89c-2.45,1.43-3.74,4.6-5.28,6.91-1.43,2.15-2.62,4.93-1.92,7.56a2.73,2.73,0,0,0,.5,0,.47.47,0,0,0,0-.54"/><path id="Trazado_6598" data-name="Trazado 6598" class="cls-43" d="M712.05,80.43c-3.66-1-7-.06-10.66-.34l.5.37c-1.28-.27-5,4.77-5.76,5.88a24.56,24.56,0,0,0-4.09,9c-.36,1.86-1,5.15.94,6.27,2.14,1.25,3.3-.68,4.37-2.41s1.74-3.46,2.79-5.1c.35-.56,2.13-3.45,2.85-4.37-.23.77-1.34,3.54-1.51,4.13a37.64,37.64,0,0,0-1.22,5.84c-.18,1.62-1.82,8.6,2.06,7.63,1.8-.44,2.72-3.18,3.34-4.66,1-2.27,1.88-4.85,3.4-6.8,2.22-2.83,6-5.54,6.33-9.36C715.67,83.62,715.15,81.27,712.05,80.43Z"/><path id="Trazado_6599" data-name="Trazado 6599" class="cls-16" d="M701.48,84.88a3.38,3.38,0,0,0-.84.62c-.22.25-.78,2.76-.27,2.8.25,0,.25-.65.33-.8,0,.18,0,1.54.35,1.52s.23-1.28.35-1.53c-.08.34.1,1.5.36,1.62.41-.18.12-1.47.28-1.85,0,.1.23,1.34.53,1.16s-.09-1.32-.16-1.53c.12,0,.34.42.56.46s.19-.34.11-.56c-.33-.75-.7-1.5-1.1-2.22l0-.07A2.59,2.59,0,0,0,701.48,84.88Z"/><path id="Trazado_6600" data-name="Trazado 6600" class="cls-16" d="M705.36,86.35a3.64,3.64,0,0,1,.63.83c.15.3,0,2.87-.52,2.76-.24,0-.06-.69-.1-.85,0,.18-.45,1.47-.75,1.36s.14-1.29.09-1.57c0,.35-.51,1.41-.8,1.46-.35-.28.29-1.45.25-1.86,0,.1-.59,1.23-.83,1s.45-1.24.58-1.43c-.11-.06-.44.31-.67.29s-.09-.38,0-.56A22.22,22.22,0,0,1,705,85.92l0-.08C705.09,85.93,705.22,86.19,705.36,86.35Z"/><path id="Trazado_6601" data-name="Trazado 6601" class="cls-33" d="M716.28,78.26c0-4.54-.44-8.8-3.31-12.52a9,9,0,0,0-4.51-3.37c-.84-.27-2.51-.93-3.14-.15h.21c-1.35-.07-3,2.06-3.72,3a18.77,18.77,0,0,0-2.75,5.63,28,28,0,0,0-1.16,7.33,19.19,19.19,0,0,0,.38,5.5,2.74,2.74,0,0,0,3.55,1.58,2.59,2.59,0,0,0,.55-.28,3.54,3.54,0,0,0,4.37,2c1.07-.28,1.89-1.4,2.91-1.55s2,.53,3.25.14C716.44,84.49,716.28,81.44,716.28,78.26Z"/><path id="Trazado_6602" data-name="Trazado 6602" class="cls-43" d="M703.2,107.54c.06.55-1.18,1.15-2.77,1.34s-2.94-.1-3-.64,1.17-1.15,2.76-1.34S703.13,107,703.2,107.54Z"/><path id="Trazado_6603" data-name="Trazado 6603" class="cls-43" d="M694.53,102.17c-.08.54-1.43.81-3,.59s-2.82-.84-2.74-1.39,1.42-.81,3-.59S694.6,101.62,694.53,102.17Z"/><g id="Grupo_3115" data-name="Grupo 3115"><path id="Trazado_6604" data-name="Trazado 6604" class="cls-44" d="M710.93,55.2a8.25,8.25,0,0,0-2.25-1.73c-.77-.35-1.37.09-2.15.08a3.44,3.44,0,0,0-3.25,1.67c-.66,1-.78,1.53.25,2.5a17.58,17.58,0,0,0,1.79,2.73,3,3,0,0,0,4.28.26l.18-.18C711.16,59.26,712.32,57,710.93,55.2Z"/><path id="Trazado_6605" data-name="Trazado 6605" class="cls-16" d="M709.87,59.72c-.24,2.58-2,4.53-3.83,4.36s-3.19-2.42-2.95-5,2-4.54,3.83-4.36S710.11,57.13,709.87,59.72Z"/><path id="Trazado_6606" data-name="Trazado 6606" class="cls-44" d="M703.28,57.22c.25.31,3-.26,3.26.33a1.61,1.61,0,0,0,1.48,1c.48,0,.74,0,1.08.34.2.21.32.51.57.67s.69.24.55-.17c-.06-.16.07-.4.1-.58a5.54,5.54,0,0,0,.11-1.22A4.3,4.3,0,0,0,709.15,55a3.08,3.08,0,0,0-1.89-.83,5.21,5.21,0,0,0-1,.25"/><path id="Trazado_6607" data-name="Trazado 6607" class="cls-44" d="M703.35,56.18c-.1.34-.31,1.28.17,1.47s.92-.91,1.14-1.22a4.12,4.12,0,0,1,1.27-1.29c.29-.16,1.57-.9.45-1s-2.79.88-3,2"/><path id="Trazado_6608" data-name="Trazado 6608" class="cls-16" d="M710.24,60.27a.8.8,0,0,1-1.11-.16.79.79,0,0,1,1.1-1.11A.91.91,0,0,1,710.24,60.27Z"/></g><path id="Trazado_6609" data-name="Trazado 6609" class="cls-45" d="M703.78,86.81c-.08-2,2.54-3.62,3.3-5.35s1.93-4,2.14-6a12.67,12.67,0,0,0-.32-4.79"/><path id="Trazado_6610" data-name="Trazado 6610" class="cls-45" d="M708.72,86.65a6.4,6.4,0,0,1,2.16-2.26,11.92,11.92,0,0,0,3.69-5.77,16.71,16.71,0,0,0,.46-6.89"/><path id="Trazado_6611" data-name="Trazado 6611" class="cls-45" d="M702.38,85.07c1.18-3.69-1.27-8.14-.66-11.22"/></g></g></g></g></svg>