<svg xmlns="http://www.w3.org/2000/svg" viewBox="0 0 445.23 278.37"><title>Recurso 7</title><g id="Capa_2" data-name="Capa 2"><g id="Capa_1-2" data-name="Capa 1"><path d="M306,278.37c-76.74,0-139.18-62.43-139.18-139.18S229.3,0,306,0,445.23,62.44,445.23,139.19,382.79,278.37,306,278.37Zm0-266.71A127.53,127.53,0,1,0,433.56,139.19,127.67,127.67,0,0,0,306,11.66Z"/><path d="M305.47,149.58a5.75,5.75,0,0,1-3.62-1.27l-52.52-41.79a5.83,5.83,0,0,1,7.26-9.13l52.52,41.8a5.83,5.83,0,0,1-3.64,10.39Z"/><path d="M152.89,51.67H5.83A5.83,5.83,0,0,1,5.83,40H152.89a5.83,5.83,0,1,1,0,11.66Z"/><path d="M142.75,116.57H28.37a5.83,5.83,0,0,1,0-11.66H142.75a5.83,5.83,0,1,1,0,11.66Z"/><path d="M168.1,244.37H53.73a5.84,5.84,0,1,1,0-11.67H168.1a5.84,5.84,0,1,1,0,11.67Z"/><path d="M138.08,178.44H49.38a5.83,5.83,0,1,1,0-11.66h88.7a5.83,5.83,0,0,1,0,11.66Z"/></g></g></svg>