<svg xmlns="http://www.w3.org/2000/svg" viewBox="0 0 300.04 300.04"><title>Recurso 6</title><g id="Capa_2" data-name="Capa 2"><g id="Capa_1-2" data-name="Capa 1"><path d="M150,75.12a5.35,5.35,0,0,0-5.35,5.35v10.7c0,.12,0,.22,0,.33-7.9.83-15.14,3.47-20.73,8a30.33,30.33,0,0,0-11,23.74,25.37,25.37,0,0,0,12.54,22.23c7,4.28,15.11,6.39,22.57,9.37,12.23,4.46,28.43,9.39,28.59,21.9A18.73,18.73,0,0,1,169.25,192c-4.61,3.76-11.29,6.19-19.23,6.19a32.77,32.77,0,0,1-27.42-15.38,5.38,5.38,0,0,0-7.52-2.51,5.64,5.64,0,0,0-1.34,8,42.6,42.6,0,0,0,31.1,20.07c0,.18-.17.31-.17.5v10.7a5.35,5.35,0,1,0,10.7,0v-10.7c0-.12,0-.23,0-.33a39.44,39.44,0,0,0,20.73-8.2,30,30,0,0,0,11-23.57,25.66,25.66,0,0,0-12.54-22.4c-7-4.28-15.11-6.39-22.57-9.37-12.15-4.45-28.43-9.37-28.59-21.73a19.06,19.06,0,0,1,7.35-15.38c4.61-3.76,11.29-6,19.23-6a32.64,32.64,0,0,1,27.42,15.21,5.38,5.38,0,0,0,7.52,2.51,5.64,5.64,0,0,0,1.34-8,42.35,42.35,0,0,0-31.1-19.9c0-.18.17-.31.17-.5V80.47A5.35,5.35,0,0,0,150,75.12Z"/><path d="M150,289.59C73.06,289.59,10.45,227,10.45,150S73.06,10.45,150,10.45,289.59,73.06,289.59,150,227,289.59,150,289.59Zm0-267.5A127.93,127.93,0,1,0,278,150,128.08,128.08,0,0,0,150,22.09Z"/><path d="M5.82,300A5.83,5.83,0,0,1,1.7,290.1L290.1,1.7a5.82,5.82,0,1,1,8.24,8.23L9.94,298.33A5.81,5.81,0,0,1,5.82,300Z"/></g></g></svg>